<?xml version="1.0" encoding="UTF-8" standalone="no"?>
<!-- Created with Inkscape (http://www.inkscape.org/) -->

<svg
   width="703.4729mm"
   height="177.31337mm"
   viewBox="0 0 703.4729 177.31337"
   version="1.1"
   id="svg5"
   xml:space="preserve"
   xmlns:xlink="http://www.w3.org/1999/xlink"
   xmlns="http://www.w3.org/2000/svg"
   xmlns:svg="http://www.w3.org/2000/svg"><defs
     id="defs2"><linearGradient
       id="linearGradient18491"><stop
         style="stop-color:#fe1e25;stop-opacity:1;"
         offset="0"
         id="stop18487" /><stop
         style="stop-color:#c1171c;stop-opacity:1;"
         offset="1"
         id="stop18489" /></linearGradient><linearGradient
       xlink:href="#linearGradient18491"
       id="linearGradient18518"
       x1="77.071365"
       y1="195.08688"
       x2="77.071365"
       y2="221.30492"
       gradientUnits="userSpaceOnUse"
       gradientTransform="matrix(5.5237358,0,0,5.5237358,-525.36102,-987.12859)" /></defs><g
     id="layer1"
     transform="translate(154.65398,-66.036548)"><path
       id="path16066"
       style="color:#000000;fill:#a20202;fill-opacity:1;stroke-width:3.31424;stroke-linecap:round;stroke-linejoin:round"
       d="m 201.51826,66.036548 c -0.12976,6.6e-4 -0.2573,0.004 -0.38252,0.009 v -0.003 c -7.51267,0.25961 -6.95787,6.79861 -6.78221,12.05157 l 0.608,18.2201 c 0.0387,1.08122 -0.57624,0.43583 -1.20744,0 -5.26561,-3.6355 -8.71176,-8.78655 -18.88234,-8.53489 -48.01761,1.18816 -56.72821,3.01281 -69.94877,4.30167 -16.051094,1.56487 -14.591834,3.45918 -14.917458,5.57764 -0.878329,5.714202 -0.431459,17.340612 -0.479516,23.323872 l -0.05999,0.86209 c -0.03867,0.56502 -0.50266,-0.18615 -0.687926,-0.68224 -4.588954,-12.2928 -5.417681,-13.9302 -21.996511,-14.94314 -11.633043,-0.71074 -24.547647,-0.79083 -37.25942,-0.92202 -21.152219,-0.21819 -35.621043,2.48259 -44.341309,4.32166 -4.919726,1.03763 -4.278498,4.47594 -5.777447,0.40251 l -7.121901,-19.353292 c -2.194282,-5.96282 -3.538992,-6.60059 -10.886949,-5.64332 -37.48947,4.88408 -73.938183,8.15104 -111.515563,13.15339 -2.02158,0.26901 -5.24357,0.71632 -4.39303,8.215182 4.55636,40.17231 5.86395,70.10731 8.66617,102.94072 0.19013,2.22795 -0.48443,4.90895 2.88872,5.51198 17.157,3.06782 34.96762,7.50559 50.398523,13.10202 2.46164,0.8928 7.01707,0.5764 5.30646,-4.23317 l -11.42359,-32.11848 c -0.16759,-0.47117 0.50039,-1.06503 1.00763,-0.003 6.56006,13.73692 12.81037,27.53748 18.74815,42.60297 2.44584,6.20564 5.64139,6.96366 10.88695,5.57478 24.82663,-6.57347 47.352442,-8.27053 69.477788,-8.32936 2.471773,-0.006 6.364073,-2.29036 2.083763,-6.85644 -2.13768,-2.28026 -4.901697,-3.26895 -7.527239,-5.7089 -1.558809,-1.44865 -0.570834,-1.25361 0.873469,-1.2103 28.674718,0.85938 57.332107,0.0111 85.60557,-4.83835 2.575994,-0.44135 1.946012,0.29938 1.881053,1.07613 -0.609213,7.28559 -2.433647,14.19567 12.499717,12.76519 31.054776,-2.97481 63.072336,-4.50632 94.206096,-4.43296 4.01095,0.011 7.9718,0.27011 12.49972,-2.6889 0.75587,-0.49382 1.06807,-0.69456 1.20743,0.40533 0.96472,7.6122 8.01218,5.04477 14.91746,3.08854 20.65341,-5.8514 35.14466,-7.48472 48.78287,-9.40549 2.17155,-0.30601 2.81689,0.12816 3.62805,0.93909 l 5.78031,5.78032 c 1.98711,1.98711 4.05277,3.67511 8.26655,3.49387 7.70787,-0.33142 27.27007,-3.09141 35.14134,-3.09141 7.552,0 22.53298,1.58095 34.4021,1.47865 3.26105,-0.0276 5.91963,1.38568 10.07911,-3.09142 1.18208,-1.27233 2.77849,-2.43287 4.16755,-4.16467 1.36381,-1.70032 2.1025,-1.41623 2.95437,-1.21031 12.76414,3.08512 25.42249,6.21338 37.76462,10.3475 4.91049,1.64481 6.56805,-0.70377 8.46634,-4.57 l 7.39026,-15.05163 c 0.53415,-1.08807 0.62092,-2.35753 2.6889,-0.53663 11.28914,9.93891 23.20549,17.65982 35.74653,30.63983 11.42667,11.82682 12.40371,11.10326 25.53606,1.21031 17.21925,-12.97172 34.93846,-24.98248 52.81338,-35.74653 3.65748,-2.20248 9.9172,-6.60561 0.80784,-11.55775 -16.63854,-9.04518 -48.71338,-20.64077 -73.51114,-30.50572 -2.71575,-1.08039 -3.26497,-1.34425 -0.13705,-3.76503 18.4321,-14.26632 36.32426,-28.53811 56.04184,-39.77703 6.48928,-3.69892 6.96775,-8.20838 -2.41774,-11.02112 -18.64653,-5.588202 -37.4627,-9.988472 -56.17601,-14.917462 -10.79028,-2.84213 -13.43588,2.03262 -18.07449,5.57765 -15.19309,11.611112 -21.26577,17.846632 -29.63225,27.617022 -1.2741,1.48787 -2.61283,4.16705 -4.03337,0.53663 l -3.62799,-9.27131 c -1.10072,-2.8128 -1.84559,-6.40472 -7.52438,-5.44348 -8.13851,1.37751 -16.10975,2.30627 -24.99662,5.98011 -2.5698,1.06238 -3.42394,1.77963 -4.97246,-1.34448 l -7.52725,-15.185752 c -2.6087,-5.2629 -5.95321,-9.9346 -18.94796,-9.94498 -19.17692,-0.0166 -35.83397,-1.39304 -51.47183,-0.53664 -4.59266,0.25133 -7.64993,0.73019 -11.01825,1.21031 -8.7348,1.24511 -17.78682,-2.49259 -24.72828,16.664392 -0.58949,1.62691 -2.18242,6.32164 -1.61276,-0.13417 l 1.61276,-18.277162 c 0.72091,-8.16971 1.94524,-13.29745 -7.72704,-14.51499 -15.87279,-1.9981 -33.79654,-4.16473 -50.87521,-5.37498 -0.43124,-0.029 -0.84099,-0.042 -1.23024,-0.0399 z m -143.565541,5.73745 c -8.382821,0.0221 -16.629041,0.39191 -25.062239,0.48526 -14.900758,0.16405 -29.638598,1.28576 -43.342291,3.22271 -5.545869,0.78387 -6.203862,3.19858 -5.643286,5.98298 1.320924,6.56109 4.128147,12.88362 8.198036,20.089772 1.361159,2.41006 2.651266,4.15054 6.316939,3.69654 11.570746,-1.43297 22.419473,-3.6397 35.680853,-3.83071 17.342984,-0.24967 24.169272,1.10033 38.769444,1.61277 6.492931,0.22813 6.656489,-2.86461 7.995332,-7.861222 1.598348,-5.96508 1.56388,-10.55188 2.152268,-16.79856 0.47007,-4.99059 -2.384983,-5.43055 -5.106638,-5.71177 -6.835016,-0.70626 -13.438587,-0.90335 -19.958418,-0.88777 z m 82.222961,53.435682 c 0.058,-0.001 0.11732,-2.8e-4 0.17698,0.003 5.52379,0.29221 10.99218,0.82624 16.01071,1.66132 0.96616,0.16074 2.15653,0.10219 2.04384,2.09228 -0.10882,1.92491 -0.3686,3.63501 -0.37964,5.36929 -0.005,1.0478 -0.51592,1.53444 -1.33023,1.804 -4.06486,1.34718 -9.51905,2.40277 -14.96883,3.23127 -1.39225,0.21156 -1.95142,-0.85546 -2.04091,-2.04378 -0.24138,-3.2036 -0.30435,-6.43432 -0.80784,-10.02491 -0.21267,-1.51997 0.42919,-2.07025 1.29592,-2.09234 z m -243.17796,3.25983 c 0.18167,0 0.38461,0.006 0.608,0.0228 6.038913,0.406 12.300353,0.38777 17.580683,1.99816 0.99627,0.30381 0.80119,1.67187 0.80781,2.75452 0.005,0.77344 -0.047,1.12033 -0.90486,1.33023 l -17.295233,4.22742 c -1.00382,0.24526 -1.31625,-0.54464 -1.51858,-1.13894 -0.85874,-2.52302 -0.99584,-5.20507 -0.95054,-7.8869 0.0105,-0.62501 -0.0833,-1.30222 1.67272,-1.30448 z m 423.34924,8.58339 c 0.3386,-0.0221 0.42864,0.1972 0.62512,0.74217 4.8204,13.37169 8.11741,24.21843 9.65665,34.71602 0.43196,2.94658 -0.23863,2.88466 -2.21789,3.3597 -6.98184,1.67474 -10.05778,2.74204 -14.17816,4.30172 -1.81256,0.6861 -2.73513,0.13201 -3.45675,-1.23887 -5.67553,-10.77968 -8.03229,-19.4726 -10.53868,-29.2126 -0.51261,-1.99103 -1.09321,-3.84756 1.22168,-5.01534 5.68453,-2.86753 11.64221,-5.06062 17.47793,-7.20179 0.73333,-0.269 1.14662,-0.43444 1.4101,-0.45101 z m -63.43204,10.53012 3.63092,34.4706 -6.45112,0.0685 z m -240.266399,3.12279 c 0.16295,0 0.330507,0.006 0.499533,0.0228 5.1818,0.43417 10.213333,0.94572 15.870853,1.14181 1.221795,0.0442 2.455687,-0.004 3.231275,1.80405 2.006111,4.67563 4.494774,9.15593 5.700385,13.78134 0.308777,1.18456 1.288522,2.24678 -0.807846,2.94581 -6.942397,2.31483 -13.561269,5.5682 -20.28671,7.78984 -1.199203,0.39606 -2.003818,-0.33252 -2.377775,-2.08946 -1.602419,-7.53095 -3.405234,-14.19484 -3.799297,-22.52176 -0.112463,-2.37609 1.158001,-2.86605 1.969582,-2.87157 z m -78.278118,21.21158 c 0.13765,-8.8e-4 0.30672,0.006 0.51381,0.0228 7.3555,0.58938 14.27364,0.63401 24.29153,1.54714 0.72605,0.0663 1.47266,-0.13146 1.34445,1.91536 -0.2711,4.32724 -0.70443,8.11597 0,13.40456 0.45643,3.42654 2.592923,5.77876 4.792663,8.3636 0.353464,0.41483 0.604291,1.19859 -0.03426,0.71361 -11.270233,-8.55566 -21.374043,-17.02427 -31.053773,-25.42764 -0.42268,-0.36677 -0.45082,-0.53558 0.14558,-0.53945 z m 211.330687,2.48624 c 0.73891,-0.0276 1.27151,0.2922 1.31017,1.26167 0.12318,3.25525 -0.20454,6.03076 -0.39677,8.70044 -0.10661,1.47871 -0.57541,1.99893 -1.56708,2.09228 -4.4497,0.4187 -6.99289,1.03222 -9.12289,1.42441 -1.76246,0.32424 -2.39918,-0.55646 -2.61185,-2.08947 -0.35573,-2.5666 -0.5279,-5.13674 -0.52238,-7.79272 h -0.003 c 0.004,-1.46125 0.52034,-1.61039 1.43584,-1.70981 3.57828,-0.38888 7.28548,-0.87054 10.68142,-1.75837 0.28116,-0.0729 0.55016,-0.12291 0.79641,-0.12843 z" /><path
       id="path16066-3"
       style="color:#000000;fill:url(#linearGradient18518);fill-opacity:1;stroke-width:3.31424;stroke-linecap:round;stroke-linejoin:round"
       d="m 201.76367,67.747078 c -1.63745,0.0563 -2.64951,0.43914 -3.33401,0.93909 -0.68456,0.4999 -1.40513,1.10862 -1.42441,2.08378 -0.20769,10.50482 0.38998,23.6797 1.13612,32.672292 l -5.76031,-5.283682 c -2.50297,-2.29544 -4.51091,-4.56735 -7.09055,-6.14852 -2.57969,-1.58117 -5.57764,-2.68774 -10.37882,-2.56898 -47.98033,1.18722 -56.53366,2.99635 -69.8346,4.2931 -7.956444,0.7757 -11.249695,1.58095 -12.422661,2.2322 -0.588333,0.3259 -0.53525,0.38058 -0.57375,0.50818 -0.03867,0.1276 -0.123179,0.5347 -0.15135,1.29311 -0.531936,14.356802 0.150798,28.626482 1.387286,42.857012 l -6.476801,-18.88234 c -2.126252,-6.19752 -3.202662,-9.23795 -5.543401,-10.93832 -2.340793,-1.70032 -6.380909,-2.4226 -14.617738,-2.92582 -11.56604,-0.70687 -24.46319,-0.79624 -37.179437,-0.92771 -21.003309,-0.21653 -35.232287,2.85821 -43.984481,4.29598 -4.84483,0.79586 -5.465112,4.60011 -6.314088,6.63378 -2.88022,-9.10836 -5.986448,-18.141332 -9.025834,-27.197382 -1.06586,-2.89643 -1.394252,-3.5748 -2.314976,-4.04763 -0.920696,-0.47393 -2.648316,-0.59673 -6.262706,-0.12539 -38.21919,5.09587 -84.187063,10.48068 -111.038873,13.01923 -1.01018,0.0956 -1.74143,0.26624 -2.25502,0.850652 -0.5136,0.58425 -1.38037,1.5509 -0.98194,5.06383 4.56272,40.22838 6.79521,68.2794 9.59387,101.07106 0.11395,1.33552 0.0475,2.49236 0.20553,3.0771 0.15804,0.5848 0.0784,0.72455 1.32734,0.94771 17.23388,3.08158 33.08874,7.70208 48.791443,12.90505 2.76897,0.91749 3.6358,0.30049 2.74601,-2.11515 l -18.759583,-50.94089 4.53861,-0.93627 c 6.569623,13.75687 21.840193,45.59281 27.796823,60.70602 1.74792,4.71921 2.09929,6.6049 7.97824,5.05527 25.00539,-6.59109 46.505804,-8.08907 68.712796,-8.14381 1.779903,-0.004 1.267819,-1.56128 -0.35965,-3.02005 -1.974725,-1.76997 -6.954936,-4.74356 -9.993499,-7.25321 -19.6721,-16.24768 -37.254167,-30.18788 -60.594677,-49.13965 l 34.54193,1.23312 c 3.38043,0.12097 3.780636,1.70744 3.759336,3.82214 l -0.134171,13.24471 c -0.03977,3.94494 4.292252,8.40254 7.470145,11.84891 3.726053,4.04094 14.329328,14.8388 19.784326,14.99451 28.034964,0.78862 61.10077,0.88838 88.274457,-4.02194 4.514052,-0.81569 4.160423,-1.16446 3.893516,2.41774 -0.212111,2.84859 -1.534439,6.53469 -0.454051,8.74893 0.457365,0.8432 1.136785,1.48406 2.74027,1.95248 1.603485,0.46841 4.102313,0.64462 7.712792,0.29994 31.108517,-2.97995 62.984067,-4.31078 94.174667,-4.23605 4.07928,0.011 7.44517,0.53028 11.35222,-2.46336 1.4539,-1.11408 2.69989,-2.63853 3.47387,-4.57001 l 0.65081,0.14583 -0.13423,6.05716 c -0.0387,1.65463 0.68362,2.46104 1.21887,2.93443 0.53525,0.47283 1.27742,0.7288 2.4063,0.75642 2.25767,0.0552 5.7095,-0.99704 9.20283,-1.98672 20.77095,-5.88466 35.39394,-7.40358 48.99984,-9.31982 2.36068,-0.38445 3.00823,-0.61981 5.02958,1.40154 l 5.78026,5.78313 c 1.91287,1.91287 3.27563,3.16991 7.02487,3.00862 3.71681,-0.15964 10.55602,-0.9291 17.40087,-1.66127 6.84485,-0.73217 13.68257,-1.43584 17.81189,-1.43584 7.78328,0 21.77291,0.59513 33.4829,0.49382 1.87354,-0.0166 3.27254,0.30105 4.49864,0.13975 1.22616,-0.16129 2.47806,-0.64876 4.37878,-2.69464 1.34646,-1.44926 2.85444,-2.78573 4.08187,-4.31597 1.62382,-1.87166 1.97308,-2.19856 4.6385,-1.78118 12.76956,3.08638 26.24836,7.64927 38.67527,11.81179 2.17674,0.72852 3.10428,0.52254 3.90489,-0.0221 0.80061,-0.54685 1.73379,-1.77919 2.54617,-3.71084 3.07319,-7.30697 6.02104,-13.64573 8.93453,-19.88705 10.77123,7.41898 27.0283,21.06117 39.70566,34.18225 2.84257,2.94217 5.0213,5.06853 6.77652,6.39688 1.75523,1.3284 2.99194,1.82476 4.19605,1.84686 1.20418,0.0221 2.60395,-0.4535 4.5957,-1.65276 1.99175,-1.19893 4.49543,-3.08164 7.77841,-5.55478 17.26278,-13.00464 35.03479,-25.04534 52.96186,-35.84076 3.01822,-2.23203 5.17778,-3.5712 0.86203,-6.06285 -16.37528,-8.90222 -56.95391,-23.1006 -81.12114,-33.78836 18.20623,-15.69238 41.10775,-33.03404 64.48243,-47.27003 1.26488,-0.7704 1.98772,-1.29537 1.62707,-1.93535 -0.57595,-1.02201 -2.46099,-1.26814 -4.68705,-1.9353 -18.58174,-5.568872 -37.37879,-9.972062 -56.12171,-14.908902 -5.13724,-1.35326 -7.95506,-0.85396 -10.18477,0.27122 -2.22988,1.12491 -3.97284,3.12682 -6.4625,5.02958 -15.13498,11.566652 -21.02731,17.655022 -29.38964,27.365802 l -4.14181,4.8098 c 0,0 -2.24623,-3.0053 -3.22271,-4.73843 -1.62846,-2.89018 -4.03051,-9.2685 -4.03051,-9.2685 -0.59131,-1.51118 -1.05409,-2.88996 -1.72694,-3.62517 -0.67279,-0.73786 -0.54464,-1.20981 -3.03717,-0.78785 -8.19319,1.38679 -15.98812,2.30235 -24.64265,5.88024 -1.22313,0.50542 -3.05248,1.46053 -4.58145,1.29592 -0.76448,-0.0823 -1.5283,-0.52144 -2.05803,-1.079 -0.52973,-0.55729 -0.92484,-1.22296 -1.35017,-2.08091 l -7.53012,-15.180052 c -1.26587,-2.55379 -2.56975,-4.70197 -5.00671,-6.29982 -2.43696,-1.5978 -5.25904,-3.00646 -11.55776,-3.01149 -19.25535,-0.0166 -35.89787,-1.38612 -51.37472,-0.53967 -4.51808,0.24747 -7.49355,0.71378 -10.87557,1.196 -4.67595,0.66655 -8.94967,0.095 -12.6767,1.52146 -3.72703,1.42623 -7.37043,4.73224 -10.73565,14.066802 -1.70573,4.73141 -4.0241,8.97784 -3.9049,15.38272 0.38666,20.76301 1.41242,41.6683 4.93822,63.67752 l -12.8708,0.23421 c 1.57576,-32.71566 4.52642,-65.93502 7.39877,-98.601952 0.36456,-4.13639 0.72002,-7.35546 0.10826,-9.2 -0.30546,-0.92219 -0.74382,-1.54582 -1.68126,-2.13796 -0.93737,-0.5922 -2.43342,-1.10458 -4.70418,-1.39016 -15.86643,-1.99733 -31.96442,-3.9176 -48.98553,-5.12376 -0.5231,-0.0387 -0.99941,-0.0497 -1.43579,-0.0331 z m -143.811006,5.68327 c -8.336312,0.0221 -16.569329,0.39108 -25.039426,0.48498 -14.829507,0.1635 -28.429315,1.00803 -42.057702,2.93437 -2.548453,0.36015 -3.081963,0.85839 -3.485306,1.39585 -0.403399,0.53746 -0.465596,1.24798 -0.228351,2.4263 1.271906,6.31772 3.249823,10.04646 7.276047,17.17534 0.654336,1.15855 1.214492,1.96733 1.812586,2.394872 0.598099,0.42478 1.307225,0.66583 2.860179,0.47394 11.490139,-1.422972 21.689231,-3.180682 35.121343,-3.374012 17.435009,-0.25078 22.720341,1.04354 37.236553,1.55283 2.983369,0.10495 3.872083,-0.40599 4.54145,-1.30448 0.669311,-0.89866 1.105465,-2.76469 1.792618,-5.3293 1.54184,-5.75419 1.373587,-7.78173 1.969598,-14.10967 0.205483,-2.17895 -0.211559,-2.77496 -0.713611,-3.16272 -0.502108,-0.38777 -1.579678,-0.6075 -2.911562,-0.74504 -6.757627,-0.69854 -11.690765,-0.83006 -18.174416,-0.81349 z m 82.174466,50.121602 h 0.003 c 0.10771,0 0.21211,0.006 0.30822,0.011 5.57251,0.29497 11.09835,0.82436 16.19626,1.6727 0.34247,0.0569 1.11414,0.011 2.03809,0.59374 0.92412,0.58099 1.45672,1.91398 1.3816,3.23697 -0.1149,2.01263 -0.36567,3.7025 -0.37672,5.27505 -0.004,0.79167 -0.22868,1.6068 -0.72217,2.22077 -0.49327,0.61413 -1.14408,0.96052 -1.73556,1.15606 -4.23969,1.40513 -9.75155,2.45309 -15.24568,3.28833 -1.13778,0.1729 -2.37487,-0.28226 -3.03148,-1.06757 -0.65655,-0.78558 -0.84353,-1.67706 -0.90484,-2.49192 -0.24581,-3.2653 -0.31209,-6.43952 -0.79929,-9.91356 -0.14196,-1.01372 -0.0442,-2.00965 0.54796,-2.81738 0.59231,-0.80779 1.56736,-1.14253 2.34068,-1.16463 z m -243.12941,4.91828 c 0.18167,0 0.38461,0.003 0.608,0.0221 6.038913,0.406 12.300353,0.38777 17.580683,1.99816 0.99627,0.30381 0.80119,1.67193 0.80781,2.75452 0.005,0.77344 -0.047,1.12033 -0.90486,1.33023 l -17.295243,4.22748 c -1.00382,0.24525 -1.31624,-0.54464 -1.51857,-1.13894 -0.85874,-2.52302 -0.99584,-5.20507 -0.95054,-7.8869 0.0105,-0.62501 -0.0834,-1.30222 1.67272,-1.30449 z m 423.23501,6.92776 h 0.006 c 0.53525,-0.0276 1.46423,0.36622 1.80118,0.81922 0.33861,0.45461 0.38169,0.7345 0.48499,1.01621 4.83558,13.41389 8.16888,24.36989 9.7337,35.04147 0.11821,0.79669 0.18118,1.43601 0.13147,2.06947 -0.0497,0.63346 -0.2563,1.33437 -0.72218,1.86686 -0.93262,1.06481 -1.93916,1.04939 -2.87157,1.27311 -6.93394,1.66319 -9.88212,2.69011 -13.98118,4.24173 -1.13148,0.42809 -2.30599,0.55823 -3.35401,0.12815 -1.04796,-0.4292 -1.70452,-1.28499 -2.15801,-2.14658 -5.7585,-10.93722 -8.16038,-19.81999 -10.66998,-29.57226 -0.25023,-0.96964 -0.62032,-2.06842 -0.49659,-3.38826 0.12318,-1.31989 1.04366,-2.74872 2.56616,-3.51674 5.79689,-2.92404 11.82378,-5.14017 17.6606,-7.28172 0.71234,-0.26127 1.03222,-0.49548 1.86686,-0.55072 z m -303.589915,13.6444 v 0.003 c 0.195319,0 0.414446,0.011 0.636544,0.0331 h 0.03425 c 5.189373,0.43527 10.179135,0.93705 15.759544,1.13038 0.569111,0.0221 1.387231,-0.0166 2.332066,0.35683 0.94478,0.37175 1.848187,1.24776 2.363552,2.44911 1.961478,4.57183 4.500132,9.1156 5.780258,14.02687 0.07678,0.29552 0.498241,0.83889 0.547954,1.99528 0.0221,0.57823 -0.197749,1.37237 -0.679364,1.89823 -0.48167,0.52586 -1.078012,0.80918 -1.758316,1.0362 -6.800215,2.26744 -13.408482,5.51877 -20.283887,7.78985 -0.991726,0.32756 -2.29921,0.16185 -3.117082,-0.56237 -0.817872,-0.72427 -1.17391,-1.68215 -1.401543,-2.75171 -1.591179,-7.47803 -3.438719,-14.26074 -3.842118,-22.78436 -0.07043,-1.48776 0.317449,-2.74574 1.101826,-3.55949 0.784398,-0.81392 1.778582,-1.04266 2.511935,-1.04763 0.0034,-0.003 0.01105,-0.006 0.01436,-0.0111 z m 183.896305,7.94965 0.63937,8.19518 -9.6424,-4.50146 z m -50.90664,15.75668 h 0.003 0.003 0.011 c 0.62148,-0.0221 1.40353,0.10219 2.04947,0.65655 0.64893,0.55701 0.94025,1.41203 0.9734,2.1922 v 0.003 0.003 0.003 0.003 c 0.1287,3.40179 -0.21156,6.26027 -0.39992,8.87741 -0.0646,0.89921 -0.22703,1.72628 -0.79923,2.46055 -0.57221,0.73433 -1.50887,1.09337 -2.26645,1.16463 -4.35789,0.40986 -6.77276,0.99609 -8.97446,1.40153 -1.17871,0.21709 -2.46039,0.0276 -3.31402,-0.7536 -0.85342,-0.78056 -1.1074,-1.79356 -1.23887,-2.74027 -0.36677,-2.64355 -0.54519,-5.2855 -0.53967,-8.01533 v -0.011 c 0.002,-0.92578 0.1613,-1.8689 0.88491,-2.5576 0.72333,-0.6887 1.5135,-0.73206 2.02665,-0.78785 3.55442,-0.38611 7.18081,-0.86524 10.43307,-1.71551 h 0.0111 c 0.34082,-0.0889 0.71339,-0.17068 1.13894,-0.18284 z" /><path
       id="path14502"
       style="color:#000000;fill:#a20202;fill-opacity:1;stroke-width:5.52374;stroke-linecap:round;stroke-linejoin:round;paint-order:stroke fill markers"
       d="m 210.27862,74.274538 c -0.30485,0.002 -0.65561,0.0388 -1.04763,0.14842 -0.52409,0.14748 -1.12596,0.53801 -1.46716,1.11038 -0.34136,0.57215 -0.45477,1.21754 -0.46526,1.95248 v 0.0114 c -0.13865,10.6317 -0.82702,23.316022 -1.099,34.984362 -0.0276,1.25245 0.25243,2.46022 1.28454,3.63374 l 4.47577,5.09238 c 1.67298,1.90227 1.54113,4.30658 0.81923,6.58523 -0.69969,2.20862 -1.7871,4.94905 -2.69459,7.37883 -0.45405,1.21495 -0.86806,2.35063 -1.1675,3.33402 -0.29938,0.98339 -0.53055,1.73462 -0.48526,2.60041 0.5336,10.07877 0.92191,20.06817 1.19887,29.79779 0.0276,0.96422 0.0385,1.6854 0.16273,2.38349 0.12263,0.69809 0.39495,1.36784 0.79636,1.97529 0.80288,1.215 2.00158,2.31433 4.41302,5.04958 1.04537,1.18567 0.96765,0.95019 0.36827,2.15796 -1.27687,2.57174 -3.99637,5.84991 -3.15135,10.15052 1.06255,5.40785 1.46462,11.70988 2.65466,17.73197 0.13036,0.65981 0.16527,1.56338 0.88484,2.46055 0.36015,0.44852 0.93142,0.81022 1.55284,0.95908 0.62147,0.14859 1.27924,0.13257 2.01815,0 20.0727,-3.59622 39.4609,-8.10873 58.60225,-10.48731 0.80089,-0.0994 1.74987,-0.0622 2.80595,-0.5395 1.05614,-0.4778 1.93049,-1.60547 2.30925,-3.17129 0.57441,-2.37454 1.14767,-5.46176 1.5414,-7.64142 0.13312,-0.73759 0.25851,-1.54571 -0.20548,-2.41774 -0.464,-0.87198 -1.47827,-1.30371 -2.46055,-1.39298 -0.87408,-0.0795 -1.70098,-0.11826 -2.55191,-0.17698 2.96801,-0.20018 6.09715,-0.2874 8.91166,-0.24834 0.4883,0.006 0.8996,-0.0487 1.27306,-0.0542 0.33363,-0.005 0.58717,0.0386 0.66798,0.0657 4.4e-4,0.0111 -0.002,0.009 0,0.0314 0.0276,0.19996 -0.0223,0.83425 -0.43107,1.8868 l -4.81548,12.29424 c -0.33861,0.87617 -0.55757,1.67153 -0.99334,1.7155 -3.32633,0.33585 -4.75129,1.5556 -3.07141,4.26742 l 2.47198,3.99057 c 0.47007,0.75962 1.02195,1.44639 1.80118,1.92104 0.77923,0.47449 1.7534,0.65694 2.74027,0.55094 29.70433,-3.18316 49.48737,-3.66992 65.49582,-3.34545 1.00129,0.0221 2.10813,-0.32038 3.01143,-1.09039 l 6.13427,-5.8203 c 0.33695,-0.31983 0.67754,-0.61789 0.87347,-1.18744 0.19609,-0.56955 0.005,-1.45015 -0.4082,-1.87823 -0.82646,-0.85629 -1.65585,-0.86038 -2.79452,-0.97053 -1.80935,-0.1751 -4.66214,-0.89224 -5.10376,-1.00189 0.0221,-0.0331 0.0122,-0.0331 0.0342,-0.0657 3.24813,-4.85326 5.06814,-7.47284 13.53874,-14.89746 1.6754,-1.46848 2.06792,-3.11086 2.18082,-4.26173 1.00262,-10.22106 2.61593,-20.64557 2.76027,-29.09848 0.0387,-2.33572 -0.65589,-4.57868 -2.5576,-5.97724 -6.02275,-4.42926 -10.63281,-8.97706 -17.1211,-14.30089 -0.46841,-0.3839 -0.55287,-0.70025 -0.54237,-0.78786 0.011,-0.0878 0.11986,-0.47725 1.28454,-0.99333 3.03386,-1.3458 8.04024,-3.3312 12.23994,-4.89541 0.67848,-0.25243 1.5994,-0.65788 2.2122,-1.64132 0.61286,-0.98345 0.63595,-2.39819 -0.009,-3.82784 -4.33873,-9.62345 -7.18456,-15.14332 -11.61482,-18.01174 -4.4302,-2.868422 -10.13616,-2.981442 -20.33524,-3.042862 -4.44468,-0.0276 -8.46988,-0.0579 -12.24568,-0.0656 v 0.003 c -11.32736,-0.0221 -20.34895,0.11545 -31.17939,0.83066 -6.55834,0.43306 -11.17336,0.17179 -15.06014,1.59564 -3.88694,1.424022 -6.62644,4.676672 -8.95447,11.143862 -1.31614,3.65622 -2.95238,6.40378 -4.37022,10.19616 -0.7109,1.90143 -0.96637,4.27697 -0.84209,6.36549 1.12723,18.94747 3.44074,38.31159 6.2827,56.9495 0.14859,0.97505 0.51928,2.26898 1.69556,3.04286 0.19571,0.12876 0.40688,0.23476 0.62513,0.33115 -10.25476,-0.1972 -19.16113,0.79624 -28.8644,0.93627 -0.48443,0.006 -0.5833,-0.0225 -0.63655,-0.0114 -0.006,-0.0691 -0.0169,-0.044 -0.0114,-0.18267 0.22702,-7.94209 1.15656,-15.21845 1.5214,-21.72823 0.78194,-13.94306 2.02346,-32.55303 3.00861,-48.83142 0.98522,-16.27845 1.72761,-30.071662 1.45579,-34.995802 -0.11711,-2.11763 -0.87469,-3.71161 -2.14658,-4.56431 -1.27184,-0.8527 -2.7036,-0.95257 -4.12182,-1.05614 -10.52917,-0.76957 -15.61504,-2.65841 -31.96436,-2.86019 v -0.003 c -0.22708,-0.003 -0.60822,-0.0937 -1.11613,-0.0914 z m -166.030234,2.20076 v 0.003 c -5.274781,-0.0111 -10.563592,0.1619 -15.422712,0.35965 -5.518919,0.22426 -12.406924,0.2753 -18.448422,0.55094 -3.020732,0.13809 -5.832673,0.33473 -8.178056,0.64793 -2.345345,0.3132 -4.195117,0.66909 -5.557652,1.45578 -0.616079,0.35573 -1.125864,0.7652 -1.510012,1.29311 -0.384176,0.52807 -0.657143,1.27255 -0.462426,2.04952 1.042208,4.15838 3.049362,8.58196 4.918252,12.09152 0.567514,1.06575 1.70526,1.66292 2.70889,1.78974 1.003663,0.12705 1.951298,-0.0277 2.934396,-0.17129 14.537125,-2.15116 29.712788,-2.52611 54.848658,-2.92294 0.28392,-0.005 0.988638,0.10346 1.835427,-0.0457 0.42356,-0.074 0.91567,-0.24078 1.358673,-0.61369 0.443004,-0.37285 0.760343,-0.94621 0.884903,-1.54427 0.576291,-2.76855 1.330336,-6.37792 2.038093,-9.21138 0.339157,-1.35856 0.323359,-2.54683 -0.419583,-3.39969 -0.742943,-0.85287 -1.650769,-0.90584 -2.212256,-1.0019 -5.776779,-0.98797 -12.534296,-1.31393 -19.316173,-1.33023 z m -88.970963,14.04118 c -0.63561,-0.005 -1.34117,0.01 -2.12086,0.0485 -2.48697,0.12097 -6.07684,0.0445 -8.68331,0.31403 -26.38757,2.73386 -52.668673,6.45261 -78.426543,9.465422 -10.02081,1.17208 -8.31004,4.79725 -7.79556,10.88695 2.64631,31.3219 5.23664,62.22764 9.7423,94.34021 0.40047,2.85423 0.10998,4.47434 4.57001,5.17514 l 20.02696,3.14565 c 3.38635,0.53194 8.762313,2.46088 5.64328,-7.24465 -4.64914,-14.46689 -8.33341,-26.18616 -11.96308,-35.41256 -0.67313,-1.71103 -1.00947,-2.94239 0.94198,-3.3597 1.07053,-0.22869 3.30606,-0.59972 5.57763,-0.93915 1.40608,-0.2099 2.84415,-0.84911 4.23318,2.0809 8.742023,18.44055 17.854513,36.97142 28.758783,55.57083 0.89502,1.52665 1.20133,2.61267 4.90398,1.9496 12.35791,-2.21308 25.57279,-3.55519 38.50394,-4.83829 6.035046,-0.59883 3.240334,-3.92169 1.746937,-5.71182 -15.053677,-18.04467 -37.667737,-35.7863 -54.157857,-50.79816 -1.93096,-1.75787 -0.0944,-1.87287 2.34923,-1.81543 14.523,0.34027 29.21466,0.0276 43.1396,0.67081 2.73857,0.12594 4.954563,0.005 7.727047,-2.68603 l 4.638513,-4.50151 c 4.781976,-4.64348 5.325478,-5.74513 3.359713,-11.8946 -8.176394,-25.57793 -13.268743,-40.75108 -15.930793,-49.587842 -0.84534,-2.80617 -0.64055,-4.80897 -6.78508,-4.85829 z m 218.264157,3.05429 c -23.76902,0.3491 -43.92822,3.14135 -65.49581,4.7698 -2.4711,0.1867 -4.3985,0.36843 -5.97724,1.16463 -1.57874,0.796242 -2.57787,2.486172 -2.631837,4.498642 -0.650917,24.25892 -0.598055,47.73612 -1.090385,72.44357 -0.02762,1.32343 -0.0012,3.60628 0.539503,5.28362 1.106404,3.44908 1.853269,6.68212 2.072339,10.02204 0.16074,2.45111 -0.18228,3.17499 -0.76785,4.28742 -0.585464,1.11237 -1.476553,1.94861 -2.643277,2.95724 -0.979248,0.84662 -1.442413,3.0923 -1.487155,4.09618 -0.04419,1.00383 0.181896,1.86001 0.311152,2.63179 0.556737,3.31258 0.471174,6.22939 0.593691,9.23425 0.03867,0.88468 -0.02215,1.50549 0.473881,2.27782 0.246911,0.38611 0.637771,0.67688 0.961959,0.83066 0.324243,0.15411 0.605456,0.23255 0.916277,0.32258 4.231292,1.22799 10.450742,0.12263 23.369542,-1.31592 12.91881,-1.4381 32.44599,-3.35246 62.6042,-4.21891 2.39564,-0.0691 4.67015,0.022 6.85076,-0.54807 2.18066,-0.57292 4.29266,-1.95369 5.70038,-4.53289 l 13.02204,-23.85193 c 0.9107,-1.66844 0.95301,-4.40269 0.4482,-5.71751 -0.50377,-1.31481 -1.47793,-2.21524 -2.39493,-2.88875 -9.50806,-6.9831 -20.02475,-10.08054 -28.71878,-15.63963 -0.0442,-0.0276 -0.0756,-0.0384 -0.11423,-0.0599 0.13588,-0.0834 0.28414,-0.17764 0.48244,-0.31684 4.07027,-2.85334 7.05812,-4.76737 15.57682,-9.12576 4.9301,-2.52231 6.7483,-5.38559 8.31792,-10.00205 1.52974,-4.4992 2.43448,-9.34777 3.87352,-14.31515 0.28558,-0.98549 0.38628,-4.02548 -0.0628,-5.26081 -0.44908,-1.23527 -1.37061,-2.44524 -2.86019,-3.75647 -9.64699,-8.49307 -17.75545,-14.39949 -26.80918,-21.554112 -1.1048,-0.87309 -2.61394,-1.75136 -5.06096,-1.71551 z m 292.24915,3.41963 v 0.003 c -0.6112,-0.006 -1.27858,0.0111 -2.06946,0.22548 -1.0546,0.28833 -2.21541,0.87507 -3.94776,2.03809 -9.86661,6.624892 -18.09449,12.645982 -24.38288,19.030762 -5.35327,5.4353 -11.19528,10.80133 -16.06208,16.91556 -0.31596,0.3966 -0.53691,0.59518 -0.6708,0.69936 -0.0221,-0.0497 -0.21046,-0.1787 -0.59375,-0.53663 -5.86516,-5.49397 -9.8908,-12.08412 -13.89557,-18.79385 -0.65566,-1.09851 -1.73865,-1.75749 -2.71745,-1.83256 -0.97886,-0.0751 -1.72495,0.19477 -2.32063,0.33397 l -0.0114,0.0114 c -13.5363,3.30806 -26.38456,9.00513 -37.68187,12.16857 -0.6022,0.16848 -1.09746,0.35683 -1.55565,0.66799 -0.45847,0.31098 -0.93263,0.88661 -0.99052,1.58708 -0.058,0.70052 0.0495,1.62607 0.5395,2.18938 0.31817,0.36789 0.64777,0.68324 1.04471,1.0019 10.30215,8.27229 20.64557,16.55894 31.84732,23.84337 1.01056,0.65716 1.54438,1.21406 1.78118,1.58708 0.23697,0.37285 0.23979,0.52807 0.20554,0.73361 -0.0679,0.41152 -0.68213,1.13678 -1.35017,2.00672 -9.06633,11.80604 -18.20474,22.67819 -27.88818,33.35159 -0.36401,0.40103 -0.7699,0.75968 -1.15319,1.15325 -0.38335,0.39384 -0.87004,1.16844 -0.97052,2.07516 -0.0497,0.4535 0.0878,0.9672 0.32253,1.33591 0.23476,0.36899 0.52696,0.6222 0.85353,0.85348 0.65279,0.46233 1.48826,0.84546 2.70602,1.31591 14.18506,5.48027 27.968,8.39426 41.89218,11.73756 0.34523,0.0829 1.07249,0.49476 2.16939,0.36826 1.09696,-0.12649 2.14227,-1.05293 2.76314,-2.48341 3.81337,-8.78534 7.90673,-13.75687 12.30848,-20.29244 0.57221,-0.84955 1.21727,-1.61343 1.71557,-1.89818 0.49818,-0.28447 0.74349,-0.39627 1.67269,0.2483 9.25944,6.4252 18.20916,12.60803 27.36012,20.30387 6.4763,5.44668 13.03181,8.85499 18.37133,13.95837 0.821,0.7847 1.49561,1.72688 2.5776,2.41774 0.54077,0.34523 1.26654,0.61087 2.04091,0.53944 0.77454,-0.0718 1.49312,-0.43632 2.15801,-0.98189 11.86587,-9.72852 19.13472,-15.41195 37.6847,-27.37155 0.74438,-0.48001 1.61945,-0.97914 2.09233,-2.11228 0.42146,-1.01012 0.24388,-2.61201 -0.077,-3.24265 -0.32038,-0.63076 -0.83508,-1.07199 -1.47865,-1.45866 l -6.76222,-4.06475 c -0.28171,-0.16902 -0.27093,-0.13649 -0.48526,-0.23978 -0.21432,-0.10274 -0.50597,-0.24454 -0.87634,-0.41964 -0.74078,-0.34965 -1.78195,-0.84005 -3.05142,-1.43578 -2.53887,-1.19142 -5.99585,-2.81291 -9.78513,-4.60713 -7.57851,-3.5885 -16.49658,-7.87133 -22.07362,-10.7756 -2.92714,-1.52427 -8.60504,-3.86302 -8.68613,-3.89638 -6.3586,-3.02182 -12.00954,-4.87597 -17.35801,-7.57288 -0.75023,-0.53083 -0.14329,-0.74979 0.33396,-1.29592 4.59526,-4.40491 7.38971,-8.30588 19.56165,-19.01933 10.13771,-8.92271 19.68273,-15.37107 32.49531,-25.26778 0.21211,-0.1635 0.4883,-0.38163 0.76498,-0.70217 0.27674,-0.32093 0.60695,-0.77465 0.63656,-1.47578 0.0276,-0.70113 -0.39771,-1.4317 -0.92771,-1.83543 -0.52973,-0.40378 -1.16314,-0.64744 -2.00667,-0.87347 -11.90265,-3.18935 -24.88166,-10.110092 -35.47249,-10.204712 -0.19388,-0.001 -0.39274,-0.006 -0.59662,-0.0114 z M 38.222598,110.8974 c -13.449761,0.0497 -26.822179,0.73173 -39.368836,2.07234 -3.100274,0.33143 -6.094548,0.83326 -8.629064,2.08091 -2.534478,1.24764 -4.576266,3.37748 -5.374965,6.52817 l -4.507209,17.78046 c -0.35722,1.40927 0.07019,3.38489 1.044738,4.94397 1.82054,2.91233 1.45578,3.60876 1.45578,4.94678 0,1.20478 -0.0077,1.72953 -0.365373,2.38349 -0.357662,0.65395 -1.247337,1.60846 -3.268367,3.11992 -3.869714,2.89388 -4.321157,6.08782 -4.587136,9.16001 -0.497744,5.74943 -0.324536,12.58075 -0.182687,18.42276 0.11158,4.59691 1.346958,7.00056 3.842117,9.71089 4.590904,4.98678 8.132796,8.78821 13.938374,13.67003 1.560655,1.31228 3.822183,2.06671 5.814555,2.08091 l 25.655975,0.18272 c 13.746291,0.10164 39.339527,-2.31505 53.07888,-3.61379 3.422673,-0.32369 7.7424,0.0166 11.469265,-1.75832 1.863487,-0.887 3.54088,-2.37023 4.669876,-4.61856 1.128941,-2.24833 1.738375,-5.20833 1.738375,-9.15714 0,-18.28975 -10.295249,-46.84343 -19.290487,-69.59482 -0.98096,-2.4812 -1.930767,-4.44716 -3.927763,-5.74032 -1.997051,-1.29321 -4.70197,-1.78626 -9.071521,-2.01809 -7.97053,-0.42312 -16.064846,-0.61364 -24.134527,-0.58232 z m 93.292642,7.11905 c 0.0884,-0.004 0.18438,-0.005 0.28546,0 11.81792,0.53028 22.06053,2.2676 32.25265,4.23317 1.26085,0.24304 2.72547,0.72151 2.6889,2.6889 -0.0934,5.03566 -1.34337,9.46801 -2.21794,13.97549 -0.31927,1.64646 -1.51461,1.65801 -2.42056,1.88106 -11.56593,2.84743 -18.9062,4.74361 -26.80917,5.84599 -1.01471,0.1414 -1.79268,0.15853 -2.08378,-1.27599 -1.69949,-8.37503 -3.32794,-16.76426 -3.02292,-25.39902 0.0331,-0.95235 4.4e-4,-1.89519 1.32736,-1.9496 z m -243.34925,2.29213 c 0.0983,-5e-4 0.20455,10e-4 0.31684,0.0114 10.46723,0.72593 21.030413,1.37983 31.930103,3.23127 0.70997,0.12042 1.32504,0.69721 1.37585,1.90111 0.19654,4.6786 0.39613,9.41322 -0.18839,13.96975 -0.0903,0.70389 -0.118,1.38811 -1.4729,1.56708 -9.37153,1.23748 -18.99319,2.95719 -29.886303,4.89547 -0.63401,0.11268 -1.17735,-0.11876 -1.28451,-1.14182 -0.78235,-7.46919 -1.88854,-14.77461 -2.18367,-22.71017 -0.0304,-0.80978 -0.0813,-1.71424 1.39298,-1.72125 z m 250.45686,0.77354 c -2.83257,0.0387 -2.39935,0.94556 -2.32069,2.58047 l 0.60518,12.56534 c 0.12649,2.63029 -0.022,6.13786 6.04573,4.90397 4.83531,-0.98306 9.33832,-2.04245 14.24665,-3.42532 1.57637,-0.44411 3.48703,-0.52586 3.72797,-3.69654 0.15743,-2.07571 0.6022,-4.10425 0.63938,-6.24845 0.0442,-2.65217 -1.02068,-4.10679 -2.72028,-4.50439 -5.28737,-1.23665 -11.03488,-1.4708 -17.1354,-2.01522 -1.15838,-0.10329 -2.07726,-0.15654 -2.80307,-0.15986 -0.0983,-4.9e-4 -0.19378,-0.001 -0.28547,0 z m 191.43219,0.83635 v 0.003 c 0,0.30491 0.36285,-0.003 0.60225,0.24548 0.23973,0.24912 0.59883,0.85645 0.92771,1.95529 5.81351,19.42344 11.28803,38.58501 12.38554,53.99805 0.0586,0.82271 -0.0335,1.18286 -0.0114,1.14745 -0.0276,0.0221 -0.18615,0.10572 -0.79923,0.21123 -11.07338,1.91491 -21.77048,3.25895 -34.6304,7.0991 -0.24912,0.0746 -0.35706,0.0964 -0.41395,0.11131 0.0387,0.0497 0.0575,0.069 0.0172,0.0486 -0.0685,-0.0276 -0.0818,-0.032 -0.0172,-0.0486 -0.0801,-0.0939 -0.29386,-0.33474 -0.61081,-0.88772 -7.87144,-13.74079 -12.61058,-26.97495 -16.56735,-37.68757 -0.66152,-1.79068 -1.14098,-3.4156 -1.13325,-4.61569 0.006,-1.20003 0.28729,-1.94308 1.53002,-2.7517 11.46562,-7.45942 22.24171,-11.92249 37.37073,-18.4827 0.006,-0.003 0.0173,0.003 0.0228,0 0.59099,-0.22316 1.05647,-0.3454 1.32736,-0.3454 z m -435.01549,2.00954 c -2.05075,0 -2.80206,1.12457 -2.61469,2.66327 l 1.56995,12.87361 c 0.11987,0.98411 0.76283,1.66077 1.51858,1.52146 7.393123,-1.36303 14.473063,-3.23354 22.142133,-5.41492 0.92792,-0.26403 1.08275,-1.32094 1.09325,-2.32924 l 0.0485,-4.56145 c 0.0155,-1.47661 -0.99737,-1.88746 -1.8554,-2.08946 -6.73082,-1.58449 -16.91346,-2.66327 -21.902353,-2.66327 z m 245.13613,1.28167 c 0.058,-0.001 0.11733,-2.8e-4 0.17698,0.003 5.52379,0.29221 10.99218,0.82624 16.01072,1.66132 0.96615,0.16074 2.15652,0.10219 2.04383,2.09228 -0.10881,1.92491 -0.37081,3.63501 -0.37964,5.36929 -0.005,1.0478 -0.51592,1.53417 -1.33023,1.804 -4.06503,1.34718 -9.51905,2.40277 -14.96883,3.23127 -1.39225,0.21156 -1.95137,-0.85546 -2.04091,-2.04378 -0.24138,-3.2036 -0.30491,-6.43432 -0.80784,-10.02491 -0.21267,-1.51997 0.42919,-2.0708 1.29592,-2.09234 z m -243.17796,3.25983 c 0.18167,-2.7e-4 0.38461,0.006 0.608,0.0228 6.038933,0.406 12.300343,0.38777 17.580683,1.99816 0.99628,0.30381 0.80119,1.67187 0.80781,2.75452 0.005,0.77344 -0.047,1.12033 -0.90486,1.33023 l -17.295233,4.22742 c -1.00381,0.24526 -1.31625,-0.54464 -1.51858,-1.13894 -0.85874,-2.52302 -0.99584,-5.20507 -0.95054,-7.8869 0.0105,-0.62501 -0.0833,-1.30222 1.67272,-1.30448 z m 424.19702,3.44245 c -0.66826,0.0111 -1.43551,0.36291 -2.33494,0.75929 l -16.6787,7.22466 c -7.13887,3.09197 -5.55831,6.07617 -4.60712,9.83369 2.46491,9.73724 5.23915,20.00653 11.3094,30.17175 1.12547,1.88459 1.90166,3.5706 5.79462,2.18364 5.41791,-1.93027 10.98445,-3.43134 16.63009,-4.84404 1.80063,-0.45074 2.43271,-2.38029 2.04384,-5.36924 -1.34094,-10.2995 -3.66864,-22.90008 -10.21615,-38.24988 -0.55359,-1.29774 -1.18368,-1.72274 -1.94104,-1.70987 z m -0.84778,5.14094 c 0.3386,-0.0221 0.42864,0.1972 0.62512,0.74217 4.8204,13.37191 8.11724,24.21821 9.65665,34.71602 0.43196,2.94641 -0.23863,2.88488 -2.21789,3.3597 -6.98184,1.67474 -10.05778,2.74204 -14.17816,4.30172 -1.81256,0.6861 -2.73513,0.13201 -3.45675,-1.23887 -5.67553,-10.77973 -8.03212,-19.4726 -10.53868,-29.2126 -0.51261,-1.99103 -1.09321,-3.84756 1.22168,-5.01534 5.68453,-2.86753 11.64221,-5.06062 17.47793,-7.20179 0.73333,-0.269 1.14667,-0.43389 1.4101,-0.45101 z M 6.749224,142.46495 c 0.08794,0.001 0.17771,0.006 0.271171,0.0114 12.620477,0.70858 23.876348,2.61532 35.044348,4.28454 1.905412,0.28503 2.819701,1.35078 3.559495,2.97149 3.31264,7.25731 5.100507,13.24382 6.685157,20.14402 0.598772,2.60726 -0.183941,3.58015 -1.758316,3.99057 -12.82037,3.34169 -25.508772,8.1843 -37.861707,12.83368 -3.612783,1.35978 -4.068546,-0.44577 -4.558584,-1.70982 -4.748535,-15.48899 -4.052986,-26.52918 -4.201779,-39.2547 -0.01712,-1.47528 0.09429,-3.31076 2.820215,-3.27121 z m 10.630043,4.51576 v 0.003 c -6.244407,0.0332 -6.029832,3.30784 -5.457744,8.73181 0.740032,7.01631 2.062701,13.69307 4.087598,19.86142 1.955065,5.95553 4.897629,4.84086 7.270335,3.70511 4.929962,-2.35984 10.92306,-5.51898 19.193436,-7.64999 2.482201,-0.83077 3.674941,-2.42746 1.949602,-7.12474 -1.589952,-4.32862 -3.033857,-8.71424 -5.08377,-12.92504 -0.842922,-1.73153 -1.277751,-3.41472 -5.703257,-3.65942 -5.07206,-0.28061 -9.972387,-0.62308 -14.917451,-0.90203 -0.475538,-0.0276 -0.922453,-0.04 -1.338749,-0.04 z m -0.730746,3.7251 c 0.163392,-0.001 0.330286,0.006 0.499533,0.0228 5.181844,0.43417 10.213333,0.94572 15.870853,1.14181 1.221795,0.0442 2.455687,-0.004 3.231275,1.80405 2.006111,4.67579 4.494774,9.15587 5.700385,13.78134 0.308777,1.18456 1.288522,2.24678 -0.807846,2.94581 -6.942397,2.31483 -13.561214,5.5682 -20.28671,7.78984 -1.199175,0.39606 -2.003928,-0.33252 -2.377775,-2.08946 -1.60243,-7.531 -3.405234,-14.19484 -3.799297,-22.52176 -0.112463,-2.37604 1.158012,-2.86527 1.969582,-2.87157 z m 141.553159,15.82235 c 0.52917,0.0111 1.00377,0.20051 0.97908,1.41579 -0.15522,7.63502 -0.1392,15.25612 -2.28357,25.33058 -0.19333,0.9075 -0.16737,1.92469 -2.88875,2.01523 -6.84081,0.22758 -13.52012,0.65892 -21.0003,1.91535 -1.04106,0.1751 -1.75755,0.28503 -2.11521,-1.04188 -1.55725,-5.77977 -3.28817,-13.69854 -3.42819,-24.52561 -0.0221,-1.53516 0.48222,-2.18403 1.81543,-2.35206 9.57396,-1.20655 19.12411,-2.39162 28.69315,-2.75458 0.0762,-0.003 0.15323,-0.005 0.22836,-0.003 z m -7.31884,3.491 c -0.57911,0.005 -1.26952,0.0912 -2.08378,0.27404 -3.58905,0.80519 -7.64435,1.71992 -11.96027,1.61276 -3.82828,-0.095 -3.12455,2.16332 -2.95718,4.33591 0.23752,3.08429 0.48056,5.60958 0.90771,9.17145 0.23807,1.98517 0.89661,4.16523 5.14089,4.23317 2.80854,0.0442 5.59046,-0.36733 9.54247,-1.31023 1.4043,-0.33529 3.38771,-0.45184 3.79646,-3.99908 0.43748,-3.79784 0.69456,-7.2847 0.43677,-11.92596 -0.0773,-1.38652 -0.75493,-2.40962 -2.82307,-2.39206 z m -1.18175,4.38447 c 0.73907,-0.0276 1.27344,0.2922 1.31017,1.26167 0.12318,3.25525 -0.20454,6.03076 -0.39677,8.70044 -0.10661,1.47871 -0.57541,1.99899 -1.56708,2.09228 -4.4497,0.4187 -6.99289,1.03244 -9.12289,1.42441 -1.76246,0.32424 -2.39924,-0.55646 -2.61185,-2.08947 -0.35572,-2.5666 -0.52956,-5.13674 -0.52238,-7.79272 h -0.003 c 0.004,-1.46147 0.52034,-1.61033 1.43584,-1.70981 3.57828,-0.38888 7.28548,-0.87054 10.68142,-1.75837 0.28116,-0.0735 0.55016,-0.12015 0.79641,-0.12843 z" /><path
       id="path9357"
       style="color:#000000;fill:#ffffff;fill-opacity:1;stroke-width:2.76187;stroke-linecap:round;stroke-linejoin:round;paint-order:stroke fill markers"
       d="m 210.02459,75.681758 c -0.7298,0.0352 -1.32664,0.36231 -1.34735,1.82687 -0.1392,10.67771 -0.82204,22.2896 -1.09326,33.925402 -0.0282,1.2113 0.0166,1.65182 0.93627,2.69747 l 4.48152,5.0952 c 2.18624,2.4859 1.90679,6.40317 1.09039,8.98016 -1.44811,4.57094 -4.37154,11.01919 -4.27598,12.82799 0.53392,10.088 0.91589,19.2173 1.19318,28.95863 0.10931,3.83916 0.16063,3.00331 5.0324,8.52914 1.34812,1.52908 1.32746,3.03778 0.57093,4.56145 -1.38623,2.79208 -3.74863,5.67359 -3.04286,9.26562 1.08216,5.50761 1.48881,10.79576 2.66034,16.72433 0.28083,1.42109 0.38236,2.7717 2.85163,2.32925 20.02719,-3.58806 39.43937,-8.11078 58.67931,-10.50162 1.79251,-0.22272 3.30877,-0.0306 3.94489,-2.66034 0.57977,-2.39675 1.1391,-4.45611 1.51858,-6.55673 0.23078,-1.27781 0.0834,-2.04953 -1.4244,-2.18652 -14.06868,-1.28001 -25.01938,0.29376 -37.48772,0.47383 -1.22621,0.0177 -2.0935,0.0843 -2.04378,-1.61276 0.22934,-8.02483 1.1607,-15.32688 1.5214,-21.76247 1.56532,-27.91255 4.97534,-74.413892 4.46439,-83.670242 -0.20675,-3.74581 -2.22601,-4.12292 -4.98677,-4.32453 -10.65838,-0.77901 -15.63466,-2.65106 -31.88157,-2.85158 -0.4367,-0.005 -0.92373,-0.0897 -1.36154,-0.0686 z m -165.767642,2.1837 c -5.243351,-0.0133 -10.520397,0.15958 -15.371287,0.35678 -11.116452,0.45184 -27.56881,0.17024 -31.550479,2.46917 -0.983728,0.56795 -1.467828,1.25764 -1.330182,1.80687 0.985688,3.93317 2.923443,7.45455 4.798364,10.97544 0.724212,1.36 2.292384,1.18876 4.23032,0.90197 14.651129,-2.16801 29.87887,-2.54887 55.019878,-2.94581 0.934174,-0.0166 2.461708,0.32767 2.757449,-1.09326 0.586841,-2.81915 1.336744,-5.63863 2.040965,-8.45778 0.587394,-2.35145 -0.392517,-2.51341 -1.518586,-2.70602 -5.649014,-0.9661 -12.334944,-1.29029 -19.076442,-1.30736 z m -88.405775,13.90126 c -0.39922,0.003 -0.8124,0.024 -1.23027,0.0457 -18.48913,0.95975 -67.183153,6.44625 -91.034753,10.358882 -3.57843,0.58701 -4.09905,2.48287 -3.89635,4.4644 l 10.16762,99.3983 c 0.0859,0.83999 0.14444,1.59039 1.04474,1.80405 8.01494,1.90232 16.58129,2.65305 25.08793,3.7051 0.94431,0.11655 1.13113,-0.45466 0.95054,-1.04476 -4.29225,-14.02521 -8.55658,-28.22049 -13.41601,-42.07485 -0.3839,-1.09453 -0.96526,-1.97628 0.98765,-2.2322 l 10.0934,-1.3216 c 1.88365,-0.24692 2.17269,-0.11368 2.94011,1.20743 5.064523,8.71855 19.348133,37.91978 29.897713,57.25208 0.34412,0.63065 0.97002,0.65794 1.70983,0.56801 l 41.432627,-5.03527 c -10.780127,-15.77529 -41.924957,-39.83768 -55.268237,-54.34909 -0.69868,-0.75984 -1.96143,-2.16956 -1.03904,-2.19795 l 1.33304,-0.0371 49.27386,-0.90484 c 0.67184,-0.0111 1.22082,0.0982 1.99527,-0.57088 3.14653,-2.71862 6.417532,-5.46441 9.025834,-8.93166 1.355845,-1.80234 0.951375,-3.97869 0.191249,-6.65378 -4.854425,-17.08409 -9.590808,-33.86995 -16.201973,-51.029322 -0.81386,-2.11244 -2.31483,-2.43525 -4.04478,-2.42061 z m 217.713227,3.1799 c -23.67214,0.34745 -43.79759,3.13445 -65.41871,4.76693 -4.86934,0.367882 -7.23653,0.935502 -7.3274,4.321662 -0.6502,24.23307 -0.59772,47.71641 -1.090441,72.44363 -0.02762,1.27952 0.0042,2.62963 0.473831,4.08757 1.12772,3.51558 1.90928,6.86876 2.13801,10.35601 0.34413,5.2487 -1.5246,7.07491 -3.893513,9.12289 -1.444788,1.24913 -0.991566,2.71944 -0.713612,4.37303 0.582036,3.46305 0.496584,6.46559 0.61656,9.40548 0.0707,1.72551 0.156874,1.81566 1.355911,2.16371 7.200134,2.08957 25.148794,-3.84811 85.548414,-5.58334 4.88254,-0.1403 8.795,0.23144 11.30659,-4.37021 l 13.01922,-23.85194 c 1.53914,-2.81986 0.14583,-4.55791 -1.47577,-5.74888 -9.27607,-6.81276 -19.73858,-10.03199 -28.64742,-15.72812 -1.85156,-1.18385 -1.87017,-2.55832 0.31966,-4.09331 4.05956,-2.84588 7.16964,-5.11227 15.73955,-9.49685 4.71197,-2.41072 6.10804,-4.70722 7.64143,-9.21707 1.485,-4.36767 2.39431,-9.20542 3.85639,-14.2524 0.46621,-1.61 0.25354,-3.33435 -2.5091,-5.766 -9.59755,-8.44922 -17.67949,-14.33443 -26.7578,-21.508442 -1.05034,-0.83005 -2.00556,-1.45628 -4.1818,-1.42435 z m 291.66689,3.43107 c -1.08735,0.0403 -2.17508,0.34501 -4.68418,2.029532 -9.8401,6.60711 -18.00827,12.58721 -24.17739,18.85091 -5.38587,5.46839 -11.18899,10.80697 -15.96504,16.80713 -1.64143,2.06217 -2.19706,1.33089 -3.28552,0.31109 -6.03694,-5.65487 -10.12395,-12.37747 -14.13247,-19.09351 -0.99334,-1.66424 -2.21806,-1.17225 -3.54238,-0.86209 -13.37484,3.26862 -26.18217,8.95989 -37.63045,12.16575 -2.08653,0.58431 -1.88011,1.34227 -0.47669,2.46911 10.30082,8.27125 20.61237,16.52233 31.73883,23.75776 4.46484,2.90349 2.11692,4.85409 0.98477,6.32838 -9.09776,11.84703 -18.27423,22.42101 -27.97093,33.10899 -1.69109,1.86399 -3.4457,2.37018 1.23599,4.17893 14.05802,5.43121 27.7676,8.34012 41.7152,11.68905 1.08718,0.26128 2.30887,1.06465 3.34833,-1.33017 3.88152,-8.94259 8.07089,-14.03255 12.43116,-20.50648 1.20517,-1.78941 2.82843,-3.74277 5.31792,-2.01528 9.25767,6.42405 18.25126,12.63405 27.46286,20.38093 6.33826,5.33046 12.91908,8.7417 18.43983,14.0183 1.82018,1.7397 2.82335,3.63269 4.9354,1.90105 11.87631,-9.73708 19.24238,-15.48425 37.82174,-27.46286 1.35884,-0.87606 2.61035,-2.00588 0.57088,-3.23121 l -6.76509,-4.06481 c -0.49216,-0.29552 -24.96325,-11.58333 -36.20041,-17.43507 -2.80451,-1.46047 -8.63476,-3.8707 -8.63476,-3.8707 -6.33141,-3.009 -11.99026,-5.44701 -17.38943,-8.16949 -1.2107,-0.61049 -2.52706,-1.09718 0,-3.51956 4.50074,-4.31426 7.38606,-8.30792 19.60451,-19.06214 10.21283,-8.98894 19.78475,-15.44541 32.5638,-25.31627 0.7346,-0.56746 1.93165,-1.6716 -1.04476,-2.46911 -12.0924,-3.24017 -25.1051,-9.492872 -35.13278,-9.582472 -0.41472,-0.004 -0.77653,-0.0192 -1.13894,-0.006 z m -144.41907,0.21405 c -9.44641,0.0196 -17.50101,0.19565 -26.94334,0.81928 -13.25283,0.875342 -18.27401,-0.76101 -22.80718,11.831732 -1.36292,3.78619 -2.99889,6.54822 -4.37021,10.21615 -0.60955,1.63038 -0.87491,3.90252 -0.76217,5.79743 1.12325,18.88024 3.62308,37.53732 6.46255,56.15883 0.26404,1.73009 0.88496,2.99453 5.27506,2.61472 3.51376,-0.30381 7.39529,-0.42483 10.82415,-0.37678 1.28863,0.0166 4.59265,-0.87175 2.78313,3.81072 l -5.00677,12.95929 c -0.75377,1.95043 -1.66667,2.97453 -3.56524,3.08854 -0.45957,0.0276 -0.90843,0.12649 -0.42814,0.90197 l 2.47198,3.99057 c 0.81309,1.31365 1.71004,1.99153 3.21984,1.82974 29.75421,-3.18852 49.61613,-3.67671 65.67562,-3.3512 0.74714,0.0166 1.40424,-0.1751 2.08946,-0.75929 l 5.94017,-5.06096 c 1.0104,-0.86087 0.48388,-1.417 -1.56996,-1.61564 -2.18204,-0.211 -5.70038,-1.11607 -5.70038,-1.11607 -0.91125,-0.21818 -1.74638,-0.0497 -0.37965,-2.08946 3.25558,-4.86442 5.2581,-7.70329 13.77852,-15.17155 1.44341,-1.26515 1.60188,-2.25915 1.70982,-3.3597 1.00769,-10.27288 2.61582,-20.68998 2.75745,-28.98426 0.0331,-2.08918 -0.50045,-3.74448 -1.99529,-4.84404 -6.13333,-4.51057 -11.17446,-9.62693 -17.59779,-14.89746 -1.37939,-1.13187 -1.74268,-2.86643 1.06183,-4.11043 3.16079,-1.40203 8.28604,-3.10539 12.44834,-4.65568 1.12182,-0.41759 2.47933,-1.27096 1.42441,-3.61087 -8.65956,-19.207132 -10.03845,-19.832912 -30.40866,-19.955602 -4.44484,-0.0276 -8.47397,-0.0495 -12.24568,-0.06 -1.41441,-0.003 -2.79236,-0.003 -4.14187,0 z M 38.22547,112.27326 c -13.406405,0.0497 -26.72996,0.73741 -39.22328,2.07234 -6.081517,0.64981 -11.432012,2.0213 -12.813714,7.57005 l -4.233175,16.99836 c -0.287179,1.15325 -0.206478,2.24689 0.605147,3.54525 1.982795,3.17184 1.661302,5.00323 1.661302,6.79364 0,2.4168 -0.01934,3.49222 -4.181799,6.60523 -3.567748,2.66807 -3.770033,5.0978 -4.036222,8.17236 -0.488574,5.64327 -0.327441,11.38415 -0.185536,17.22959 0.106884,4.4039 1.074278,6.18741 3.48245,8.80317 4.589158,4.98484 8.057656,8.72369 13.804213,13.55586 1.167116,0.9814 3.391127,1.73876 4.943943,1.74981 l 25.655974,0.18836 c 13.569731,0.10053 39.191635,-2.31224 52.930436,-3.61087 7.179034,-0.67859 16.630146,1.06542 16.630146,-14.15816 0,-17.76075 -10.207091,-45.31005 -19.193491,-68.03917 -1.922039,-4.86139 -3.207909,-6.43554 -11.786105,-6.8907 -7.943464,-0.42146 -16.016459,-0.61633 -24.060289,-0.58512 z m 93.76359,2.80594 c 0.15522,0.001 0.3143,0.004 0.4767,0.0114 10.927,0.51205 22.18592,2.11753 33.63994,5.18088 2.39724,0.64119 2.71044,2.4817 2.51766,4.08475 -0.60728,5.04361 -1.29189,10.05623 -2.61471,15.20574 -0.30933,1.20428 -0.90998,2.26959 -3.23128,2.75457 -10.04651,2.09996 -20.71108,5.23308 -29.50376,5.79744 -1.31774,0.0845 -1.61531,-0.80757 -1.75837,-1.4729 -2.05925,-9.59308 -2.85334,-19.11357 -3.27978,-29.41246 -0.0619,-1.49544 1.42446,-2.17111 3.7536,-2.1494 z m -244.69369,3.05424 c 11.38742,0.0457 22.142193,1.7212 33.117563,2.84876 1.6518,0.16969 3.33578,1.04896 3.37113,2.56616 0.13263,5.71 0.3432,11.31637 -0.0457,16.86711 -0.0993,1.41651 -1.51432,1.72706 -3.04286,1.90105 -10.15931,1.1559 -20.40746,2.7384 -31.784523,5.27506 -1.12708,0.25128 -1.91502,-0.49476 -1.99528,-1.18744 -1.07437,-9.27573 -2.21316,-17.95192 -2.07805,-26.80061 0.0233,-1.52637 1.53681,-1.47379 2.45769,-1.47009 z m 443.00796,0.99339 c 1.21097,-0.0166 2.14923,0.75874 2.87731,3.19128 5.82528,19.46272 11.04979,40.07233 12.16288,55.705 0.12428,1.7455 0.0387,2.47607 -1.9496,2.8202 -11.11348,1.92187 -21.72745,3.25099 -34.47054,7.05624 -1.12199,0.33474 -1.57129,0.42146 -2.62041,-1.4101 -7.93457,-13.85099 -13.63661,-28.23474 -17.60354,-38.97493 -1.35055,-3.65582 -2.21082,-6.95372 0.93915,-9.00302 11.62282,-7.56167 23.70246,-12.38262 38.84075,-18.94796 0.66827,-0.2552 1.27361,-0.42842 1.824,-0.43671 z M 6.432377,140.02439 c 0.397819,-0.006 0.807592,0.01 1.227424,0.0428 12.150351,0.97472 18.94627,1.19053 35.846416,4.55858 1.761409,0.35131 2.721931,0.73769 3.29408,2.14945 3.240775,7.99671 6.473597,15.98536 7.926837,24.45993 0.3607,2.10299 -1.321167,3.34672 -3.345451,3.93345 -17.84719,5.17303 -27.092311,8.593 -38.649491,12.99928 -1.70067,0.64838 -3.378477,0.63015 -4.233181,-0.40251 -6.54197,-7.9027 -6.765803,-27.54162 -6.922086,-40.85316 -0.06518,-5.55081 2.070655,-6.83463 4.855452,-6.88783 z m 152.985293,24.22302 c 1.59691,-0.0166 1.78754,0.35186 1.88111,1.9496 0.6186,10.56012 -0.86723,18.91134 -2.43486,27.1089 -0.64634,3.37992 -2.0903,3.34186 -3.41108,3.4625 -6.7964,0.6207 -13.34241,0.40875 -23.04701,1.9496 -3.06358,0.48664 -3.05988,-1.06895 -3.37683,-2.42061 -2.04687,-8.72911 -3.24602,-17.34464 -3.47675,-26.06988 -0.0331,-1.20871 -0.0967,-2.88378 2.08091,-3.22553 10.48261,-1.64508 21.03725,-2.63261 31.78451,-2.75458 z" /><path
       id="path16066-3-0-4"
       style="color:#000000;fill:#ff958f;fill-opacity:1;stroke-width:3.31424;stroke-linecap:round;stroke-linejoin:round"
       d="m 201.76355,66.725395 c -1.63746,0.0563 -2.64966,0.438961 -3.33416,0.938961 -0.68455,0.499898 -1.40492,1.109012 -1.4242,2.08411 -0.0497,2.645374 -0.0496,5.460348 -0.0109,8.334892 -0.0276,-2.508596 -0.0333,-4.991573 0.0109,-7.313249 0.0166,-0.975158 0.73965,-1.583704 1.4242,-2.083594 0.6845,-0.499898 1.6967,-0.88262 3.33416,-0.93896 l -0.003,0.01085 c 0.43638,-0.0166 0.91299,-0.004 1.43609,0.03307 17.02107,1.206156 33.11928,3.126392 48.98564,5.123718 2.27075,0.28557 3.76675,0.797898 4.7041,1.390096 0.93749,0.592148 1.37552,1.215666 1.68104,2.137854 0.23973,0.722938 0.30227,1.71104 0.30282,2.828768 0.0641,-1.595918 0.0109,-2.909393 -0.30282,-3.850411 -0.30546,-0.922188 -0.74355,-1.545716 -1.68104,-2.137854 -0.93735,-0.5922 -2.43335,-1.104516 -4.7041,-1.390096 -15.86636,-1.997266 -31.96457,-3.918077 -48.98564,-5.124235 -0.5231,-0.0387 -0.99971,-0.04967 -1.43609,-0.03307 z m -142.612483,5.68234 c -0.393933,-2.23e-4 -0.793152,-2e-6 -1.198376,10e-4 -8.336296,0.0221 -16.569218,0.391332 -25.039299,0.485242 -14.829477,0.163498 -28.4295487,1.008358 -42.0578975,2.934704 -2.5484415,0.36015 -3.0822325,0.858321 -3.4855755,1.395781 -0.32811,0.436928 -0.417695,1.005004 -0.316776,1.829862 0.05192,-0.31044 0.14659,-0.581471 0.316776,-0.808219 0.403343,-0.53746 0.937134,-1.035631 3.4855755,-1.395781 C 4.4838433,74.924012 18.083915,74.07967 32.913392,73.91617 c 8.470081,-0.0939 16.703003,-0.463658 25.039299,-0.485758 6.483581,-0.0166 11.41647,0.115264 18.174084,0.813904 1.331881,0.13754 2.409862,0.357059 2.911967,0.744657 0.350758,0.27122 0.646302,0.677929 0.730705,1.621607 0.08286,-1.708388 -0.276654,-2.29255 -0.730705,-2.64325 -0.502105,-0.38776 -1.580086,-0.607634 -2.911967,-0.745174 -6.335263,-0.65488 -11.066713,-0.811078 -16.975708,-0.814421 z m -93.803059,12.782166 c -0.94944,-0.0018 -2.169619,0.09232 -3.750676,0.298173 -38.219074,5.09586 -84.187482,10.480309 -111.039222,13.018843 -1.01016,0.0956 -1.74105,0.266245 -2.25464,0.850595 -0.45488,0.517578 -1.18306,1.344308 -1.06763,3.965128 0.0895,-1.82839 0.67798,-2.49718 1.06763,-2.94038 0.5136,-0.58443 1.24448,-0.755039 2.25464,-0.850599 26.85174,-2.538534 72.820148,-7.922995 111.039222,-13.018843 3.614372,-0.47118 5.341973,-0.351457 6.262667,0.122473 0.920722,0.472828 1.248729,1.151451 2.314587,4.047815 3.039374,9.056032 6.146109,18.089024 9.026323,27.197304 0.848974,-2.03361 1.469011,-5.83784 6.313826,-6.6337 8.752171,-1.43777 22.9811332,-4.51291 43.984396,-4.29638 12.716222,0.13147 25.613682,0.22083 37.179642,0.92759 8.236813,0.50322 12.276978,1.22561 14.617713,2.92592 2.340732,1.70037 3.417845,4.74059 5.543331,10.93835 l 0.253966,0.74055 c 0.45207,1.3182 2.141391,0.80345 3.061682,0.66918 -3.100228,0.14509 -2.988749,-1.43217 -3.315648,-2.43137 -2.037331,-6.22732 -3.202598,-9.23798 -5.543331,-10.93835 -2.340734,-1.70032 -6.3809,-2.4227 -14.617713,-2.92592 -11.565961,-0.70687 -24.463421,-0.79612 -37.179642,-0.92759 -21.0032628,-0.21653 -35.232224,2.85808 -43.984396,4.29586 -4.844814,0.79586 -5.465369,4.60003 -6.314343,6.6337 -2.880214,-9.10834 -5.986432,-18.141272 -9.025806,-27.197304 -1.065859,-2.896424 -1.393865,-3.574987 -2.314587,-4.047815 -0.460254,-0.236922 -1.122352,-0.385541 -2.120801,-0.416512 h -5.17e-4 c -0.124842,-0.0041 -0.255039,-0.0065 -0.390673,-0.0067 z m 343.688582,1.676383 -0.003,5.17e-4 c -4.03745,-0.0111 -7.97969,0.06493 -11.84889,0.276469 -4.51807,0.24746 -7.4933,0.714091 -10.87531,1.196309 -4.67595,0.66655 -8.94967,0.0949 -12.67674,1.521355 -3.72702,1.426226 -7.37062,4.732294 -10.73578,14.066846 -1.70572,4.73139 -4.02387,8.97771 -3.90467,15.38252 0.003,0.16682 0.0109,0.33547 0.0165,0.50229 0.0166,-6.10841 2.23299,-10.26501 3.89072,-14.86317 3.36516,-9.334546 7.00824,-12.640617 10.73526,-14.066843 3.72709,-1.426448 8.0008,-0.854815 12.67675,-1.521355 3.38201,-0.482228 6.35774,-0.948849 10.87582,-1.196309 15.47681,-0.846458 32.11933,0.522932 51.37464,0.539502 6.29865,0.005 9.12043,1.413906 11.55744,3.011702 2.43689,1.597848 3.74106,3.74609 5.00693,6.299874 l 7.53029,15.179949 c 0.42533,0.85795 0.82011,1.52372 1.34978,2.08101 0.52972,0.55756 1.2938,0.99671 2.05828,1.07901 1.52897,0.16461 3.35857,-0.79063 4.58163,-1.29605 8.65452,-3.57787 16.44925,-4.49347 24.64242,-5.88026 2.49253,-0.42201 2.36429,0.05 3.03703,0.78807 0.67284,0.73521 1.13565,2.11397 1.72702,3.6251 0,0 2.40226,6.37798 4.03076,9.26817 0.97648,1.7331 3.22255,4.73873 3.22255,4.73873 l 4.14186,-4.81005 c 8.36231,-9.71076 14.25443,-15.79914 29.38942,-27.365768 2.48966,-1.902758 4.23284,-3.90477 6.46266,-5.029668 2.2297,-1.125188 5.04768,-1.623982 10.18491,-0.270784 18.74282,4.93683 37.53998,9.33979 56.12164,14.90865 2.07354,0.62142 3.83628,0.88591 4.53564,1.74408 0.22923,-0.27508 0.31436,-0.54166 0.15141,-0.83044 -0.57595,-1.022 -2.46099,-1.26812 -4.68705,-1.93528 -18.58165,-5.568856 -37.37881,-9.97234 -56.12164,-14.90917 -5.13723,-1.353258 -7.95521,-0.853947 -10.18491,0.271301 -2.22982,1.124898 -3.973,3.126911 -6.46266,5.029667 -15.135,11.566622 -21.02711,17.655012 -29.38942,27.365772 l -4.14186,4.80953 c 0,0 -2.24606,-3.0051 -3.22255,-4.73822 -1.62849,-2.89017 -4.03076,-9.26868 -4.03076,-9.26868 -0.59137,-1.51118 -1.05417,-2.88989 -1.72702,-3.6251 -0.67273,-0.73786 -0.5445,-1.20951 -3.03703,-0.78755 -8.19317,1.38679 -15.98791,2.30237 -24.64242,5.88026 -1.22307,0.50543 -3.05266,1.46013 -4.58163,1.29553 -0.76449,-0.0823 -1.5285,-0.52144 -2.05828,-1.07901 -0.52972,-0.55729 -0.92445,-1.22254 -1.34978,-2.08049 l -7.53029,-15.180468 c -1.26588,-2.553776 -2.56951,-4.702018 -5.00642,-6.299874 -2.437,-1.597788 -5.2593,-3.006156 -11.55795,-3.011186 -14.44125,-0.011 -27.41285,-0.787587 -39.52523,-0.816488 z m -133.2451,1.544609 c -0.28632,-0.002 -0.57946,8.46e-4 -0.87953,0.0083 l -5.2e-4,5.17e-4 c -47.98012,1.187218 -56.53365,2.996003 -69.83449,4.292761 -7.956436,0.775698 -11.249537,1.581184 -12.422501,2.232422 -0.588333,0.3259 -0.535109,0.380379 -0.573609,0.507979 -0.03867,0.1276 -0.123241,0.534595 -0.151412,1.292945 -0.136435,3.681893 -0.189438,7.358593 -0.176733,11.029813 6.08e-4,-3.33145 0.05521,-6.66735 0.176733,-10.007654 0.02762,-0.758408 0.112746,-1.165344 0.151412,-1.292944 0.03867,-0.1276 -0.01671,-0.182596 0.573609,-0.508496 1.172964,-0.651248 4.466065,-1.456207 12.422501,-2.231905 13.30084,-1.296748 21.85437,-3.10606 69.83449,-4.293278 4.80117,-0.11876 7.79948,0.987679 10.37921,2.568835 2.57958,1.581168 4.58762,3.853028 7.09053,6.148462 l 5.76037,5.28391 c -0.0276,-0.33087 -0.0499,-0.75127 -0.077,-1.09347 l -5.68337,-5.212083 c -2.50291,-2.295434 -4.51095,-4.567294 -7.09053,-6.148462 -2.4185,-1.482343 -5.20433,-2.548072 -9.49916,-2.57762 z m -38.57025,37.867457 c -0.0442,0.40876 -0.0443,0.8281 0.0165,1.25574 0.48719,3.47403 0.55363,6.64832 0.79944,9.9136 0.0613,0.81486 0.24858,1.70625 0.90485,2.49184 0.65661,0.78531 1.89356,1.24054 3.03134,1.06764 5.49413,-0.83524 11.00591,-1.88305 15.24558,-3.28818 0.59148,-0.19554 1.24256,-0.54181 1.73581,-1.156 0.49327,-0.61396 0.71778,-1.42939 0.72192,-2.22105 0.0111,-1.5725 0.26184,-3.262 0.37673,-5.27461 0.011,-0.20493 -0.0166,-0.40568 -0.0331,-0.60824 -0.12318,1.82096 -0.33216,3.40476 -0.3421,4.86121 -0.004,0.79166 -0.22888,1.60657 -0.72243,2.22053 -0.49327,0.61413 -1.14382,0.96098 -1.7353,1.15652 -4.23967,1.40512 -9.75199,2.45293 -15.24609,3.28817 -1.13778,0.17289 -2.37473,-0.28232 -3.03134,-1.06763 -0.65655,-0.78559 -0.84355,-1.67698 -0.90486,-2.49184 -0.24581,-3.2653 -0.31223,-6.43957 -0.79943,-9.91361 -0.0111,-0.079 -0.011,-0.15566 -0.0165,-0.23409 z m -241.89376,3.40651 c 0,0.003 -10e-6,0.007 0,0.01 4e-5,-0.003 4.9e-4,-0.005 5.1e-4,-0.008 z m 0,0.01 h -5.2e-4 c 1e-5,0.004 -1e-5,0.008 0,0.0114 1e-4,-0.004 4.5e-4,-0.007 5.2e-4,-0.0114 z m -5.2e-4,0.0114 c -6.3e-4,0.0245 -0.002,0.0475 -0.003,0.0713 -0.0453,2.68183 0.0916,5.36437 0.95033,7.88737 0.20233,0.5943 0.51495,1.38421 1.51877,1.13895 l 17.295073,-4.22765 c 0.857908,-0.2099 0.909694,-0.55672 0.904854,-1.33015 -0.0019,-0.3296 0.0041,-0.67939 0,-1.02319 0.005,0.77343 -0.047,1.12025 -0.904854,1.33015 l -17.295073,4.22765 c -1.00381,0.24526 -1.31644,-0.54465 -1.51877,-1.13895 -0.75705,-2.22432 -0.943,-4.57313 -0.94774,-6.93549 z m 402.809,17.04185 c 9e-5,0.001 4.3e-4,0.002 5.2e-4,0.003 10e-5,-0.001 -1e-4,-0.002 0,-0.003 z m 5.2e-4,0.003 h -5.2e-4 c 9e-5,10e-4 4.3e-4,0.002 5.2e-4,0.003 10e-5,-0.001 -1e-4,-0.002 0,-0.003 z m 0,0.003 c -0.12195,1.31703 0.24628,2.41363 0.49609,3.38171 2.5096,9.75225 4.91173,18.63515 10.67015,29.57235 0.4535,0.86159 1.11005,1.71744 2.15801,2.14664 1.04802,0.4303 2.22237,0.29942 3.3538,-0.12867 4.09906,-1.55161 7.04763,-2.57842 13.98158,-4.2416 0.93241,-0.22371 1.93903,-0.20844 2.87166,-1.27331 0.46565,-0.53249 0.67221,-1.23309 0.72192,-1.86655 0.0276,-0.32314 0.0222,-0.64982 -0.006,-0.99633 -0.0552,0.62678 -0.25713,1.31582 -0.71676,1.84124 -0.93262,1.06479 -1.93926,1.04908 -2.87166,1.27279 -6.93393,1.66318 -9.88201,2.68998 -13.98105,4.2416 -1.13143,0.42809 -2.30579,0.55904 -3.35381,0.12919 -1.04795,-0.4292 -1.7045,-1.28505 -2.158,-2.14664 -5.75843,-10.9372 -8.16056,-19.82011 -10.67015,-29.57236 -0.1824,-0.7058 -0.42312,-1.48194 -0.49558,-2.36006 z m -285.101978,6.19084 c -0.01381,0.23587 -0.03179,0.46955 -0.01964,0.71933 0.403399,8.52363 2.250968,15.30613 3.842143,22.78414 0.227633,1.06956 0.583595,2.0275 1.401465,2.75177 0.81787,0.72422 2.125398,0.8898 3.117122,0.56224 6.87542,-2.27106 13.48383,-5.52226 20.284034,-7.7897 0.680246,-0.22702 1.276362,-0.51031 1.758032,-1.03612 0.481668,-0.52584 0.70164,-1.32037 0.679545,-1.89859 -0.01105,-0.21432 -0.03872,-0.38764 -0.07131,-0.56224 -0.07181,0.49824 -0.24107,1.03766 -0.608231,1.43868 -0.48167,0.52584 -1.077786,0.80909 -1.758032,1.03611 -6.800204,2.26744 -13.408613,5.51914 -20.284034,7.79022 -0.991724,0.32756 -2.299252,0.16145 -3.117122,-0.56276 -0.81787,-0.72427 -1.173832,-1.68221 -1.401465,-2.75177 -1.571891,-7.38737 -3.389143,-14.10237 -3.821989,-22.48131 z m 449.952898,2.54868 c -0.26182,0.22482 -0.54482,0.45534 -0.8046,0.67955 24.16711,10.68772 64.7459,24.88591 81.12114,33.78811 1.36166,0.78608 2.07706,1.45756 2.32596,2.07843 0.35517,-0.91639 -0.19015,-1.86712 -2.32596,-3.10007 -16.20627,-8.8104 -56.06787,-22.79777 -80.31654,-33.44602 z M -70.69527,167.6593 c 15.269208,12.39809 26.843659,21.18846 39.063248,31.72674 1.121996,0.96762 4.771096,2.17403 1.749764,-1.67742 -0.109134,0.23717 0.326912,2.06723 -0.922424,1.07384 C -43.12734,188.9843 -54.668515,179.6349 -69.36822,167.70787 Z m -37.72793,2.66082 -0.35088,0.0708 18.759575,50.94108 c 0.12329,0.33474 0.204473,0.62712 0.259933,0.89348 0.144,-0.41539 0.06156,-1.04542 -0.259933,-1.91823 z m 76.020683,2.26342 -0.126091,12.35119 c -2.65e-4,0.0276 0.0088,0.0552 0.0093,0.0801 l 0.125574,-12.30003 c 4.75e-4,-0.0497 -0.0088,-0.0843 -0.0083,-0.13126 z m 185.085347,4.59869 c -1e-5,3.6e-4 1e-5,6.7e-4 0,0.001 l 0.001,-0.001 z m 0,0.001 -0.001,0.001 c -6e-5,0.0345 -0.003,0.0633 -0.004,0.0977 9.2e-4,-0.0345 0.004,-0.0643 0.005,-0.0987 z m -0.004,0.0987 c -0.0602,2.26066 -0.26967,4.28907 -0.40566,6.18257 -0.0646,0.89921 -0.22717,1.72656 -0.79943,2.46083 -0.5722,0.73432 -1.50895,1.09302 -2.26653,1.16427 -4.35784,0.40986 -6.77243,0.99655 -8.97413,1.40199 -1.17871,0.21708 -2.46037,0.0272 -3.31401,-0.75396 -0.85342,-0.78056 -1.10773,-1.79318 -1.2392,-2.73989 -0.33805,-2.43536 -0.49729,-4.87624 -0.51883,-7.37888 -0.006,0.12595 -0.0222,0.25134 -0.0222,0.37673 v 0.0109 c -0.005,2.72981 0.17272,5.37198 0.5395,8.01553 0.13146,0.94672 0.38543,1.95984 1.23868,2.7404 0.85364,0.78122 2.1353,0.97052 3.31401,0.75344 2.20171,-0.40545 4.61681,-0.9916 8.97465,-1.40146 0.75758,-0.0713 1.69433,-0.43047 2.26653,-1.16479 0.57226,-0.73427 0.7348,-1.5611 0.79943,-2.46031 0.15597,-2.17005 0.39678,-4.53271 0.40721,-7.20732 z m 111.10123,5.7087 -12.66538,0.23151 c -0.0166,0.34026 -0.0388,0.68217 -0.0553,1.02216 l 12.87105,-0.23409 c -0.0552,-0.34192 -0.0979,-0.6778 -0.15141,-1.01906 z m -176.791932,25.8248 c -0.02762,0.39826 -0.04934,0.75134 -0.09353,1.35857 -0.163502,2.19811 -0.976325,4.89047 -0.848011,7.0249 0.107713,-1.93094 0.709531,-4.14053 0.848011,-6.00015 0.08948,-1.20412 0.172531,-1.93601 0.09353,-2.38332 z m 119.533792,2.25464 -0.11162,5.04104 c -0.002,0.0762 0.0165,0.12763 0.0165,0.19999 l 0.11731,-5.23483 z m -214.555899,6.16035 c 0.1003314,0.4328 0.1134157,0.813 -0.1090372,1.05213 2.9126283,2.12493 6.4377452,4.33742 8.0356852,5.76968 0.63935972,0.57309 1.09814962,1.15812 1.3218831,1.66139 0.4337222,-0.53359 -0.1454295,-1.63166 -1.3218831,-2.68614 -1.4322013,-1.2837 -5.2199244,-3.88329 -7.926648,-5.79706 z" /></g></svg>
