<svg width="64" height="704" viewBox="0 0 64 704" fill="none" xmlns="http://www.w3.org/2000/svg">
<g opacity="0.1">
<path d="M60.6667 2H3.33333C2.59695 2 2 2.59695 2 3.33333V60.6667C2 61.403 2.59695 62 3.33333 62H60.6667C61.403 62 62 61.403 62 60.6667V3.33333C62 2.59695 61.403 2 60.6667 2Z" fill="url(#paint0_linear_0_1)"/>
<path d="M60.6667 66H3.33333C2.59695 66 2 66.597 2 67.3333V124.667C2 125.403 2.59695 126 3.33333 126H60.6667C61.403 126 62 125.403 62 124.667V67.3333C62 66.597 61.403 66 60.6667 66Z" fill="white"/>
<path fill-rule="evenodd" clip-rule="evenodd" d="M52.7609 85.7673C52.2626 83.8907 50.7946 82.413 48.9296 81.9113C45.5506 81 31.9999 81 31.9999 81C31.9999 81 18.4492 81 15.0699 81.9113C13.2053 82.413 11.7369 83.8907 11.2386 85.7673C10.3333 89.1687 10.3333 96.265 10.3333 96.265C10.3333 96.265 10.3333 103.361 11.2386 106.763C11.7369 108.64 13.2053 110.117 15.0699 110.619C18.4492 111.53 31.9999 111.53 31.9999 111.53C31.9999 111.53 45.5506 111.53 48.9296 110.619C50.7946 110.117 52.2626 108.64 52.7609 106.763C53.6666 103.361 53.6666 96.265 53.6666 96.265C53.6666 96.265 53.6666 89.1687 52.7609 85.7673Z" fill="#FF0000"/>
<path fill-rule="evenodd" clip-rule="evenodd" d="M27.5681 102.709L38.8937 96.2657L27.5681 89.8223V102.709Z" fill="white"/>
<path d="M60.6667 130H3.33333C2.59695 130 2 130.597 2 131.333V188.667C2 189.403 2.59695 190 3.33333 190H60.6667C61.403 190 62 189.403 62 188.667V131.333C62 130.597 61.403 130 60.6667 130Z" fill="black"/>
<path d="M60.6667 194H3.33333C2.59695 194 2 194.597 2 195.333V252.667C2 253.403 2.59695 254 3.33333 254H60.6667C61.403 254 62 253.403 62 252.667V195.333C62 194.597 61.403 194 60.6667 194Z" fill="#9146FF"/>
<path d="M61.9988 287.999C61.9988 271.431 48.5675 258 31.9994 258C15.4313 258 2 271.431 2 287.999C2 302.068 11.6862 313.873 24.7527 317.116V297.167H18.5669V287.999H24.7527V284.049C24.7527 273.838 29.3739 269.106 39.3985 269.106C41.2992 269.106 44.5787 269.479 45.9203 269.851V278.161C45.2123 278.086 43.9824 278.049 42.4548 278.049C37.5361 278.049 35.6353 279.913 35.6353 284.757V287.999H45.4343L43.7508 297.167H35.6353V317.779C50.4898 315.985 62 303.337 62 287.999H61.9988Z" fill="#0866FF"/>
<path d="M43.7496 297.167L45.4331 287.999H35.6341V284.757C35.6341 279.913 37.5349 278.049 42.4536 278.049C43.9812 278.049 45.2111 278.086 45.9191 278.161V269.851C44.5776 269.478 41.298 269.106 39.3973 269.106C29.3727 269.106 24.7516 273.838 24.7516 284.049V287.999H18.5657V297.167H24.7516V317.116C27.0723 317.692 29.4999 317.999 31.9982 317.999C33.2282 317.999 34.4414 317.923 35.6329 317.779V297.167H43.7484H43.7496Z" fill="white"/>
<path d="M47.7143 224.119L41.524 230.31H35.3333L29.9167 235.726V230.31H22.9524V207.095H47.7143V224.119Z" fill="white"/>
<path d="M21.4048 204L13.6667 211.738V239.595H22.9524V247.333L30.6906 239.595H36.8811L50.8098 225.667V204H21.4048ZM47.7144 224.119L41.5238 230.31H35.3334L29.9167 235.726V230.31H22.9524V207.095H47.7144V224.119Z" fill="black"/>
<path d="M43.0713 212.512H39.9763V221.798H43.0713V212.512Z" fill="black"/>
<path d="M34.5596 212.512H31.4644V221.798H34.5596V212.512Z" fill="black"/>
<path d="M60.6667 322H3.33333C2.59695 322 2 322.597 2 323.333V380.667C2 381.403 2.59695 382 3.33333 382H60.6667C61.403 382 62 381.403 62 380.667V323.333C62 322.597 61.403 322 60.6667 322Z" fill="#24292E"/>
<path fill-rule="evenodd" clip-rule="evenodd" d="M31.9986 330.333C20.0347 330.333 10.3333 340.033 10.3333 352C10.3333 361.573 16.5407 369.693 25.1515 372.56C26.2355 372.757 26.6305 372.087 26.6305 371.513C26.6305 371 26.6119 369.637 26.6012 367.83C20.5747 369.137 19.3032 364.923 19.3032 364.923C18.3176 362.42 16.8971 361.757 16.8971 361.757C14.93 360.41 17.0461 360.437 17.0461 360.437C19.2207 360.593 20.3646 362.67 20.3646 362.67C22.2972 365.98 25.4348 365.027 26.6704 364.473C26.8672 363.07 27.4259 362.117 28.0457 361.577C23.2349 361.03 18.1766 359.17 18.1766 350.867C18.1766 348.502 19.0212 346.568 20.4072 345.053C20.1837 344.505 19.4402 342.303 20.6186 339.319C20.6186 339.319 22.4382 338.737 26.5773 341.54C28.305 341.059 30.1591 340.82 32.0013 340.81C33.8408 340.82 35.695 341.059 37.4253 341.54C41.5617 338.737 43.3773 339.319 43.3773 339.319C44.5597 342.303 43.8163 344.505 43.5927 345.053C44.9813 346.568 45.8207 348.502 45.8207 350.867C45.8207 359.19 40.7543 361.023 35.9277 361.557C36.7057 362.227 37.3987 363.55 37.3987 365.57C37.3987 368.467 37.372 370.803 37.372 371.513C37.372 372.093 37.7617 372.767 38.8617 372.557C47.4633 369.683 53.6667 361.57 53.6667 352C53.6667 340.033 43.965 330.333 31.9986 330.333Z" fill="white"/>
<path d="M60.6667 386H3.33333C2.59695 386 2 386.597 2 387.333V444.667C2 445.403 2.59695 446 3.33333 446H60.6667C61.403 446 62 445.403 62 444.667V387.333C62 386.597 61.403 386 60.6667 386Z" fill="white"/>
<path d="M31.8182 438.97C44.6044 438.97 54.9697 428.603 54.9697 415.817C54.9697 403.033 44.6044 392.667 31.8182 392.667C19.032 392.667 8.66675 403.033 8.66675 415.817C8.66675 428.603 19.032 438.97 31.8182 438.97Z" fill="#DB4437"/>
<path d="M31.8182 392.93C44.5514 392.93 54.9034 403.217 54.9697 415.95V415.817C54.9697 403.02 44.6177 392.667 31.8182 392.667C19.0187 392.667 8.66675 403.02 8.66675 415.817V415.95C8.73288 403.217 19.0849 392.93 31.8182 392.93Z" fill="white" fill-opacity="0.2"/>
<path d="M31.8182 438.703C19.0849 438.703 8.73288 428.42 8.66675 415.687V415.817C8.66675 428.617 19.0187 438.97 31.8182 438.97C44.6177 438.97 54.9697 428.617 54.9697 415.817V415.687C54.9034 428.42 44.5514 438.703 31.8182 438.703Z" fill="#3E2723" fill-opacity="0.2"/>
<path d="M45.5106 409.5H42.3686V414.627H39.2266L32.6118 408.013C30.7928 406.293 28.4115 405.267 25.5672 405.267C21.4661 405.267 17.8941 407.617 16.1743 411.057C15.4467 412.477 15.0498 414.067 15.0498 415.787C15.0498 417.503 15.4467 419.093 16.1743 420.513C16.7366 421.607 17.4642 422.597 18.3572 423.423L21.2676 426.337L34.2655 439.333L51.8606 435.76L55.5316 419.457L45.5106 409.5Z" fill="url(#paint1_linear_0_1)"/>
<path d="M49.711 413.7H45.5107V409.5H42.3353V413.7H38.135V416.877H42.3353V421.077H45.5107V416.877H49.711" fill="#EEEEEE"/>
<path opacity="0.4" d="M42.3353 409.5H45.4773V409.767H42.3353V409.5ZM38.135 413.7H42.3353V413.967H38.135V413.7ZM45.5107 413.7H49.711V413.967H45.5107V413.7Z" fill="white"/>
<path opacity="0.1" d="M42.3353 421.077H45.4773V421.34H42.3353V421.077ZM38.135 416.877H42.3353V417.14H38.135V416.877ZM45.5107 416.877H49.711V417.14H45.5107V416.877Z" fill="#3E2723"/>
<path d="M25.5011 417.803V413.9H35.357C35.4894 414.56 35.6217 415.19 35.6217 416.05C35.6217 422.07 31.5866 426.337 25.5342 426.337C19.7133 426.337 15.0168 421.607 15.0168 415.817C15.0168 410.03 19.7463 405.3 25.5342 405.3C28.3785 405.3 30.7598 406.327 32.5788 408.047L29.6022 410.957C28.8415 410.23 27.5186 409.403 25.5673 409.403C22.0945 409.403 19.2502 412.313 19.2502 415.85C19.2502 419.39 22.0945 422.3 25.5673 422.3C29.6022 422.3 31.0905 419.523 31.3551 417.87L25.5011 417.803Z" fill="#EEEEEE"/>
<path opacity="0.4" d="M25.5011 422.533C29.5361 422.533 31.0244 419.753 31.289 418.1H31.2228C30.859 419.787 29.3046 422.267 25.5011 422.267C22.0615 422.267 19.2502 419.457 19.1841 415.95C19.1841 415.983 19.1841 416.05 19.1841 416.083C19.1841 419.653 22.0284 422.533 25.5011 422.533ZM25.5011 414.163H35.3571C35.4894 414.793 35.5884 415.387 35.6217 416.15V416.017C35.6217 415.157 35.5224 414.527 35.3571 413.867H25.5011V414.163ZM25.5011 405.567C28.2793 405.567 30.5944 406.557 32.3804 408.177L32.5127 408.047C30.6937 406.327 28.3124 405.3 25.4681 405.3C19.6471 405.3 14.9507 410.03 14.9507 415.817C14.9507 415.85 14.9507 415.917 14.9507 415.95C15.0499 410.197 19.7463 405.567 25.5011 405.567Z" fill="white"/>
<path opacity="0.1" d="M25.501 409.37C22.0283 409.37 19.184 412.28 19.184 415.817C19.184 415.85 19.184 415.917 19.184 415.95C19.2501 412.443 22.0614 409.633 25.501 409.633C27.4854 409.633 28.8083 410.493 29.536 411.187L32.5126 408.277C32.4795 408.243 32.4133 408.177 32.3803 408.147L29.536 410.89C28.8083 410.23 27.4854 409.37 25.501 409.37ZM25.501 426.337C19.7462 426.337 15.0498 421.707 14.9836 415.95C14.9836 415.983 14.9836 416.05 14.9836 416.083C14.9836 421.903 19.7131 426.6 25.501 426.6C31.5865 426.6 35.5883 422.333 35.5883 416.313V416.183C35.5553 422.137 31.5534 426.337 25.501 426.337ZM25.501 417.803V418.067H31.2227C31.2558 417.967 31.2558 417.903 31.2888 417.803H25.501Z" fill="#3E2723"/>
<path d="M31.8182 438.97C44.6044 438.97 54.9697 428.603 54.9697 415.817C54.9697 403.033 44.6044 392.667 31.8182 392.667C19.032 392.667 8.66675 403.033 8.66675 415.817C8.66675 428.603 19.032 438.97 31.8182 438.97Z" fill="url(#paint2_radial_0_1)"/>
<path d="M60.6667 450H3.33333C2.59695 450 2 450.597 2 451.333V508.667C2 509.403 2.59695 510 3.33333 510H60.6667C61.403 510 62 509.403 62 508.667V451.333C62 450.597 61.403 450 60.6667 450Z" fill="#181818"/>
<mask id="mask0_0_1" style="mask-type:luminance" maskUnits="userSpaceOnUse" x="10" y="458" width="44" height="44">
<path d="M54 458H10V502H54V458Z" fill="white"/>
</mask>
<g mask="url(#mask0_0_1)">
<path d="M19.2982 458L10 492.702L44.7018 502L54 467.298L19.2982 458ZM35.5502 486.15L25.8533 483.55L28.4529 473.853L38.1537 476.453L35.5502 486.15Z" fill="white"/>
</g>
<path d="M60.6667 514H3.33333C2.59695 514 2 514.597 2 515.333V572.667C2 573.403 2.59695 574 3.33333 574H60.6667C61.403 574 62 573.403 62 572.667V515.333C62 514.597 61.403 514 60.6667 514Z" fill="#04D168"/>
<path d="M49.0666 558.623C51.8792 556.617 53.6666 553.643 53.6666 550.32C53.6666 544.297 47.8066 539.403 40.5846 539.403C33.3623 539.403 27.5024 544.297 27.5024 550.32C27.5024 556.34 33.3623 561.233 40.5846 561.233C42.1519 561.233 43.6462 560.997 45.0379 560.587C45.2869 560.513 45.5506 560.543 45.7706 560.677L48.6126 562.317C49.2422 562.683 49.6086 562.403 49.4182 561.7L48.8029 559.357C48.7442 559.063 48.8469 558.787 49.0666 558.623ZM36.2336 548.59C35.252 548.59 34.461 547.8 34.461 546.817C34.461 545.837 35.252 545.043 36.2336 545.043C37.2152 545.043 38.0062 545.837 38.0062 546.817C38.0062 547.783 37.2152 548.59 36.2336 548.59ZM44.9062 548.59C43.9246 548.59 43.1336 547.8 43.1336 546.817C43.1336 545.837 43.9246 545.043 44.9062 545.043C45.8876 545.043 46.6786 545.837 46.6786 546.817C46.6786 547.783 45.8876 548.59 44.9062 548.59Z" fill="white"/>
<path d="M26.0522 527.333C17.365 527.333 10.3333 533.193 10.3333 540.417C10.3333 544.387 12.4575 547.947 15.8122 550.347C16.1345 550.567 16.2663 550.963 16.1784 551.343L15.446 554.097C15.2262 554.933 15.651 555.257 16.3982 554.817L19.7676 552.853C20.0752 552.677 20.4268 552.633 20.7637 552.737C22.4191 553.233 24.2064 553.497 26.0669 553.497C26.3452 553.497 26.6382 553.497 26.9165 553.483C26.565 552.457 26.3892 551.373 26.3892 550.26C26.3892 543.683 32.835 538.35 40.7749 538.35C41.0533 538.35 41.3316 538.35 41.5953 538.363C40.3943 532.123 33.8897 527.333 26.0522 527.333ZM20.7784 538.307C19.6211 538.307 18.6835 537.367 18.6835 536.21C18.6835 535.053 19.6211 534.117 20.7784 534.117C21.9357 534.117 22.8733 535.053 22.8733 536.21C22.8586 537.367 21.9357 538.307 20.7784 538.307ZM31.2675 538.307C30.1101 538.307 29.1726 537.367 29.1726 536.21C29.1726 535.053 30.1101 534.117 31.2675 534.117C32.4248 534.117 33.3623 535.053 33.3623 536.21C33.3623 537.367 32.4248 538.307 31.2675 538.307Z" fill="white"/>
<path d="M43.071 142.332H48.9746L36.077 157.073L51.25 177.132H39.3697L30.0646 164.966L19.4174 177.132H13.5103L27.3055 161.365L12.75 142.332H24.9319L33.3429 153.452L43.071 142.332ZM40.999 173.599H44.2703L23.1544 145.68H19.6441L40.999 173.599Z" fill="white"/>
<path d="M62 642H2V702H62V642Z" fill="#F5C400"/>
<path d="M23.0623 664.34C23.0623 664.34 23.089 668.135 25.0378 672.06C27.0399 675.839 29.8004 678.266 32.0777 679.232C34.4308 678.132 36.7038 676.223 37.9443 674.166H31.4847C29.8132 672.781 28.498 670.483 28.1962 667.826H47.1464C46.212 672.097 44.2291 675.981 42.34 678.455C39.7181 681.884 36.1628 684.502 32.0916 686H32.0319C25.2351 683.292 21.5786 679.026 19.1658 674.214C17.6181 671.129 16 665.529 16 658H47.9999C48.005 660.12 47.8625 662.239 47.5731 664.34H23.0623Z" fill="#111820"/>
<g filter="url(#filter0_dd_0_1)">
<path d="M41.7547 46.4294C41.7547 46.4294 40.5108 44.9272 39.4857 43.6386C43.9894 42.386 45.6794 39.5978 45.6794 39.5978C44.2621 40.5189 42.958 41.1834 41.755 41.6386C40.0444 42.3434 38.3715 42.8218 36.7647 43.1162C33.4837 43.7211 30.448 43.5742 27.8632 43.0976C25.9141 42.7369 24.2083 42.1857 22.8238 41.6307C22.0371 41.332 21.1906 40.9441 20.3024 40.4575C20.1899 40.3968 20.0828 40.3389 19.984 40.2829C19.9321 40.2541 19.8827 40.2279 19.8332 40.1977C19.2216 39.8494 18.9207 39.5977 18.9207 39.5977C18.9207 39.5977 20.5618 42.3076 24.9229 43.5867C23.8894 44.8862 22.6133 46.4294 22.6133 46.4294C15.0389 46.1989 12.137 41.2368 12.137 41.2368C12.137 30.294 17.0733 21.4029 17.0733 21.4029C22.0131 17.717 26.7013 17.8268 26.7013 17.8268L27.0686 18.2632C20.8817 20.0231 18.076 22.7244 18.076 22.7244C18.076 22.7244 18.7825 22.2775 20.0812 21.7293C23.7631 20.1254 26.6718 19.6879 27.8721 19.5728C28.0643 19.5455 28.254 19.5163 28.4489 19.4915C30.5568 19.2271 32.9079 19.1529 35.3942 19.4298C38.6508 19.7943 42.1711 20.7697 45.7372 22.7025C45.7372 22.7025 43.0199 20.1699 37.1702 18.4099L37.6637 17.8268C37.6637 17.8268 42.3542 17.717 47.2913 21.4029C47.2913 21.4029 52.2303 30.294 52.2303 41.2368C52.2303 41.2368 49.3288 46.1989 41.7547 46.4294Z" fill="white"/>
<g filter="url(#filter1_i_0_1)">
<path d="M29.3178 34.2915C29.3178 36.3708 27.7471 38.0555 25.8091 38.0555C23.8683 38.0555 22.2976 36.3708 22.2976 34.2915C22.2976 32.2135 23.8683 30.5284 25.8091 30.5284C27.7471 30.5284 29.3178 32.2135 29.3178 34.2915Z" fill="url(#paint3_linear_0_1)"/>
</g>
<g filter="url(#filter2_i_0_1)">
<path d="M41.8176 34.2915C41.8176 36.3708 40.2469 38.0555 38.3062 38.0555C36.3681 38.0555 34.7974 36.3708 34.7974 34.2915C34.7974 32.2135 36.3681 30.5284 38.3062 30.5284C40.2469 30.5284 41.8176 32.2135 41.8176 34.2915Z" fill="url(#paint4_linear_0_1)"/>
</g>
</g>
</g>
<g clip-path="url(#clip0_0_1)">
<path d="M26.4469 101.956L39.6922 94.9944L26.4469 87.975V101.956Z" fill="white"/>
<path opacity="0.12" d="M26.4469 87.975L38.0652 95.85L39.6922 94.9944L26.4469 87.975Z" fill="#920000"/>
<path d="M55.4834 85.5444C55.4834 85.5444 55.0051 82.1222 53.5318 80.6056C51.6759 78.6222 49.5904 78.6222 48.6146 78.5056C41.7841 78 31.5096 78 31.5096 78H31.4904C31.4904 78 21.2159 78 14.3471 78.5056C13.3905 78.6222 11.305 78.6222 9.42991 80.6056C7.97579 82.1222 7.49746 85.5444 7.49746 85.5444C7.49746 85.5444 7 89.5889 7 93.6139V97.3861C7 101.411 7.49746 105.436 7.49746 105.436C7.49746 105.436 7.97579 108.858 9.44904 110.375C11.305 112.358 13.754 112.3 14.8446 112.494C18.7669 112.883 31.4904 113 31.4904 113C31.4904 113 41.7841 112.981 48.6337 112.475C49.5904 112.358 51.6759 112.358 53.551 110.375C55.0242 108.858 55.5025 105.436 55.5025 105.436C55.5025 105.436 56 101.411 56 97.3861V93.6139C55.9809 89.5889 55.4834 85.5444 55.4834 85.5444ZM26.4393 101.956V87.975L39.6794 94.9944L26.4393 101.956Z" fill="url(#paint5_linear_0_1)"/>
</g>
<path d="M39.4664 38.5889C39.4664 38.5889 38.4505 37.3518 37.6133 36.2906C41.2913 35.259 42.6715 32.9629 42.6715 32.9629C41.514 33.7214 40.449 34.2687 39.4666 34.6436C38.0696 35.2239 36.7034 35.618 35.3912 35.8604C32.7117 36.3586 30.2325 36.2376 28.1216 35.8451C26.5298 35.548 25.1368 35.0941 24.0061 34.6371C23.3637 34.391 22.6723 34.0716 21.9469 33.6709C21.855 33.6209 21.7676 33.5732 21.6869 33.5271C21.6445 33.5034 21.6042 33.4818 21.5637 33.4569C21.0643 33.1701 20.8186 32.9628 20.8186 32.9628C20.8186 32.9628 22.1588 35.1945 25.7203 36.2479C24.8763 37.3181 23.8342 38.5889 23.8342 38.5889C17.6484 38.3991 15.2786 34.3126 15.2786 34.3126C15.2786 25.3009 19.3099 17.9789 19.3099 17.9789C23.344 14.9434 27.1727 15.0339 27.1727 15.0339L27.4727 15.3932C22.42 16.8426 20.1287 19.0671 20.1287 19.0671C20.1287 19.0671 20.7057 18.6992 21.7663 18.2476C24.7732 16.9268 27.1486 16.5665 28.1289 16.4717C28.2858 16.4492 28.4408 16.4252 28.5999 16.4048C30.3213 16.187 32.2415 16.1259 34.272 16.354C36.9315 16.6541 39.8064 17.4574 42.7187 19.0491C42.7187 19.0491 40.4996 16.9634 35.7223 15.5141L36.1254 15.0339C36.1254 15.0339 39.956 14.9434 43.9879 17.9789C43.9879 17.9789 48.0214 25.3009 48.0214 34.3126C48.0214 34.3126 45.6518 38.3991 39.4664 38.5889Z" fill="white"/>
<path d="M29.3095 28.593C29.3095 30.3053 28.0268 31.6928 26.4441 31.6928C24.8591 31.6928 23.5764 30.3053 23.5764 28.593C23.5764 26.8817 24.8591 25.494 26.4441 25.494C28.0268 25.494 29.3095 26.8817 29.3095 28.593Z" fill="url(#paint6_linear_0_1)"/>
<path d="M39.5177 28.593C39.5177 30.3053 38.235 31.6928 36.65 31.6928C35.0673 31.6928 33.7846 30.3053 33.7846 28.593C33.7846 26.8817 35.0673 25.494 36.65 25.494C38.235 25.494 39.5177 26.8817 39.5177 28.593Z" fill="url(#paint7_linear_0_1)"/>
<path d="M56 7.77978V42.827V45.6377V58L49.9622 52.7123L46.5852 49.573L43.0079 46.2462L44.4933 51.4175H12.731C9.56545 51.4175 7 48.8302 7 45.6377V7.77979C7 4.58731 9.56544 2 12.731 2H50.269C53.4345 2 56 4.58731 56 7.77978ZM48.0069 34.306C48.0069 25.2943 43.9749 17.9882 43.9749 17.9882C39.943 14.9527 36.1197 15.0488 36.1197 15.0488L35.7278 15.4991C40.505 16.9484 42.7057 19.0583 42.7057 19.0583C39.7934 17.4666 36.9276 16.6696 34.2681 16.3695C32.2376 16.1414 30.3259 16.2023 28.6044 16.4201C28.4453 16.4405 28.291 16.4643 28.134 16.4868C27.1538 16.5816 24.7853 16.9373 21.7784 18.2581C20.7178 18.7096 20.1155 19.0583 20.1155 19.0583C20.1155 19.0583 22.4146 16.8276 27.4672 15.3783L27.1784 15.0488C27.1784 15.0488 23.357 14.9527 19.3229 17.9882C19.3229 17.9882 15.2931 25.2943 15.2931 34.306C15.2931 34.306 17.6573 38.3858 23.8431 38.5756C23.8431 38.5756 24.8678 37.3316 25.7119 36.2614C22.1504 35.208 20.8047 32.9707 20.8047 32.9707C20.8047 32.9707 21.0777 33.1613 21.5771 33.4482C21.6176 33.473 21.6578 33.4945 21.7002 33.5182C21.7809 33.5643 21.8681 33.6117 21.96 33.6617C22.6853 34.0625 23.3748 34.3796 24.0173 34.6257C25.1479 35.0827 26.5357 35.5332 28.1275 35.8303C30.2383 36.2227 32.7056 36.3438 35.3851 35.8457C36.6973 35.6032 38.0583 35.2127 39.4553 34.6323C40.4378 34.2574 41.528 33.7292 42.6854 32.9707C42.6854 32.9707 41.2998 35.2725 37.6218 36.3041C38.459 37.3653 39.4575 38.5756 39.4575 38.5756C45.643 38.3858 48.0069 34.306 48.0069 34.306Z" fill="url(#paint8_linear_0_1)"/>
<path d="M42.8443 603.978C42.8443 605.67 42.9055 607.351 42.824 609.043C42.7425 610.967 43.3335 612.618 44.5562 614.077C44.6989 614.249 44.8314 614.421 44.9536 614.604C45.3919 615.262 45.3103 615.718 44.7091 616.224C43.4251 617.298 42.1513 618.382 40.8675 619.455C40.1032 620.094 39.6243 620.084 38.8499 619.455C37.8105 618.615 36.9953 617.582 36.2718 616.477C36.0986 616.214 36.0069 616.224 35.7929 616.427C34.5089 617.673 33.1536 618.827 31.4316 619.405C28.772 620.306 26.0716 620.448 23.4018 619.506C20.8339 618.594 19.2952 616.71 18.7246 614.087C18.0928 611.16 18.4189 608.374 20.2326 605.892C21.6083 604.018 23.5138 602.914 25.7047 602.236C27.9669 601.547 30.3003 601.284 32.644 601.051C33.3064 600.98 33.9586 600.919 34.6209 600.858C34.7839 600.848 34.9266 600.828 34.9164 600.615C34.8961 599.541 35.0081 598.447 34.7534 597.394C34.4273 596.047 33.5407 595.257 32.1855 594.963C31.2174 594.75 30.2596 594.811 29.3221 595.125C27.8955 595.611 27.0089 596.594 26.6523 598.052C26.4587 598.852 26.0816 599.136 25.297 599.055C23.6258 598.883 21.9547 598.711 20.2938 598.538C19.611 598.467 19.2544 597.951 19.397 597.292C20.2632 593.089 23.0349 590.729 27.0294 589.645C30.0966 588.814 33.2045 588.764 36.2819 589.625C38.7581 590.313 40.8369 591.529 41.9985 593.94C42.6609 595.307 42.8137 596.786 42.8341 598.265C42.8545 600.159 42.8341 602.074 42.8443 603.978ZM34.9164 607.138C34.9164 606.632 34.8961 606.125 34.9267 605.619C34.947 605.305 34.8349 605.193 34.5191 605.224C33.7446 605.295 32.96 605.305 32.1855 605.406C30.8303 605.578 29.5055 605.913 28.405 606.763C26.8052 608.009 26.4689 609.711 26.7338 611.625C27.0497 613.874 29.0674 615.12 31.2277 614.37C32.695 613.864 33.5917 612.79 34.2133 611.443C34.8655 610.076 34.9164 608.607 34.9164 607.138Z" fill="#ECECEC"/>
<path d="M31.1461 630C23.3711 629.949 16.3909 627.964 10.0833 623.781C8.79934 622.93 7.57652 621.998 6.4149 620.975C6.31303 620.884 6.21107 620.793 6.12957 620.681C6.01747 620.529 5.93597 620.347 6.06845 620.165C6.20093 619.962 6.42513 619.942 6.61874 620.033C7.06706 620.246 7.4951 620.478 7.9332 620.701C11.9481 622.808 16.177 624.328 20.6096 625.29C24.6245 626.161 28.6801 626.566 32.7969 626.455C38.6766 626.293 44.3422 625.118 49.7938 622.94C50.0588 622.828 50.334 622.717 50.6091 622.656C50.9964 622.585 51.3836 622.636 51.5568 623.051C51.7198 623.436 51.5058 623.74 51.2205 623.983C51.0167 624.155 50.7823 624.297 50.548 624.449C47.0324 626.718 43.1806 628.177 39.1046 629.078C36.4144 629.686 33.6835 629.98 31.1461 630Z" fill="#F6A61F"/>
<path d="M50.7619 620.975C49.5901 620.965 48.4285 621.117 47.2668 621.238C47.0426 621.258 46.7878 621.319 46.686 621.076C46.5637 620.803 46.7981 620.641 46.9917 620.509C48.4387 619.557 50.0589 619.182 51.7606 619.091C52.9325 619.02 54.0941 619.071 55.2354 619.415C55.7551 619.567 56.0098 619.871 55.9997 620.398C55.9386 623.213 54.9908 625.665 52.9427 627.66C52.8714 627.731 52.7899 627.792 52.7084 627.853C52.525 627.985 52.3008 628.106 52.1071 627.944C51.9237 627.792 52.0256 627.569 52.1071 627.387C52.7084 625.898 53.3198 624.419 53.6152 622.829C53.656 622.626 53.6661 622.423 53.6764 622.231C53.6865 621.573 53.4522 621.289 52.8 621.127C52.1172 620.944 51.4345 620.975 50.7619 620.975Z" fill="#F6A61F"/>
<path d="M43.4858 540.326C43.4858 548.835 35.3178 555.732 25.2424 555.732C15.1664 555.732 7 548.835 7 540.326C7 531.818 15.1664 524.924 25.2424 524.924C35.3178 524.924 43.4858 531.818 43.4858 540.326Z" fill="#58595B"/>
<path d="M12.628 557.785L14.9889 551.22L20.3136 553.814" fill="#58595B"/>
<path d="M26.7358 551.52C26.7358 558.577 33.5099 564.298 41.8695 564.298C50.2266 564.298 57 558.577 57 551.52C57 544.463 50.2266 538.743 41.8695 538.743C33.5099 538.743 26.7358 544.463 26.7358 551.52Z" fill="#58595B"/>
<path d="M52.332 566L50.374 560.554L45.9582 562.707" fill="#58595B"/>
<mask id="mask1_0_1" style="mask-type:luminance" maskUnits="userSpaceOnUse" x="7" y="524" width="36" height="33">
<path d="M16.3924 534.416C16.3924 533.021 17.5119 531.889 18.8944 531.889C20.2772 531.889 21.399 533.021 21.399 534.416C21.399 535.813 20.2772 536.946 18.8944 536.946C17.5119 536.946 16.3924 535.813 16.3924 534.416ZM28.676 534.416C28.676 533.021 29.7966 531.889 31.179 531.889C32.5609 531.889 33.681 533.021 33.681 534.416C33.681 535.813 32.5609 536.946 31.179 536.946C29.7966 536.946 28.676 535.813 28.676 534.416ZM7.4739 536.825C7.3012 537.677 7.2117 538.551 7.2117 539.445C7.2117 544.409 9.96651 548.82 14.2322 551.621L13.9636 552.436L12.4732 556.951L17.4483 554.26L18.4957 553.693C20.5338 554.387 22.7546 554.772 25.0822 554.772C25.7995 554.772 26.5046 554.737 27.1982 554.666C27.3104 554.656 27.4225 554.644 27.5337 554.631C27.0676 553.39 26.8164 552.07 26.8164 550.698C26.8164 543.615 33.5204 537.873 41.7931 537.873C42.1534 537.873 42.5099 537.885 42.8649 537.905C42.6642 536.193 42.1371 534.564 41.3344 533.065C38.5134 527.786 32.2975 524.121 25.0822 524.121C16.2565 524.121 8.9226 529.61 7.4739 536.825Z" fill="white"/>
</mask>
<g mask="url(#mask1_0_1)">
<path d="M42.8648 524.121H7.21155V556.95H42.8648V524.121Z" fill="url(#paint9_radial_0_1)"/>
</g>
<mask id="mask2_0_1" style="mask-type:luminance" maskUnits="userSpaceOnUse" x="7" y="524" width="37" height="34">
<path d="M14.3443 551.659C14.3606 551.607 14.3411 551.551 14.2969 551.521C10.0581 548.737 7.3317 544.363 7.3317 539.446C7.3328 535.254 9.3129 531.455 12.5237 528.7C15.7356 525.946 20.1757 524.239 25.0833 524.239C29.9915 524.239 34.432 525.946 37.6428 528.7C40.8546 531.455 42.8358 535.254 42.8358 539.446C42.8358 543.641 40.8546 547.438 37.6428 550.193C34.432 552.948 29.9915 554.653 25.0833 554.653C22.7698 554.653 20.5595 554.27 18.533 553.58C18.502 553.57 18.4684 553.572 18.4394 553.588L12.6791 556.703L14.3443 551.659ZM12.3706 528.518C9.1154 531.311 7.09525 535.175 7.09525 539.446C7.09525 544.427 9.84265 548.849 14.0911 551.671L12.3611 556.912C12.3457 556.959 12.36 557.01 12.3963 557.042C12.419 557.06 12.4458 557.069 12.4732 557.069L12.529 557.055L18.5063 553.823C20.5438 554.512 22.7624 554.893 25.0834 554.893C30.0457 554.893 34.5401 553.168 37.7972 550.376C41.0517 547.582 43.0718 543.718 43.0707 539.446C43.0718 535.175 41.0517 531.311 37.7972 528.518C34.54 525.725 30.0457 524 25.0833 524C20.1219 524 15.6277 525.725 12.3706 528.518Z" fill="white"/>
</mask>
<g mask="url(#mask2_0_1)">
<path d="M43.0718 524H7.09525V557.069H43.0718V524Z" fill="url(#paint10_linear_0_1)"/>
</g>
<mask id="mask3_0_1" style="mask-type:luminance" maskUnits="userSpaceOnUse" x="26" y="537" width="31" height="29">
<path d="M35.2267 546.933C35.2267 545.815 36.1229 544.908 37.2283 544.908C38.3364 544.908 39.2327 545.815 39.2327 546.933C39.2327 548.052 38.3364 548.958 37.2283 548.958C36.1229 548.958 35.2267 548.052 35.2267 546.933ZM45.0888 546.933C45.0888 545.815 45.9861 544.908 47.0936 544.908C48.198 544.908 49.0954 545.815 49.0954 546.933C49.0954 548.052 48.198 548.958 47.0936 548.958C45.9862 548.958 45.0888 548.052 45.0888 546.933ZM26.8164 550.698C26.8164 552.07 27.0676 553.39 27.5337 554.631C29.4716 559.789 35.1234 563.523 41.7931 563.523C43.8085 563.523 45.7297 563.179 47.4876 562.559L48.3918 563.053L52.3752 565.228L51.2229 561.565L50.986 560.816C54.5039 558.471 56.7683 554.812 56.7683 550.698C56.7683 549.842 56.6705 549.005 56.4839 548.197C55.2168 542.714 49.8705 538.488 43.2672 537.934C43.1334 537.925 42.9986 537.914 42.8649 537.905C42.5099 537.884 42.1534 537.873 41.7931 537.873C33.5204 537.873 26.8164 543.615 26.8164 550.698Z" fill="white"/>
</mask>
<g mask="url(#mask3_0_1)">
<path d="M56.7684 537.873H26.8164V565.228H56.7684V537.873Z" fill="url(#paint11_radial_0_1)"/>
</g>
<mask id="mask4_0_1" style="mask-type:luminance" maskUnits="userSpaceOnUse" x="26" y="537" width="31" height="29">
<path d="M31.2796 559.675C28.5907 557.373 26.9349 554.201 26.9349 550.698C26.9349 547.196 28.5907 544.023 31.2796 541.72C33.9659 539.42 37.6828 537.992 41.7916 537.992C45.8998 537.992 49.6189 539.42 52.3056 541.72C54.9916 544.023 56.6493 547.196 56.6493 550.698C56.6493 554.766 54.4112 558.388 50.9217 560.717C50.8764 560.746 50.8564 560.802 50.8732 560.853L52.1729 564.984L47.5433 562.455L47.4876 562.44L47.4475 562.447C45.7049 563.061 43.7959 563.403 41.7916 563.403C37.6828 563.403 33.9659 561.977 31.2796 559.675ZM31.1263 541.538C28.3931 543.878 26.6968 547.117 26.6979 550.698C26.6968 554.279 28.3931 557.518 31.1263 559.858C33.858 562.197 37.6296 563.642 41.7916 563.642C43.8032 563.642 45.7208 563.303 47.4765 562.69L52.3184 565.334L52.3741 565.35C52.4015 565.35 52.4279 565.339 52.4499 565.322C52.4869 565.29 52.5017 565.239 52.4869 565.193L51.1261 560.867C54.6282 558.501 56.8863 554.829 56.8863 550.698C56.8863 547.117 55.1916 543.878 52.4574 541.538C49.7252 539.198 45.9551 537.755 41.7916 537.753C37.6296 537.755 33.858 539.198 31.1263 541.538Z" fill="white"/>
</mask>
<g mask="url(#mask4_0_1)">
<path d="M56.8862 537.753H26.6967V565.35H56.8862V537.753Z" fill="url(#paint12_linear_0_1)"/>
</g>
<mask id="mask5_0_1" style="mask-type:luminance" maskUnits="userSpaceOnUse" x="35" y="544" width="5" height="5">
<path d="M35.2267 546.933C35.2267 548.052 36.1229 548.958 37.2283 548.958C38.3364 548.958 39.2327 548.052 39.2327 546.933C39.2327 545.815 38.3364 544.908 37.2283 544.908C36.1229 544.908 35.2267 545.815 35.2267 546.933Z" fill="white"/>
</mask>
<g mask="url(#mask5_0_1)">
<path d="M39.2327 544.908H35.2267V548.958H39.2327V544.908Z" fill="url(#paint13_radial_0_1)"/>
</g>
<mask id="mask6_0_1" style="mask-type:luminance" maskUnits="userSpaceOnUse" x="45" y="544" width="5" height="5">
<path d="M45.0888 546.933C45.0888 548.052 45.9861 548.958 47.0936 548.958C48.198 548.958 49.0954 548.052 49.0954 546.933C49.0954 545.815 48.198 544.908 47.0936 544.908C45.9862 544.908 45.0888 545.815 45.0888 546.933Z" fill="white"/>
</mask>
<g mask="url(#mask6_0_1)">
<path d="M49.0954 544.908H45.0888V548.958H49.0954V544.908Z" fill="url(#paint14_radial_0_1)"/>
</g>
<mask id="mask7_0_1" style="mask-type:luminance" maskUnits="userSpaceOnUse" x="28" y="531" width="6" height="6">
<path d="M28.676 534.416C28.676 535.813 29.7966 536.946 31.179 536.946C32.5609 536.946 33.681 535.813 33.681 534.416C33.681 533.021 32.5609 531.889 31.179 531.889C29.7966 531.889 28.676 533.021 28.676 534.416Z" fill="white"/>
</mask>
<g mask="url(#mask7_0_1)">
<path d="M33.681 531.888H28.676V536.946H33.681V531.888Z" fill="url(#paint15_radial_0_1)"/>
</g>
<mask id="mask8_0_1" style="mask-type:luminance" maskUnits="userSpaceOnUse" x="16" y="531" width="6" height="6">
<path d="M16.3924 534.416C16.3924 535.813 17.5119 536.946 18.8944 536.946C20.2772 536.946 21.399 535.813 21.399 534.416C21.399 533.021 20.2772 531.889 18.8944 531.889C17.5119 531.889 16.3924 533.021 16.3924 534.416Z" fill="white"/>
</mask>
<g mask="url(#mask8_0_1)">
<path d="M21.399 531.888H16.3924V536.946H21.399V531.888Z" fill="url(#paint16_radial_0_1)"/>
</g>
<mask id="mask9_0_1" style="mask-type:luminance" maskUnits="userSpaceOnUse" x="35" y="544" width="5" height="5">
<path d="M35.2257 546.581C35.2257 547.699 36.1219 548.604 37.2283 548.604C38.3364 548.604 39.2328 547.699 39.2328 546.581C39.2328 545.464 38.3364 544.557 37.2283 544.557C36.1219 544.557 35.2257 545.464 35.2257 546.581Z" fill="white"/>
</mask>
<g mask="url(#mask9_0_1)">
<path d="M39.2328 544.557H35.2257V548.604H39.2328V544.557Z" fill="url(#paint17_linear_0_1)"/>
</g>
<mask id="mask10_0_1" style="mask-type:luminance" maskUnits="userSpaceOnUse" x="45" y="544" width="5" height="5">
<path d="M45.0888 546.581C45.0888 547.699 45.9861 548.604 47.0926 548.604C48.199 548.604 49.0963 547.699 49.0963 546.581C49.0963 545.464 48.199 544.557 47.0926 544.557C45.9862 544.557 45.0888 545.464 45.0888 546.581Z" fill="white"/>
</mask>
<g mask="url(#mask10_0_1)">
<path d="M49.0963 544.557H45.0888V548.604H49.0963V544.557Z" fill="url(#paint18_linear_0_1)"/>
</g>
<mask id="mask11_0_1" style="mask-type:luminance" maskUnits="userSpaceOnUse" x="28" y="531" width="6" height="6">
<path d="M28.6749 534.065C28.6749 535.461 29.7955 536.593 31.1779 536.593C32.5598 536.593 33.681 535.461 33.681 534.065C33.681 532.669 32.5598 531.536 31.1779 531.536C29.7955 531.536 28.6749 532.669 28.6749 534.065Z" fill="white"/>
</mask>
<g mask="url(#mask11_0_1)">
<path d="M33.6809 531.536H28.6749V536.593H33.6809V531.536Z" fill="url(#paint19_linear_0_1)"/>
</g>
<mask id="mask12_0_1" style="mask-type:luminance" maskUnits="userSpaceOnUse" x="16" y="531" width="6" height="6">
<path d="M16.3914 534.065C16.3914 535.461 17.5119 536.593 18.8944 536.593C20.2772 536.593 21.398 535.461 21.398 534.065C21.398 532.669 20.2772 531.536 18.8944 531.536C17.5119 531.536 16.3914 532.669 16.3914 534.065Z" fill="white"/>
</mask>
<g mask="url(#mask12_0_1)">
<path d="M21.3979 531.536H16.3914V536.593H21.3979V531.536Z" fill="url(#paint20_linear_0_1)"/>
</g>
<g clip-path="url(#clip1_0_1)">
<path opacity="0.45" d="M52.5714 440H11.4286C9.53502 440 8 438.483 8 436.612V395.953C8 394.082 9.53502 392.565 11.4286 392.565H52.5714C54.465 392.565 56 394.082 56 395.953V436.612C56 438.483 54.465 440 52.5714 440Z" fill="url(#paint21_linear_0_1)"/>
<mask id="mask13_0_1" style="mask-type:luminance" maskUnits="userSpaceOnUse" x="4" y="396" width="56" height="47">
<path d="M59.4286 396.518H4.57143V442.824H59.4286V396.518Z" fill="white"/>
</mask>
<g mask="url(#mask13_0_1)">
<path d="M52.5143 392H11.4857C9.56061 392 8 393.517 8 395.388V436.047C8 437.918 9.56061 439.435 11.4857 439.435H52.5143C54.4394 439.435 56 437.918 56 436.047V395.388C56 393.517 54.4394 392 52.5143 392Z" fill="url(#paint22_linear_0_1)"/>
</g>
<path opacity="0.15" d="M11.4286 392C9.52914 392 8 393.511 8 395.388V396.518V434.918V436.047C8 436.236 8.02363 436.415 8.05357 436.594C8.0814 436.761 8.10902 436.931 8.16071 437.088C8.16636 437.105 8.17265 437.124 8.17857 437.141C8.23507 437.304 8.31279 437.45 8.39286 437.6C8.47548 437.754 8.57321 437.902 8.67857 438.041C8.78393 438.18 8.89216 438.309 9.01786 438.429C9.26926 438.671 9.55666 438.889 9.875 439.047C10.0342 439.126 10.2027 439.187 10.375 439.241C10.2286 439.185 10.0969 439.108 9.96429 439.029C9.96005 439.027 9.95065 439.032 9.94643 439.029C9.92818 439.019 9.91083 439.005 9.89286 438.994C9.82406 438.951 9.76084 438.902 9.69643 438.853C9.63576 438.807 9.57455 438.762 9.51786 438.712C9.41618 438.621 9.31931 438.517 9.23214 438.412C9.17067 438.338 9.10735 438.262 9.05357 438.182C9.03923 438.161 9.0316 438.134 9.01786 438.112C8.98085 438.054 8.94344 437.996 8.91071 437.935C8.853 437.825 8.79319 437.701 8.75 437.582C8.74545 437.57 8.73652 437.559 8.73214 437.547C8.71396 437.495 8.71168 437.442 8.69643 437.388C8.6791 437.328 8.65621 437.274 8.64286 437.212C8.60121 437.019 8.57143 436.817 8.57143 436.612V435.482V397.082V395.953C8.57143 394.382 9.83894 393.129 11.4286 393.129H12.5714H51.4286H52.5714C54.1611 393.129 55.4286 394.382 55.4286 395.953V397.082V435.482V436.612C55.4286 436.817 55.3988 437.019 55.3571 437.212C55.3319 437.329 55.3066 437.436 55.2679 437.547C55.2635 437.559 55.2545 437.57 55.25 437.582C55.2142 437.68 55.1709 437.79 55.125 437.882C55.1012 437.929 55.0798 437.978 55.0536 438.024C55.0224 438.078 54.9811 438.13 54.9464 438.182C54.8927 438.262 54.8293 438.338 54.7679 438.412C54.686 438.51 54.5946 438.608 54.5 438.694C54.4936 438.7 54.4886 438.706 54.4821 438.712C54.4031 438.783 54.3192 438.844 54.2321 438.906C54.1735 438.947 54.1154 438.992 54.0536 439.029C54.0493 439.032 54.04 439.027 54.0357 439.029C53.9031 439.108 53.7714 439.185 53.625 439.241C53.7973 439.187 53.9658 439.126 54.125 439.047C54.4433 438.889 54.7307 438.671 54.9821 438.429C55.1078 438.309 55.2161 438.18 55.3214 438.041C55.4268 437.902 55.5245 437.754 55.6071 437.6C55.6872 437.45 55.7649 437.304 55.8214 437.141C55.8274 437.124 55.8336 437.106 55.8393 437.088C55.891 436.931 55.9186 436.761 55.9464 436.594C55.9764 436.415 56 436.236 56 436.047V434.918V396.518V395.388C56 393.511 54.4709 392 52.5714 392H11.4286Z" fill="url(#paint23_linear_0_1)"/>
<path opacity="0.1" d="M11.4286 439.435C9.52914 439.435 8 437.924 8 436.047V434.918V396.518V395.388C8 395.199 8.02363 395.021 8.05357 394.841C8.0814 394.674 8.10902 394.504 8.16071 394.347C8.16637 394.33 8.17265 394.311 8.17857 394.294C8.23506 394.132 8.31279 393.985 8.39286 393.835C8.47548 393.681 8.57321 393.533 8.67857 393.394C8.78393 393.255 8.89216 393.127 9.01786 393.006C9.26926 392.764 9.55666 392.546 9.875 392.388C10.0342 392.309 10.2027 392.249 10.375 392.194C10.2286 392.251 10.0969 392.328 9.96429 392.406C9.96006 392.408 9.95065 392.403 9.94643 392.406C9.92818 392.417 9.91083 392.43 9.89286 392.441C9.82406 392.484 9.76084 392.534 9.69643 392.582C9.63576 392.628 9.57455 392.673 9.51786 392.724C9.41618 392.815 9.31931 392.919 9.23214 393.024C9.17067 393.097 9.10735 393.173 9.05357 393.253C9.03923 393.275 9.0316 393.301 9.01786 393.324C8.98085 393.382 8.94344 393.439 8.91071 393.5C8.853 393.61 8.79319 393.735 8.75 393.853C8.74543 393.865 8.73652 393.876 8.73214 393.888C8.71395 393.94 8.71169 393.994 8.69643 394.047C8.6791 394.107 8.65621 394.162 8.64286 394.224C8.60121 394.416 8.57143 394.618 8.57143 394.824V395.953V434.353V435.482C8.57143 437.053 9.83894 438.306 11.4286 438.306H12.5714H51.4286H52.5714C54.1611 438.306 55.4286 437.053 55.4286 435.482V434.353V395.953V394.824C55.4286 394.618 55.3988 394.416 55.3571 394.224C55.3319 394.107 55.3066 393.999 55.2679 393.888C55.2635 393.876 55.2545 393.865 55.25 393.853C55.2142 393.755 55.1709 393.645 55.125 393.553C55.1012 393.506 55.0798 393.457 55.0536 393.412C55.0224 393.357 54.9811 393.305 54.9464 393.253C54.8927 393.173 54.8293 393.097 54.7679 393.024C54.686 392.925 54.5946 392.828 54.5 392.741C54.4936 392.735 54.4886 392.729 54.4821 392.724C54.4031 392.653 54.3192 392.591 54.2321 392.529C54.1735 392.488 54.1154 392.443 54.0536 392.406C54.0493 392.403 54.04 392.408 54.0357 392.406C53.9031 392.328 53.7714 392.251 53.625 392.194C53.7973 392.249 53.9658 392.309 54.125 392.388C54.4433 392.546 54.7307 392.764 54.9821 393.006C55.1078 393.127 55.2161 393.255 55.3214 393.394C55.4268 393.533 55.5245 393.681 55.6071 393.835C55.6872 393.985 55.7649 394.132 55.8214 394.294C55.8274 394.312 55.8336 394.33 55.8393 394.347C55.891 394.504 55.9186 394.674 55.9464 394.841C55.9764 395.021 56 395.199 56 395.388V396.518V434.918V436.047C56 437.924 54.4709 439.435 52.5714 439.435H11.4286Z" fill="url(#paint24_radial_0_1)"/>
<path d="M11.4286 392C9.52914 392 8 393.511 8 395.388V397.647H19.4286V392H11.4286Z" fill="#D91F1C"/>
<path d="M19.4286 392V397.647H32V392H19.4286Z" fill="#4776EC"/>
<path d="M32 392V397.647H44.5714V392H32Z" fill="#22A938"/>
<path d="M44.5714 392V397.647H56V395.388C56 393.511 54.4709 392 52.5714 392H44.5714Z" fill="#EEB91C"/>
<path opacity="0.3" d="M56 397.647H8V399.341H56V397.647Z" fill="url(#paint25_linear_0_1)"/>
<path opacity="0.3" d="M11.4286 392C9.52914 392 8 393.511 8 395.388V396.518H19.4286H32H44.5714H56V395.388C56 393.511 54.4709 392 52.5714 392H44.5714H32H19.4286H11.4286Z" fill="url(#paint26_linear_0_1)"/>
<path opacity="0.2" d="M11.4286 392C9.52914 392 8 393.511 8 395.388V396.518V397.647H8.57143V397.082V395.953C8.57143 394.382 9.83894 393.129 11.4286 393.129H12.5714H51.4286H52.5714C54.1611 393.129 55.4286 394.382 55.4286 395.953V397.082V397.647H56V396.518V395.388C56 393.511 54.4709 392 52.5714 392H19.4286H11.4286Z" fill="url(#paint27_linear_0_1)"/>
<path opacity="0.05" d="M29.3929 405.024C27.3398 405.024 24.5851 405.326 22.25 407.229C22.1987 407.274 22.1564 407.328 22.125 407.388C22.1121 407.405 22.1001 407.423 22.0893 407.441C20.4211 408.948 19.5536 410.942 19.5536 412.841C19.5536 416.112 22.1707 419.337 26.375 419.476C26.3556 419.581 26.3214 419.61 26.3214 419.741C26.3214 420.353 26.4773 420.839 26.6786 421.276C25.0773 421.423 23.1156 421.724 21.2679 422.776C21.2497 422.781 21.2318 422.787 21.2143 422.794C21.1583 422.803 21.1041 422.821 21.0536 422.847C18.6038 424.282 17.75 426.495 17.75 428.141C17.75 429.804 18.5786 431.429 20.1071 432.553C21.6312 433.673 23.8052 434.318 26.5893 434.318C33.193 434.318 37.1786 430.552 37.1786 426.5C37.1786 425.053 36.7076 423.879 36.0357 422.953C35.3694 422.035 34.5435 421.336 33.75 420.676C33.722 420.656 33.6921 420.638 33.6607 420.624C33.6436 420.611 33.6257 420.599 33.6071 420.588L32.4643 419.671C32.4643 419.671 32.4481 419.671 32.4464 419.671C32.4377 419.663 32.4371 419.66 32.4286 419.653C32.2348 419.496 32.0709 419.372 32 419.282C31.9259 419.189 31.9107 419.15 31.9107 419C31.9107 418.864 31.9416 418.767 32.0536 418.612C32.1656 418.456 32.3649 418.27 32.6071 418.029C34.1255 416.844 35.9464 415.196 35.9464 412.206V411.959V411.941C35.9464 411.921 35.9464 411.888 35.9464 411.888C35.9465 411.882 35.9465 411.876 35.9464 411.871L35.9286 411.641L35.9107 411.447C35.9107 411.447 35.9107 411.425 35.9107 411.394C35.9107 411.374 35.9107 411.359 35.9107 411.359C35.9123 411.335 35.9123 411.312 35.9107 411.288L35.875 411.059C35.87 411.041 35.864 411.023 35.8571 411.006C35.8571 411.006 35.8441 410.986 35.8393 410.971V410.953L35.8214 410.9L35.8036 410.829V410.812C35.7985 410.794 35.7926 410.776 35.7857 410.759V410.671C35.7822 410.641 35.7763 410.611 35.7679 410.582L35.75 410.529L35.7321 410.476L35.6964 410.318L35.6786 410.265L35.6607 410.212L35.5893 410.018L35.5179 409.824L35.4464 409.629L35.3929 409.506L35.375 409.453L35.3571 409.4C35.3521 409.382 35.3461 409.364 35.3393 409.347L35.25 409.171C35.2386 409.158 35.2267 409.147 35.2143 409.135V409.118C35.2029 409.105 35.191 409.094 35.1786 409.082L35.125 408.976L35.0536 408.853C35.0536 408.853 35.0446 408.835 35.0357 408.818C35.0268 408.8 35.0179 408.782 35.0179 408.782C35.007 408.764 34.9951 408.746 34.9821 408.729L34.9464 408.676L34.9286 408.641C34.9228 408.635 34.9168 408.629 34.9107 408.624L34.8929 408.606L34.875 408.553C34.875 408.553 34.8478 408.518 34.8393 408.5C34.8372 408.495 34.8393 408.482 34.8393 408.482C34.8393 408.482 34.831 408.464 34.8214 408.447C34.8411 408.441 34.8571 408.429 34.8571 408.429L34.9286 408.394L35 408.376L35.0536 408.341L37.3571 407.071L37.4286 407.018L37.5179 406.965L37.5714 406.912L37.6429 406.841L37.6964 406.771L37.75 406.7L37.8036 406.629L37.8393 406.541L37.875 406.471L37.8929 406.382L37.9107 406.294L37.9286 406.206V406.118V406.012L37.9107 405.924L37.8929 405.835L37.8571 405.765L37.8393 405.676L37.7857 405.588L37.75 405.518L37.6964 405.447L37.625 405.376L37.5714 405.306L37.5 405.253L37.4286 405.2L37.3393 405.147L37.2679 405.112L37.1786 405.076L37.0893 405.059L37 405.041L36.9107 405.024H36.8214H29.3929ZM42.0893 405.024C42.0832 405.029 42.0772 405.035 42.0714 405.041L41.9821 405.059L41.8929 405.094L41.8036 405.129L41.7143 405.165L41.625 405.218L41.5536 405.288L41.4821 405.341L41.4286 405.429L41.375 405.5L41.3214 405.571L41.2679 405.659L41.2321 405.747L41.2143 405.853L41.1964 405.941L41.1786 406.029C41.1786 406.029 41.1791 406.096 41.1786 406.118C41.1785 406.122 41.1786 406.135 41.1786 406.135V409.541H37.7143H37.6607H37.6071L37.5536 409.559H37.5L37.4464 409.576L37.3929 409.594L37.3393 409.612L37.2857 409.629L37.25 409.647L37.1964 409.665L37.1429 409.7L37.1071 409.718L37.0536 409.753L37.0179 409.788L36.9643 409.824L36.9286 409.859L36.8929 409.894L36.8571 409.947L36.8214 409.982L36.7857 410.035L36.7679 410.071L36.7321 410.124L36.7143 410.176L36.6964 410.212L36.6786 410.265L36.6607 410.318L36.6429 410.371L36.625 410.424V410.476L36.6071 410.529V410.582V410.635V411.765V411.818V411.871L36.625 411.924V411.976L36.6429 412.029L36.6607 412.082L36.6786 412.135L36.6964 412.188L36.7143 412.224L36.7321 412.276L36.7679 412.329L36.7857 412.365L36.8214 412.418L36.8571 412.453L36.8929 412.506L36.9286 412.541L36.9643 412.576L37.0179 412.612L37.0536 412.647L37.1071 412.682L37.1429 412.7L37.1964 412.735L37.25 412.753L37.2857 412.771L37.3393 412.788L37.3929 412.806L37.4464 412.824L37.5 412.841H37.5536L37.6071 412.859H37.6607H37.7143H41.1786V416.282V416.335V416.388L41.1964 416.441V416.494L41.2143 416.547L41.2321 416.6L41.25 416.653L41.2679 416.706L41.2857 416.741L41.3036 416.794L41.3393 416.847L41.3571 416.882L41.3929 416.935L41.4286 416.971L41.4643 417.024L41.5 417.059L41.5357 417.094L41.5893 417.129L41.625 417.165L41.6786 417.2L41.7143 417.218L41.7679 417.253L41.8214 417.271L41.8571 417.288L41.9107 417.306L41.9643 417.324L42.0179 417.341L42.0714 417.359H42.125L42.1786 417.376H42.2321H42.2857H43.4286H43.4821H43.5357L43.5893 417.359H43.6429L43.6964 417.341L43.75 417.324L43.8036 417.306L43.8571 417.288L43.8929 417.271L43.9464 417.253L44 417.218L44.0357 417.2L44.0893 417.165L44.125 417.129L44.1786 417.094L44.2143 417.059L44.25 417.024L44.2857 416.971L44.3214 416.935L44.3571 416.882L44.375 416.847L44.4107 416.794L44.4286 416.741L44.4464 416.706L44.4643 416.653L44.4821 416.6L44.5 416.547L44.5179 416.494V416.441L44.5357 416.388V416.335V416.282V412.859H48H48.0536H48.1071L48.1607 412.841H48.2143L48.2679 412.824L48.3214 412.806L48.375 412.788L48.4286 412.771L48.4643 412.753L48.5179 412.735L48.5714 412.7L48.6071 412.682L48.6607 412.647L48.6964 412.612L48.75 412.576L48.7857 412.541L48.8214 412.506L48.8571 412.453L48.8929 412.418L48.9286 412.365L48.9464 412.329L48.9821 412.276L49 412.224L49.0179 412.188L49.0357 412.135L49.0536 412.082L49.0714 412.029L49.0893 411.976V411.924L49.1071 411.871V411.818V411.765V410.635V410.582V410.529L49.0893 410.476V410.424L49.0714 410.371L49.0536 410.318L49.0357 410.265L49.0179 410.212L49 410.176L48.9821 410.124L48.9464 410.071L48.9286 410.035L48.8929 409.982L48.8571 409.947L48.8214 409.894L48.7857 409.859L48.75 409.824L48.6964 409.788L48.6607 409.753L48.6071 409.718L48.5714 409.7L48.5179 409.665L48.4643 409.647L48.4286 409.629L48.375 409.612L48.3214 409.594L48.2679 409.576L48.2143 409.559H48.1607L48.1071 409.541H48.0536H48H44.5357V406.118V406.065V406.012L44.5179 405.959V405.906L44.5 405.853L44.4821 405.8L44.4643 405.747L44.4464 405.694L44.4286 405.659L44.4107 405.606L44.375 405.553L44.3571 405.518L44.3214 405.465L44.2857 405.429L44.25 405.376L44.2143 405.341L44.1786 405.306L44.125 405.271L44.0893 405.235L44.0357 405.2L44 405.182L43.9464 405.147L43.8929 405.129L43.8571 405.112L43.8036 405.094L43.75 405.076L43.6964 405.059L43.6429 405.041H43.5893L43.5357 405.024H43.4821H43.4286H42.3036C42.3036 405.024 42.2926 405.024 42.2857 405.024C42.272 405.024 42.2706 405.024 42.25 405.024C42.25 405.024 42.2349 405.024 42.2143 405.024C42.1834 405.024 42.1607 405.024 42.1607 405.024C42.1369 405.022 42.1131 405.022 42.0893 405.024ZM27.1429 408.376C28.1456 408.376 28.924 409.002 29.5714 410.124C30.213 411.235 30.5714 412.771 30.5714 413.829V413.882V413.9C30.5682 413.92 30.5714 413.953 30.5714 413.953L30.5536 414.024V414.094V414.165C30.5524 414.17 30.5536 414.182 30.5536 414.182V414.235V414.253C30.5529 414.258 30.5544 414.263 30.5536 414.271C30.5517 414.287 30.5357 414.306 30.5357 414.306C30.532 414.322 30.5357 414.341 30.5357 414.341C30.5352 414.35 30.5357 414.359 30.5357 414.359C30.5356 414.365 30.5356 414.371 30.5357 414.376C30.5343 414.385 30.5368 414.388 30.5357 414.394C30.5346 414.401 30.5357 414.412 30.5357 414.412L30.5179 414.482C30.5175 414.494 30.5175 414.506 30.5179 414.518C30.5174 414.535 30.5179 414.553 30.5179 414.553C30.5103 414.576 30.5044 414.6 30.5 414.624C30.4999 414.629 30.4999 414.635 30.5 414.641V414.676C30.5 414.694 30.5 414.712 30.5 414.712L30.4821 414.765L30.4464 414.853L30.4107 414.941C30.4043 414.953 30.3984 414.964 30.3929 414.976C30.3929 414.976 30.3968 414.996 30.3929 415.012L30.375 415.029C30.3686 415.041 30.3627 415.053 30.3571 415.065L30.3214 415.153C30.3214 415.153 30.3126 415.18 30.3036 415.206C30.2972 415.224 30.2857 415.241 30.2857 415.241L30.25 415.294L30.1964 415.382C30.1963 415.388 30.1963 415.394 30.1964 415.4C30.1903 415.406 30.1844 415.412 30.1786 415.418L30.1607 415.453C30.1543 415.464 30.1484 415.476 30.1429 415.488C30.1403 415.491 30.1429 415.506 30.1429 415.506L30.125 415.524C30.1189 415.529 30.113 415.535 30.1071 415.541L30.0893 415.559C30.0768 415.57 30.0649 415.582 30.0536 415.594C30.0536 415.594 30.0349 415.611 30.0179 415.629C30.0178 415.635 30.0178 415.641 30.0179 415.647L29.9821 415.665C29.6688 415.974 28.8515 416.335 28.3214 416.335C27.2423 416.335 26.4996 415.712 25.875 414.624C25.2576 413.548 24.9286 412.067 24.9286 411.094C24.9286 410.319 25.0943 409.609 25.4821 409.135C25.7992 408.744 26.6002 408.376 27.1429 408.376ZM28.8929 424.259H28.9286H28.9643H29H29.0357H29.0536H29.0893H29.1071H29.1429H29.1786H29.1964H29.25H29.3036C29.3119 424.261 29.3134 424.257 29.3214 424.259C29.3295 424.261 29.334 424.258 29.3393 424.259C30.5208 425.097 31.4257 425.808 31.8929 426.324C32.4192 426.904 32.5536 427.208 32.5536 427.894C32.5536 428.705 32.2762 429.268 31.625 429.765C30.9837 430.254 29.91 430.629 28.3571 430.629C26.6094 430.629 25.2504 430.206 24.3929 429.606C23.526 428.999 23.1429 428.302 23.1429 427.382C23.1429 426.436 23.4962 425.968 24 425.547C24.4833 425.144 25.0959 424.892 25.4821 424.753C25.4857 424.752 25.4964 424.754 25.5 424.753C26.7617 424.341 28.7607 424.259 28.8929 424.259Z" fill="black"/>
<path opacity="0.15" d="M29.3929 405.571C27.3948 405.571 24.8002 405.866 22.6071 407.653C22.607 407.659 22.607 407.665 22.6071 407.671C20.9372 409.091 20.1071 411.039 20.1071 412.841C20.1071 415.896 22.5536 418.965 26.6429 418.965C26.7851 418.965 26.9289 418.955 27.0714 418.947C26.9945 419.206 26.875 419.39 26.875 419.741C26.875 420.587 27.1901 421.192 27.5357 421.718C25.8235 421.844 23.3992 422.093 21.3393 423.341V423.324C19.0533 424.663 18.3036 426.68 18.3036 428.141C18.3036 429.629 19.0264 431.081 20.4286 432.112C21.8308 433.143 23.892 433.771 26.5893 433.771C32.9847 433.771 36.625 430.198 36.625 426.5C36.625 425.166 36.2049 424.119 35.5893 423.271C34.9737 422.422 34.1845 421.758 33.3929 421.1C33.3869 421.1 33.381 421.1 33.375 421.1L32.1071 420.094C32.1034 420.091 32.093 420.097 32.0893 420.094C31.6847 419.767 31.3571 419.524 31.3571 419C31.3571 418.47 31.7353 418.116 32.2143 417.641C33.7232 416.467 35.3929 415.014 35.3929 412.206V411.941C35.3932 411.929 35.3932 411.918 35.3929 411.906L35.375 411.676L35.3571 411.429C35.358 411.412 35.358 411.394 35.3571 411.376L35.3214 411.147C35.3164 411.129 35.3104 411.111 35.3036 411.094L35.2679 410.935L35.25 410.882L35.2321 410.724C35.2271 410.706 35.2211 410.688 35.2143 410.671L35.1607 410.459C35.1557 410.441 35.1497 410.423 35.1429 410.406L35.0714 410.212L35 410.018L34.9286 409.824L34.8571 409.647C34.8521 409.629 34.8461 409.611 34.8393 409.594L34.75 409.418C34.7442 409.412 34.7382 409.406 34.7321 409.4L34.6429 409.241L34.5536 409.082C34.5481 409.07 34.5421 409.059 34.5357 409.047L34.4464 408.924L34.4286 408.888L34.3571 408.765C34.347 408.74 34.335 408.717 34.3214 408.694L34.2143 408.553L34.1071 408.429V408.412L34.0179 408.306C34.0065 408.294 33.9946 408.282 33.9821 408.271L33.875 408.147L33.7679 408.024C33.7623 408.012 33.7564 408 33.75 407.988L33.6964 407.935H34.5179C34.6118 407.935 34.7039 407.91 34.7857 407.865L37.0893 406.594C37.1962 406.535 37.2803 406.443 37.3285 406.332C37.3767 406.221 37.3862 406.097 37.3556 405.98C37.3249 405.863 37.2559 405.759 37.1592 405.685C37.0626 405.611 36.9438 405.571 36.8214 405.571H29.3929ZM42.2321 405.571C42.0947 405.584 41.9672 405.647 41.8747 405.748C41.7822 405.849 41.7313 405.981 41.7321 406.118V410.088H37.7143C37.6416 410.088 37.5695 410.102 37.5023 410.13C37.4351 410.157 37.374 410.197 37.3226 410.248C37.2712 410.299 37.2304 410.359 37.2026 410.426C37.1749 410.492 37.1606 410.563 37.1607 410.635V411.765C37.1606 411.837 37.1749 411.908 37.2026 411.974C37.2304 412.041 37.2712 412.101 37.3226 412.152C37.374 412.203 37.4351 412.243 37.5023 412.27C37.5695 412.298 37.6416 412.312 37.7143 412.312H41.7321V416.282C41.732 416.354 41.7463 416.425 41.7741 416.492C41.8018 416.558 41.8426 416.619 41.894 416.669C41.9455 416.72 42.0065 416.761 42.0737 416.788C42.141 416.815 42.213 416.83 42.2857 416.829H43.4286C43.5013 416.83 43.5733 416.815 43.6405 416.788C43.7078 416.761 43.7688 416.72 43.8202 416.669C43.8717 416.619 43.9124 416.558 43.9402 416.492C43.968 416.425 43.9823 416.354 43.9821 416.282V412.312H48C48.0727 412.312 48.1448 412.298 48.212 412.27C48.2792 412.243 48.3403 412.203 48.3917 412.152C48.4431 412.101 48.4839 412.041 48.5117 411.974C48.5394 411.908 48.5537 411.837 48.5536 411.765V410.635C48.5537 410.563 48.5394 410.492 48.5117 410.426C48.4839 410.359 48.4431 410.299 48.3917 410.248C48.3403 410.197 48.2792 410.157 48.212 410.13C48.1448 410.102 48.0727 410.088 48 410.088H43.9821V406.118C43.9823 406.046 43.968 405.975 43.9402 405.908C43.9124 405.842 43.8717 405.781 43.8202 405.731C43.7688 405.68 43.7078 405.639 43.6405 405.612C43.5733 405.585 43.5013 405.57 43.4286 405.571H42.2857C42.2679 405.57 42.25 405.57 42.2321 405.571ZM27.1429 407.829C28.3888 407.829 29.351 408.642 30.0536 409.859C30.7561 411.075 31.125 412.658 31.125 413.829V413.9V413.953C31.1128 413.999 31.1068 414.046 31.1071 414.094V414.165V414.235V414.253C31.0964 414.293 31.0904 414.335 31.0893 414.376C31.0892 414.382 31.0892 414.388 31.0893 414.394V414.412C31.0771 414.458 31.0711 414.505 31.0714 414.553V414.588V414.624L31.0536 414.659C31.0532 414.671 31.0532 414.682 31.0536 414.694L31.0357 414.782L31.0179 414.871L31 414.959L30.9643 415.047L30.9286 415.135C30.9202 415.164 30.9142 415.194 30.9107 415.224L30.8571 415.312C30.8427 415.34 30.8307 415.37 30.8214 415.4L30.7857 415.488L30.7321 415.576L30.6786 415.665L30.6607 415.7L30.625 415.753V415.771L30.5536 415.859C30.5345 415.875 30.5166 415.893 30.5 415.912V415.929L30.4821 415.947C30.4562 415.968 30.4323 415.992 30.4107 416.018L30.375 416.053C29.9217 416.5 29.0477 416.882 28.3214 416.882C27.0115 416.882 26.0719 416.071 25.3929 414.888C24.7138 413.705 24.375 412.179 24.375 411.094C24.375 410.244 24.5521 409.413 25.0536 408.8C25.5081 408.239 26.396 407.829 27.1429 407.829ZM28.8929 423.712H28.9286H28.9643H29H29.0357H29.0536H29.0893H29.1071H29.1429H29.1786H29.1964H29.25H29.3036H29.3393H29.3929C29.4048 423.712 29.4167 423.712 29.4286 423.712C29.4578 423.72 29.4877 423.726 29.5179 423.729C29.5228 423.733 29.5308 423.726 29.5357 423.729C30.8112 424.629 31.7502 425.342 32.3036 425.953C32.8807 426.59 33.1071 427.105 33.1071 427.894C33.1071 428.846 32.733 429.62 31.9643 430.206C31.1956 430.792 29.9974 431.176 28.3571 431.176C26.5193 431.176 25.0501 430.732 24.0714 430.047C23.0928 429.362 22.5893 428.469 22.5893 427.382C22.5893 426.283 23.0594 425.611 23.6429 425.124C24.2215 424.641 24.9091 424.383 25.3036 424.241C25.3089 424.239 25.316 424.243 25.3214 424.241C26.711 423.787 28.6466 423.712 28.8929 423.712Z" fill="black"/>
<path opacity="0.3" d="M29.3929 406.118C27.4499 406.118 25.0157 406.405 22.9643 408.076C21.4171 409.392 20.6607 411.205 20.6607 412.841C20.6607 415.615 22.8275 418.418 26.6429 418.418C27.0026 418.418 27.3899 418.381 27.7857 418.347C27.6051 418.774 27.4286 419.137 27.4286 419.741C27.4286 420.843 27.9958 421.518 28.5 422.159C26.8806 422.266 23.8554 422.449 21.625 423.8C19.4997 425.045 18.8571 426.861 18.8571 428.141C18.8571 430.774 21.3697 433.224 26.5893 433.224C32.7812 433.224 36.0714 429.844 36.0714 426.5C36.0714 424.046 34.619 422.839 33.0357 421.524L31.75 420.518C31.3542 420.197 30.8036 419.782 30.8036 419C30.8036 418.217 31.355 417.715 31.8214 417.253C33.3341 416.079 34.8393 414.838 34.8393 412.206V411.941L34.8214 411.712L34.8036 411.465L34.7679 411.235L34.7143 411.024L34.6786 410.812L34.625 410.6L34.5536 410.406L34.4821 410.212L34.4107 410.018L34.3393 409.841L34.25 409.665L34.1607 409.506L34.0714 409.347L33.9643 409.188L33.875 409.029L33.7679 408.888L33.6607 408.747L33.5714 408.624L33.4643 408.5L33.3571 408.376L33.25 408.271L33.1429 408.147L33.0357 408.041L32.9286 407.953L32.8214 407.865L32.7321 407.776L32.625 407.688L32.5357 407.6L32.4464 407.529L32.375 407.459L32.2857 407.388H34.5179L36.8214 406.118H29.3929ZM42.2857 406.118V410.635H37.7143V411.765H42.2857V416.282H43.4286V411.765H48V410.635H43.4286V406.118H42.2857ZM27.1429 407.282C30.1321 407.282 31.6786 411.269 31.6786 413.829V413.9V413.953V414.024L31.6607 414.094V414.165V414.235V414.324L31.6429 414.394V414.482L31.625 414.553V414.641L31.6071 414.729L31.5893 414.8L31.5714 414.888L31.5536 414.976L31.5357 415.065L31.5179 415.153L31.4821 415.241L31.4464 415.329L31.4286 415.418L31.3929 415.506L31.3393 415.594L31.3036 415.682L31.2679 415.771L31.2143 415.859L31.1607 415.947L31.1071 416.035L31.0536 416.106L30.9821 416.194L30.9286 416.282L30.8393 416.353L30.7679 416.441C30.1914 417.01 29.2215 417.429 28.3214 417.429C25.2255 417.429 23.8214 413.477 23.8214 411.094C23.8214 410.169 24.014 409.211 24.625 408.465C25.2015 407.753 26.2083 407.282 27.1429 407.282ZM28.8929 423.165H28.9286H28.9643H29H29.0357H29.0536H29.0893H29.1071H29.1429H29.1786H29.1964H29.25H29.3036H29.3393H29.3929H29.4286H29.4821H29.5357L29.5714 423.182H29.625H29.6786H29.6964L29.7321 423.2C32.4684 425.122 33.6607 426.079 33.6607 427.894C33.6607 430.1 31.8128 431.724 28.3571 431.724C24.5057 431.724 22.0357 429.908 22.0357 427.382C22.0357 424.856 24.3317 424.013 25.125 423.729C26.636 423.231 28.5693 423.165 28.8929 423.165Z" fill="black"/>
<path d="M29.3929 405.553C27.4499 405.553 25.0157 405.84 22.9643 407.512C21.4171 408.827 20.6607 410.641 20.6607 412.276C20.6607 415.05 22.8275 417.853 26.6429 417.853C27.0026 417.853 27.3899 417.817 27.7857 417.782C27.6051 418.209 27.4286 418.572 27.4286 419.176C27.4286 420.278 27.9958 420.954 28.5 421.594C26.8806 421.701 23.8554 421.884 21.625 423.235C19.4997 424.481 18.8571 426.296 18.8571 427.576C18.8571 430.209 21.3697 432.659 26.5893 432.659C32.7812 432.659 36.0714 429.279 36.0714 425.935C36.0714 423.481 34.619 422.274 33.0357 420.959L31.75 419.953C31.3542 419.632 30.8036 419.218 30.8036 418.435C30.8036 417.652 31.355 417.15 31.8214 416.688C33.3341 415.515 34.8393 414.274 34.8393 411.641V411.376L34.8214 411.147L34.8036 410.9L34.7679 410.671L34.7143 410.459L34.6786 410.247L34.625 410.035L34.5536 409.841L34.4821 409.647L34.4107 409.453L34.3393 409.276L34.25 409.1L34.1607 408.941L34.0714 408.782L33.9643 408.624L33.875 408.465L33.7679 408.324L33.6607 408.182L33.5714 408.059L33.4643 407.935L33.3571 407.812L33.25 407.706L33.1429 407.582L33.0357 407.476L32.9286 407.388L32.8214 407.3L32.7321 407.212L32.625 407.124L32.5357 407.035L32.4464 406.965L32.375 406.894L32.2857 406.824H34.5179L36.8214 405.553H29.3929ZM42.2857 405.553V410.071H37.7143V411.2H42.2857V415.718H43.4286V411.2H48V410.071H43.4286V405.553H42.2857ZM27.1429 406.718C30.1321 406.718 31.6786 410.704 31.6786 413.265V413.335V413.388V413.459L31.6607 413.529V413.6V413.671V413.759L31.6429 413.829V413.918L31.625 413.988V414.076L31.6071 414.165L31.5893 414.235L31.5714 414.324L31.5536 414.412L31.5357 414.5L31.5179 414.588L31.4821 414.676L31.4464 414.765L31.4286 414.853L31.3929 414.941L31.3393 415.029L31.3036 415.118L31.2679 415.206L31.2143 415.294L31.1607 415.382L31.1071 415.471L31.0536 415.541L30.9821 415.629L30.9286 415.718L30.8393 415.788L30.7679 415.876C30.1914 416.445 29.2215 416.865 28.3214 416.865C25.2255 416.865 23.8214 412.912 23.8214 410.529C23.8214 409.604 24.014 408.647 24.625 407.9C25.2015 407.188 26.2083 406.718 27.1429 406.718ZM28.8929 422.6H28.9286H28.9643H29H29.0357H29.0536H29.0893H29.1071H29.1429H29.1786H29.1964H29.25H29.3036H29.3393H29.3929H29.4286H29.4821H29.5357L29.5714 422.618H29.625H29.6786H29.6964L29.7321 422.635C32.4684 424.557 33.6607 425.514 33.6607 427.329C33.6607 429.535 31.8128 431.159 28.3571 431.159C24.5057 431.159 22.0357 429.343 22.0357 426.818C22.0357 424.291 24.3317 423.449 25.125 423.165C26.636 422.666 28.5693 422.6 28.8929 422.6Z" fill="white"/>
</g>
<g clip-path="url(#clip2_0_1)">
<g filter="url(#filter3_f_0_1)">
<path d="M23.777 311.974L14.224 311.935L13.7814 311.783C11.6729 311.059 9.97591 309.77 8.78774 307.991C7.7161 306.386 7.05398 304.519 7.14668 302.617L7.14665 302.114L8.13363 302.113C9.53702 302.113 47.4868 302.27 52.6729 302.298L56.99 302.321L56.9991 302.944C57.0438 306.007 55.5041 308.913 52.9448 310.595C52.0174 311.204 50.9489 311.654 49.8445 311.9L49.4716 311.983L41.2499 311.998C36.8122 312.007 28.9494 311.983 23.777 311.974Z" fill="black"/>
</g>
<g filter="url(#filter4_f_0_1)">
<path d="M7.14664 302.114V269.523C7.1682 266.273 11.9402 262.868 15.2684 262.935L49.9074 262.84C52.7728 263.69 55.8329 266.092 56.6924 268.722C56.9873 269.682 56.8985 284.489 56.8985 284.489L56.9899 302.321L7.14664 302.114Z" fill="black"/>
</g>
<path d="M7.00858 301.274V268.683C7.03013 265.433 11.8021 262.028 15.1303 262.096L49.7693 262C52.8915 262.02 55.6948 265.253 56.5543 267.882C56.8492 268.842 56.7604 283.65 56.7604 283.65L56.8519 301.481L7.00858 301.274Z" fill="url(#paint28_linear_0_1)"/>
<path d="M23.6389 311.135L14.086 311.096L13.6433 310.944C11.5349 310.22 9.83785 308.931 8.64968 307.151C7.57804 305.546 6.91592 303.68 7.00862 301.777L7.00859 301.274L7.99557 301.274C9.39896 301.274 47.3488 301.43 52.5349 301.458L56.8519 301.481L56.861 302.104C56.9058 305.168 55.366 308.073 52.8067 309.755C51.8794 310.365 50.8109 310.814 49.7065 311.06L49.3335 311.143L41.1118 311.159C36.6741 311.167 28.8113 311.144 23.6389 311.135Z" fill="url(#paint29_linear_0_1)"/>
<g opacity="0.42284" filter="url(#filter5_f_0_1)">
<path d="M39.9104 310.982H33.0633V292.507H28.3483V285.957H33.0633V281.493C33.0633 276.15 34.1059 272.973 40.0089 272.973H46.2169V279.524H42.369C40.0707 279.524 39.9194 280.439 39.9194 282.147L39.9097 285.957H46.2507L45.5996 292.507H39.9097L39.9104 310.982Z" fill="black"/>
</g>
<path d="M39.4178 311.374H31.9348V291.861H26.782V284.944H31.9348V280.23C31.9348 274.587 33.0742 271.232 39.5255 271.232H46.31V278.15H42.1048C39.593 278.15 39.4277 279.117 39.4277 280.921L39.417 284.944H46.347L45.6353 291.861H39.417L39.4178 311.374Z" fill="url(#paint30_linear_0_1)"/>
</g>
<defs>
<filter id="filter0_dd_0_1" x="1.13704" y="10.8265" width="62.0933" height="50.6029" filterUnits="userSpaceOnUse" color-interpolation-filters="sRGB">
<feFlood flood-opacity="0" result="BackgroundImageFix"/>
<feColorMatrix in="SourceAlpha" type="matrix" values="0 0 0 0 0 0 0 0 0 0 0 0 0 0 0 0 0 0 127 0" result="hardAlpha"/>
<feOffset dy="1"/>
<feGaussianBlur stdDeviation="1.5"/>
<feColorMatrix type="matrix" values="0 0 0 0 0 0 0 0 0 0 0 0 0 0 0 0 0 0 0.25 0"/>
<feBlend mode="normal" in2="BackgroundImageFix" result="effect1_dropShadow_0_1"/>
<feColorMatrix in="SourceAlpha" type="matrix" values="0 0 0 0 0 0 0 0 0 0 0 0 0 0 0 0 0 0 127 0" result="hardAlpha"/>
<feMorphology radius="3" operator="dilate" in="SourceAlpha" result="effect2_dropShadow_0_1"/>
<feOffset dy="4"/>
<feGaussianBlur stdDeviation="4"/>
<feColorMatrix type="matrix" values="0 0 0 0 0 0 0 0 0 0 0 0 0 0 0 0 0 0 0.12 0"/>
<feBlend mode="normal" in2="effect1_dropShadow_0_1" result="effect2_dropShadow_0_1"/>
<feBlend mode="normal" in="SourceGraphic" in2="effect2_dropShadow_0_1" result="shape"/>
</filter>
<filter id="filter1_i_0_1" x="22.2976" y="30.5284" width="7.02017" height="9.52704" filterUnits="userSpaceOnUse" color-interpolation-filters="sRGB">
<feFlood flood-opacity="0" result="BackgroundImageFix"/>
<feBlend mode="normal" in="SourceGraphic" in2="BackgroundImageFix" result="shape"/>
<feColorMatrix in="SourceAlpha" type="matrix" values="0 0 0 0 0 0 0 0 0 0 0 0 0 0 0 0 0 0 127 0" result="hardAlpha"/>
<feOffset dy="2"/>
<feGaussianBlur stdDeviation="1.25"/>
<feComposite in2="hardAlpha" operator="arithmetic" k2="-1" k3="1"/>
<feColorMatrix type="matrix" values="0 0 0 0 0 0 0 0 0 0 0 0 0 0 0 0 0 0 0.2 0"/>
<feBlend mode="normal" in2="shape" result="effect1_innerShadow_0_1"/>
</filter>
<filter id="filter2_i_0_1" x="34.7974" y="30.5284" width="7.02016" height="9.52704" filterUnits="userSpaceOnUse" color-interpolation-filters="sRGB">
<feFlood flood-opacity="0" result="BackgroundImageFix"/>
<feBlend mode="normal" in="SourceGraphic" in2="BackgroundImageFix" result="shape"/>
<feColorMatrix in="SourceAlpha" type="matrix" values="0 0 0 0 0 0 0 0 0 0 0 0 0 0 0 0 0 0 127 0" result="hardAlpha"/>
<feOffset dy="2"/>
<feGaussianBlur stdDeviation="1.25"/>
<feComposite in2="hardAlpha" operator="arithmetic" k2="-1" k3="1"/>
<feColorMatrix type="matrix" values="0 0 0 0 0 0 0 0 0 0 0 0 0 0 0 0 0 0 0.2 0"/>
<feBlend mode="normal" in2="shape" result="effect1_innerShadow_0_1"/>
</filter>
<filter id="filter3_f_0_1" x="3.8998" y="298.875" width="56.3385" height="16.3631" filterUnits="userSpaceOnUse" color-interpolation-filters="sRGB">
<feFlood flood-opacity="0" result="BackgroundImageFix"/>
<feBlend mode="normal" in="SourceGraphic" in2="BackgroundImageFix" result="shape"/>
<feGaussianBlur stdDeviation="1.61913" result="effect1_foregroundBlur_0_1"/>
</filter>
<filter id="filter4_f_0_1" x="3.90838" y="259.601" width="56.3198" height="45.9578" filterUnits="userSpaceOnUse" color-interpolation-filters="sRGB">
<feFlood flood-opacity="0" result="BackgroundImageFix"/>
<feBlend mode="normal" in="SourceGraphic" in2="BackgroundImageFix" result="shape"/>
<feGaussianBlur stdDeviation="1.61913" result="effect1_foregroundBlur_0_1"/>
</filter>
<filter id="filter5_f_0_1" x="22.8687" y="267.493" width="28.8616" height="48.9681" filterUnits="userSpaceOnUse" color-interpolation-filters="sRGB">
<feFlood flood-opacity="0" result="BackgroundImageFix"/>
<feBlend mode="normal" in="SourceGraphic" in2="BackgroundImageFix" result="shape"/>
<feGaussianBlur stdDeviation="2.7398" result="effect1_foregroundBlur_0_1"/>
</filter>
<linearGradient id="paint0_linear_0_1" x1="32" y1="2" x2="32" y2="62" gradientUnits="userSpaceOnUse">
<stop stop-color="#7491D4"/>
<stop offset="1" stop-color="#4E679F"/>
</linearGradient>
<linearGradient id="paint1_linear_0_1" x1="20.1953" y1="418.847" x2="49.5766" y2="429.28" gradientUnits="userSpaceOnUse">
<stop stop-color="#3E2723" stop-opacity="0.2"/>
<stop offset="1" stop-color="#3E2723" stop-opacity="0.02"/>
</linearGradient>
<radialGradient id="paint2_radial_0_1" cx="0" cy="0" r="1" gradientUnits="userSpaceOnUse" gradientTransform="translate(19.1927 398.717) scale(43.9043 43.9043)">
<stop stop-color="white" stop-opacity="0.1"/>
<stop offset="1" stop-color="white" stop-opacity="0"/>
</radialGradient>
<linearGradient id="paint3_linear_0_1" x1="25.8077" y1="30.5284" x2="25.8077" y2="38.0555" gradientUnits="userSpaceOnUse">
<stop stop-color="#7390D3"/>
<stop offset="1" stop-color="#4E679F"/>
</linearGradient>
<linearGradient id="paint4_linear_0_1" x1="38.3075" y1="30.5284" x2="38.3075" y2="38.0555" gradientUnits="userSpaceOnUse">
<stop stop-color="#7390D3"/>
<stop offset="1" stop-color="#4E679F"/>
</linearGradient>
<linearGradient id="paint5_linear_0_1" x1="2456.04" y1="78" x2="2456.04" y2="3579.06" gradientUnits="userSpaceOnUse">
<stop stop-color="#E52D27"/>
<stop offset="0.035"/>
<stop offset="1"/>
</linearGradient>
<linearGradient id="paint6_linear_0_1" x1="26.443" y1="25.494" x2="26.443" y2="31.6928" gradientUnits="userSpaceOnUse">
<stop stop-color="#7390D3"/>
<stop offset="1" stop-color="#4E679F"/>
</linearGradient>
<linearGradient id="paint7_linear_0_1" x1="36.6511" y1="25.494" x2="36.6511" y2="31.6928" gradientUnits="userSpaceOnUse">
<stop stop-color="#7390D3"/>
<stop offset="1" stop-color="#4E679F"/>
</linearGradient>
<linearGradient id="paint8_linear_0_1" x1="31.5" y1="2" x2="31.5" y2="58" gradientUnits="userSpaceOnUse">
<stop stop-color="#7491D4"/>
<stop offset="1" stop-color="#4E679F"/>
</linearGradient>
<radialGradient id="paint9_radial_0_1" cx="0" cy="0" r="1" gradientUnits="userSpaceOnUse" gradientTransform="translate(24.5985 534.391) scale(29.94 30.2459)">
<stop stop-color="#C0DA74"/>
<stop offset="0.1319" stop-color="#C0DA74"/>
<stop offset="1" stop-color="#5BA147"/>
</radialGradient>
<linearGradient id="paint10_linear_0_1" x1="25.0844" y1="523.862" x2="25.0844" y2="558.989" gradientUnits="userSpaceOnUse">
<stop stop-color="#778B49"/>
<stop offset="0.0165" stop-color="#778B49"/>
<stop offset="1" stop-color="#2B5F25"/>
</linearGradient>
<radialGradient id="paint11_radial_0_1" cx="0" cy="0" r="1" gradientUnits="userSpaceOnUse" gradientTransform="translate(40.2101 545.411) scale(18.0018 18.1857)">
<stop stop-color="white"/>
<stop offset="1" stop-color="#DADCDD"/>
</radialGradient>
<linearGradient id="paint12_linear_0_1" x1="41.7877" y1="538.184" x2="41.7877" y2="563.449" gradientUnits="userSpaceOnUse">
<stop stop-color="#9D9FA2"/>
<stop offset="1" stop-color="#626567"/>
</linearGradient>
<radialGradient id="paint13_radial_0_1" cx="0" cy="0" r="1" gradientUnits="userSpaceOnUse" gradientTransform="translate(40.2163 545.414) scale(18.0407 18.225)">
<stop stop-color="#F6F5F5"/>
<stop offset="1" stop-color="#E5E5E5"/>
</radialGradient>
<radialGradient id="paint14_radial_0_1" cx="0" cy="0" r="1" gradientUnits="userSpaceOnUse" gradientTransform="translate(40.2203 545.414) scale(17.996 18.1799)">
<stop stop-color="#F6F5F5"/>
<stop offset="1" stop-color="#E5E5E5"/>
</radialGradient>
<radialGradient id="paint15_radial_0_1" cx="0" cy="0" r="1" gradientUnits="userSpaceOnUse" gradientTransform="translate(24.5925 534.418) scale(29.9827 30.2891)">
<stop stop-color="#D8E3B1"/>
<stop offset="0.1319" stop-color="#D8E3B1"/>
<stop offset="1" stop-color="#A5C293"/>
</radialGradient>
<radialGradient id="paint16_radial_0_1" cx="0" cy="0" r="1" gradientUnits="userSpaceOnUse" gradientTransform="translate(24.6033 534.418) scale(30.0434 30.3504)">
<stop stop-color="#D8E3B1"/>
<stop offset="0.1319" stop-color="#D8E3B1"/>
<stop offset="1" stop-color="#A5C293"/>
</radialGradient>
<linearGradient id="paint17_linear_0_1" x1="37.2281" y1="547.871" x2="37.2281" y2="544.705" gradientUnits="userSpaceOnUse">
<stop stop-color="#424243"/>
<stop offset="1" stop-color="#231F20"/>
</linearGradient>
<linearGradient id="paint18_linear_0_1" x1="47.0916" y1="547.871" x2="47.0916" y2="544.705" gradientUnits="userSpaceOnUse">
<stop stop-color="#424243"/>
<stop offset="1" stop-color="#231F20"/>
</linearGradient>
<linearGradient id="paint19_linear_0_1" x1="31.177" y1="535.375" x2="31.177" y2="532.328" gradientUnits="userSpaceOnUse">
<stop stop-color="#424243"/>
<stop offset="1" stop-color="#231F20"/>
</linearGradient>
<linearGradient id="paint20_linear_0_1" x1="18.8937" y1="535.375" x2="18.8937" y2="532.328" gradientUnits="userSpaceOnUse">
<stop stop-color="#424243"/>
<stop offset="1" stop-color="#231F20"/>
</linearGradient>
<linearGradient id="paint21_linear_0_1" x1="23.0006" y1="439.926" x2="23.0006" y2="392.43" gradientUnits="userSpaceOnUse">
<stop/>
<stop offset="1" stop-opacity="0.588235"/>
</linearGradient>
<linearGradient id="paint22_linear_0_1" x1="32" y1="439.435" x2="32" y2="391.993" gradientUnits="userSpaceOnUse">
<stop stop-color="#1A1818"/>
<stop offset="1" stop-color="#403D3D"/>
</linearGradient>
<linearGradient id="paint23_linear_0_1" x1="25.3469" y1="392" x2="25.3469" y2="424.693" gradientUnits="userSpaceOnUse">
<stop stop-color="white"/>
<stop offset="1" stop-color="white" stop-opacity="0"/>
</linearGradient>
<radialGradient id="paint24_radial_0_1" cx="0" cy="0" r="1" gradientUnits="userSpaceOnUse" gradientTransform="translate(32 439.435) scale(27.7755 23.6206)">
<stop stop-color="white"/>
<stop offset="1" stop-color="white" stop-opacity="0"/>
</radialGradient>
<linearGradient id="paint25_linear_0_1" x1="22.2857" y1="397.647" x2="22.2857" y2="399.341" gradientUnits="userSpaceOnUse">
<stop/>
<stop offset="1" stop-opacity="0"/>
</linearGradient>
<linearGradient id="paint26_linear_0_1" x1="27.4286" y1="392" x2="27.4286" y2="396.518" gradientUnits="userSpaceOnUse">
<stop stop-color="white"/>
<stop offset="1" stop-color="white" stop-opacity="0"/>
</linearGradient>
<linearGradient id="paint27_linear_0_1" x1="25.3469" y1="392" x2="25.3469" y2="424.693" gradientUnits="userSpaceOnUse">
<stop stop-color="white"/>
<stop offset="1" stop-color="white" stop-opacity="0"/>
</linearGradient>
<linearGradient id="paint28_linear_0_1" x1="33.8806" y1="297.613" x2="34.0634" y2="264.346" gradientUnits="userSpaceOnUse">
<stop stop-color="#2A477F"/>
<stop offset="1" stop-color="#5E81CA"/>
</linearGradient>
<linearGradient id="paint29_linear_0_1" x1="31.7146" y1="310.401" x2="31.6981" y2="301.682" gradientUnits="userSpaceOnUse">
<stop stop-color="#3E578D"/>
<stop offset="1" stop-color="#506BA3"/>
</linearGradient>
<linearGradient id="paint30_linear_0_1" x1="36.0259" y1="311.361" x2="35.9483" y2="277.824" gradientUnits="userSpaceOnUse">
<stop stop-color="#CAD4EA"/>
<stop offset="1" stop-color="#FCFEFE"/>
</linearGradient>
<clipPath id="clip0_0_1">
<rect width="49" height="35" fill="white" transform="translate(7 78)"/>
</clipPath>
<clipPath id="clip1_0_1">
<rect width="48" height="48" fill="white" transform="translate(8 392)"/>
</clipPath>
<clipPath id="clip2_0_1">
<rect width="54" height="57" fill="white" transform="translate(5 259)"/>
</clipPath>
</defs>
</svg>
