<svg width="57" height="630" viewBox="0 0 57 630" fill="none" xmlns="http://www.w3.org/2000/svg">
<g clip-path="url(#clip0_0_1)">
<path d="M22.4469 99.9555L35.6922 92.9944L22.4469 85.975V99.9555Z" fill="white"/>
<path opacity="0.12" d="M22.4469 85.975L34.0652 93.85L35.6922 92.9944L22.4469 85.975Z" fill="#920000"/>
<path d="M51.4834 83.5444C51.4834 83.5444 51.0051 80.1222 49.5318 78.6056C47.6759 76.6222 45.5904 76.6222 44.6146 76.5056C37.7841 76 27.5096 76 27.5096 76H27.4904C27.4904 76 17.2159 76 10.3471 76.5056C9.39047 76.6222 7.30496 76.6222 5.42991 78.6056C3.97579 80.1222 3.49746 83.5444 3.49746 83.5444C3.49746 83.5444 3 87.5889 3 91.6139V95.3861C3 99.4111 3.49746 103.436 3.49746 103.436C3.49746 103.436 3.97579 106.858 5.44904 108.375C7.30496 110.358 9.754 110.3 10.8446 110.494C14.7669 110.883 27.4904 111 27.4904 111C27.4904 111 37.7841 110.981 44.6337 110.475C45.5904 110.358 47.6759 110.358 49.551 108.375C51.0242 106.858 51.5025 103.436 51.5025 103.436C51.5025 103.436 52 99.4111 52 95.3861V91.6139C51.9809 87.5889 51.4834 83.5444 51.4834 83.5444ZM22.4393 99.9556V85.975L35.6794 92.9944L22.4393 99.9556Z" fill="url(#paint0_linear_0_1)"/>
</g>
<path d="M35.4664 36.5889C35.4664 36.5889 34.4505 35.3518 33.6133 34.2906C37.2913 33.259 38.6715 30.9629 38.6715 30.9629C37.514 31.7214 36.449 32.2687 35.4666 32.6436C34.0696 33.2239 32.7034 33.618 31.3912 33.8604C28.7117 34.3586 26.2325 34.2376 24.1216 33.8451C22.5298 33.548 21.1368 33.0941 20.0061 32.6371C19.3637 32.391 18.6723 32.0716 17.9469 31.6709C17.855 31.6209 17.7676 31.5732 17.6869 31.5271C17.6445 31.5034 17.6042 31.4818 17.5637 31.4569C17.0643 31.1701 16.8186 30.9628 16.8186 30.9628C16.8186 30.9628 18.1588 33.1945 21.7203 34.2479C20.8763 35.3181 19.8342 36.5889 19.8342 36.5889C13.6484 36.3991 11.2786 32.3126 11.2786 32.3126C11.2786 23.3009 15.3099 15.9789 15.3099 15.9789C19.344 12.9434 23.1727 13.0339 23.1727 13.0339L23.4727 13.3932C18.42 14.8426 16.1287 17.0671 16.1287 17.0671C16.1287 17.0671 16.7057 16.6992 17.7663 16.2476C20.7732 14.9268 23.1486 14.5665 24.1289 14.4717C24.2858 14.4492 24.4408 14.4252 24.5999 14.4048C26.3213 14.187 28.2415 14.1259 30.272 14.354C32.9315 14.6541 35.8064 15.4574 38.7187 17.0491C38.7187 17.0491 36.4996 14.9634 31.7223 13.5141L32.1254 13.0339C32.1254 13.0339 35.956 12.9434 39.9879 15.9789C39.9879 15.9789 44.0214 23.3009 44.0214 32.3126C44.0214 32.3126 41.6518 36.3991 35.4664 36.5889Z" fill="white"/>
<path d="M25.3095 26.593C25.3095 28.3053 24.0268 29.6928 22.4441 29.6928C20.8591 29.6928 19.5764 28.3053 19.5764 26.593C19.5764 24.8817 20.8591 23.494 22.4441 23.494C24.0268 23.494 25.3095 24.8817 25.3095 26.593Z" fill="url(#paint1_linear_0_1)"/>
<path d="M35.5177 26.593C35.5177 28.3053 34.235 29.6928 32.65 29.6928C31.0673 29.6928 29.7846 28.3053 29.7846 26.593C29.7846 24.8817 31.0673 23.494 32.65 23.494C34.235 23.494 35.5177 24.8817 35.5177 26.593Z" fill="url(#paint2_linear_0_1)"/>
<path d="M52 5.77978V40.827V43.6377V56L45.9622 50.7123L42.5852 47.573L39.0079 44.2462L40.4933 49.4175H8.73096C5.56545 49.4175 3 46.8302 3 43.6377V5.77979C3 2.58731 5.56544 0 8.73096 0H46.269C49.4345 0 52 2.58731 52 5.77978ZM44.0069 32.306C44.0069 23.2943 39.9749 15.9882 39.9749 15.9882C35.943 12.9527 32.1197 13.0488 32.1197 13.0488L31.7278 13.4991C36.505 14.9484 38.7057 17.0583 38.7057 17.0583C35.7934 15.4666 32.9276 14.6696 30.2681 14.3695C28.2376 14.1414 26.3259 14.2023 24.6044 14.4201C24.4453 14.4405 24.291 14.4643 24.134 14.4868C23.1538 14.5816 20.7853 14.9373 17.7784 16.2581C16.7178 16.7096 16.1155 17.0583 16.1155 17.0583C16.1155 17.0583 18.4146 14.8276 23.4672 13.3783L23.1784 13.0488C23.1784 13.0488 19.357 12.9527 15.3229 15.9882C15.3229 15.9882 11.2931 23.2943 11.2931 32.306C11.2931 32.306 13.6573 36.3858 19.8431 36.5756C19.8431 36.5756 20.8678 35.3316 21.7119 34.2614C18.1504 33.208 16.8047 30.9707 16.8047 30.9707C16.8047 30.9707 17.0777 31.1613 17.5771 31.4482C17.6176 31.473 17.6578 31.4945 17.7002 31.5182C17.7809 31.5643 17.8681 31.6117 17.96 31.6617C18.6853 32.0625 19.3748 32.3796 20.0173 32.6257C21.1479 33.0827 22.5357 33.5332 24.1275 33.8303C26.2383 34.2227 28.7056 34.3438 31.3851 33.8457C32.6973 33.6032 34.0583 33.2127 35.4553 32.6323C36.4378 32.2574 37.528 31.7292 38.6854 30.9707C38.6854 30.9707 37.2998 33.2725 33.6218 34.3041C34.459 35.3653 35.4575 36.5756 35.4575 36.5756C41.643 36.3858 44.0069 32.306 44.0069 32.306Z" fill="url(#paint3_linear_0_1)"/>
<path d="M38.8443 601.978C38.8443 603.67 38.9055 605.351 38.824 607.043C38.7425 608.967 39.3335 610.618 40.5562 612.077C40.6989 612.249 40.8314 612.421 40.9536 612.604C41.3919 613.262 41.3103 613.718 40.7091 614.224C39.4251 615.298 38.1513 616.382 36.8675 617.455C36.1032 618.094 35.6243 618.084 34.8499 617.455C33.8105 616.615 32.9953 615.582 32.2718 614.477C32.0986 614.214 32.0069 614.224 31.7929 614.427C30.5089 615.673 29.1536 616.827 27.4316 617.405C24.772 618.306 22.0716 618.448 19.4018 617.506C16.8339 616.594 15.2952 614.71 14.7246 612.087C14.0928 609.16 14.4189 606.374 16.2326 603.892C17.6083 602.018 19.5138 600.914 21.7047 600.236C23.9669 599.547 26.3003 599.284 28.644 599.051C29.3064 598.98 29.9586 598.919 30.6209 598.858C30.7839 598.848 30.9266 598.828 30.9164 598.615C30.8961 597.541 31.0081 596.447 30.7534 595.394C30.4273 594.047 29.5407 593.257 28.1855 592.963C27.2174 592.75 26.2596 592.811 25.3221 593.125C23.8955 593.611 23.0089 594.594 22.6523 596.052C22.4587 596.852 22.0816 597.136 21.297 597.055C19.6258 596.883 17.9547 596.711 16.2938 596.538C15.611 596.467 15.2544 595.951 15.397 595.292C16.2632 591.089 19.0349 588.729 23.0294 587.645C26.0966 586.814 29.2045 586.764 32.2819 587.625C34.7581 588.313 36.8369 589.529 37.9985 591.94C38.6609 593.307 38.8137 594.786 38.8341 596.265C38.8545 598.159 38.8341 600.074 38.8443 601.978ZM30.9164 605.138C30.9164 604.632 30.8961 604.125 30.9267 603.619C30.947 603.305 30.8349 603.193 30.5191 603.224C29.7446 603.295 28.96 603.305 28.1855 603.406C26.8303 603.578 25.5055 603.913 24.405 604.763C22.8052 606.009 22.4689 607.711 22.7338 609.625C23.0497 611.874 25.0674 613.12 27.2277 612.37C28.695 611.864 29.5917 610.79 30.2133 609.443C30.8655 608.076 30.9164 606.607 30.9164 605.138Z" fill="#ECECEC"/>
<path d="M27.1461 628C19.3711 627.949 12.3909 625.964 6.08329 621.781C4.79934 620.93 3.57652 619.998 2.4149 618.975C2.31303 618.884 2.21107 618.793 2.12957 618.681C2.01747 618.529 1.93597 618.347 2.06845 618.165C2.20093 617.962 2.42513 617.942 2.61874 618.033C3.06706 618.246 3.4951 618.478 3.9332 618.701C7.94814 620.808 12.177 622.328 16.6096 623.29C20.6245 624.161 24.6801 624.566 28.7969 624.455C34.6766 624.293 40.3422 623.118 45.7938 620.94C46.0588 620.828 46.334 620.717 46.6091 620.656C46.9964 620.585 47.3836 620.636 47.5568 621.051C47.7198 621.436 47.5058 621.74 47.2205 621.983C47.0167 622.155 46.7823 622.297 46.548 622.449C43.0324 624.718 39.1806 626.177 35.1046 627.078C32.4144 627.686 29.6835 627.98 27.1461 628Z" fill="#F6A61F"/>
<path d="M46.7619 618.975C45.5901 618.965 44.4285 619.117 43.2668 619.238C43.0426 619.258 42.7878 619.319 42.686 619.076C42.5637 618.803 42.7981 618.641 42.9917 618.509C44.4387 617.557 46.0589 617.182 47.7606 617.091C48.9325 617.02 50.0941 617.071 51.2354 617.415C51.7551 617.567 52.0098 617.871 51.9997 618.398C51.9386 621.213 50.9908 623.665 48.9427 625.66C48.8714 625.731 48.7899 625.792 48.7084 625.853C48.525 625.985 48.3008 626.106 48.1071 625.944C47.9237 625.792 48.0256 625.569 48.1071 625.387C48.7084 623.898 49.3198 622.419 49.6152 620.829C49.656 620.626 49.6661 620.423 49.6764 620.231C49.6865 619.573 49.4522 619.289 48.8 619.127C48.1172 618.944 47.4345 618.975 46.7619 618.975Z" fill="#F6A61F"/>
<path d="M39.4858 538.326C39.4858 546.835 31.3178 553.732 21.2424 553.732C11.1664 553.732 3 546.835 3 538.326C3 529.818 11.1664 522.924 21.2424 522.924C31.3178 522.924 39.4858 529.818 39.4858 538.326Z" fill="#58595B"/>
<path d="M8.62801 555.785L10.9889 549.22L16.3136 551.814" fill="#58595B"/>
<path d="M22.7358 549.52C22.7358 556.577 29.5099 562.298 37.8695 562.298C46.2266 562.298 53 556.577 53 549.52C53 542.463 46.2266 536.743 37.8695 536.743C29.5099 536.743 22.7358 542.463 22.7358 549.52Z" fill="#58595B"/>
<path d="M48.332 564L46.374 558.554L41.9582 560.707" fill="#58595B"/>
<mask id="mask0_0_1" style="mask-type:luminance" maskUnits="userSpaceOnUse" x="3" y="522" width="36" height="33">
<path d="M12.3924 532.416C12.3924 531.021 13.5119 529.889 14.8944 529.889C16.2772 529.889 17.399 531.021 17.399 532.416C17.399 533.813 16.2772 534.946 14.8944 534.946C13.5119 534.946 12.3924 533.813 12.3924 532.416ZM24.676 532.416C24.676 531.021 25.7966 529.889 27.179 529.889C28.5609 529.889 29.681 531.021 29.681 532.416C29.681 533.813 28.5609 534.946 27.179 534.946C25.7966 534.946 24.676 533.813 24.676 532.416ZM3.4739 534.825C3.3012 535.677 3.2117 536.551 3.2117 537.445C3.2117 542.409 5.96651 546.82 10.2322 549.621L9.96356 550.436L8.47321 554.951L13.4483 552.26L14.4957 551.693C16.5338 552.387 18.7546 552.772 21.0822 552.772C21.7995 552.772 22.5046 552.737 23.1982 552.666C23.3104 552.656 23.4225 552.644 23.5337 552.631C23.0676 551.39 22.8164 550.07 22.8164 548.698C22.8164 541.615 29.5204 535.873 37.7931 535.873C38.1534 535.873 38.5099 535.885 38.8649 535.905C38.6642 534.193 38.1371 532.564 37.3344 531.065C34.5134 525.786 28.2975 522.121 21.0822 522.121C12.2565 522.121 4.9226 527.61 3.4739 534.825Z" fill="white"/>
</mask>
<g mask="url(#mask0_0_1)">
<path d="M38.8648 522.121H3.21155V554.95H38.8648V522.121Z" fill="url(#paint4_radial_0_1)"/>
</g>
<mask id="mask1_0_1" style="mask-type:luminance" maskUnits="userSpaceOnUse" x="3" y="522" width="37" height="34">
<path d="M10.3443 549.659C10.3606 549.607 10.3411 549.551 10.2969 549.521C6.0581 546.737 3.3317 542.363 3.3317 537.446C3.3328 533.254 5.3129 529.455 8.52371 526.7C11.7356 523.946 16.1757 522.239 21.0833 522.239C25.9915 522.239 30.432 523.946 33.6428 526.7C36.8546 529.455 38.8358 533.254 38.8358 537.446C38.8358 541.641 36.8546 545.438 33.6428 548.193C30.432 550.948 25.9915 552.653 21.0833 552.653C18.7698 552.653 16.5595 552.27 14.533 551.58C14.502 551.57 14.4684 551.572 14.4394 551.588L8.67911 554.703L10.3443 549.659ZM8.37056 526.518C5.1154 529.311 3.09525 533.175 3.09525 537.446C3.09525 542.427 5.84265 546.849 10.0911 549.671L8.36106 554.912C8.34566 554.959 8.36001 555.01 8.39631 555.042C8.41896 555.06 8.44581 555.069 8.47321 555.069L8.52901 555.055L14.5063 551.823C16.5438 552.512 18.7624 552.893 21.0834 552.893C26.0457 552.893 30.5401 551.168 33.7972 548.376C37.0517 545.582 39.0718 541.718 39.0707 537.446C39.0718 533.175 37.0517 529.311 33.7972 526.518C30.54 523.725 26.0457 522 21.0833 522C16.1219 522 11.6277 523.725 8.37056 526.518Z" fill="white"/>
</mask>
<g mask="url(#mask1_0_1)">
<path d="M39.0718 522H3.09525V555.069H39.0718V522Z" fill="url(#paint5_linear_0_1)"/>
</g>
<mask id="mask2_0_1" style="mask-type:luminance" maskUnits="userSpaceOnUse" x="22" y="535" width="31" height="29">
<path d="M31.2267 544.933C31.2267 543.815 32.1229 542.908 33.2283 542.908C34.3364 542.908 35.2327 543.815 35.2327 544.933C35.2327 546.052 34.3364 546.958 33.2283 546.958C32.1229 546.958 31.2267 546.052 31.2267 544.933ZM41.0888 544.933C41.0888 543.815 41.9861 542.908 43.0936 542.908C44.198 542.908 45.0954 543.815 45.0954 544.933C45.0954 546.052 44.198 546.958 43.0936 546.958C41.9862 546.958 41.0888 546.052 41.0888 544.933ZM22.8164 548.698C22.8164 550.07 23.0676 551.39 23.5337 552.631C25.4716 557.789 31.1234 561.523 37.7931 561.523C39.8085 561.523 41.7297 561.179 43.4876 560.559L44.3918 561.053L48.3752 563.228L47.2229 559.565L46.986 558.816C50.5039 556.471 52.7683 552.812 52.7683 548.698C52.7683 547.842 52.6705 547.005 52.4839 546.197C51.2168 540.714 45.8705 536.488 39.2672 535.934C39.1334 535.925 38.9986 535.914 38.8649 535.905C38.5099 535.884 38.1534 535.873 37.7931 535.873C29.5204 535.873 22.8164 541.615 22.8164 548.698Z" fill="white"/>
</mask>
<g mask="url(#mask2_0_1)">
<path d="M52.7684 535.873H22.8164V563.228H52.7684V535.873Z" fill="url(#paint6_radial_0_1)"/>
</g>
<mask id="mask3_0_1" style="mask-type:luminance" maskUnits="userSpaceOnUse" x="22" y="535" width="31" height="29">
<path d="M27.2796 557.675C24.5907 555.373 22.9349 552.201 22.9349 548.698C22.9349 545.196 24.5907 542.023 27.2796 539.72C29.9659 537.42 33.6828 535.992 37.7916 535.992C41.8998 535.992 45.6189 537.42 48.3056 539.72C50.9916 542.023 52.6493 545.196 52.6493 548.698C52.6493 552.766 50.4112 556.388 46.9217 558.717C46.8764 558.746 46.8564 558.802 46.8732 558.853L48.1729 562.984L43.5433 560.455L43.4876 560.44L43.4475 560.447C41.7049 561.061 39.7959 561.403 37.7916 561.403C33.6828 561.403 29.9659 559.977 27.2796 557.675ZM27.1263 539.538C24.3931 541.878 22.6968 545.117 22.6979 548.698C22.6968 552.279 24.3931 555.518 27.1263 557.858C29.858 560.197 33.6296 561.642 37.7916 561.642C39.8032 561.642 41.7208 561.303 43.4765 560.69L48.3184 563.334L48.3741 563.35C48.4015 563.35 48.4279 563.339 48.4499 563.322C48.4869 563.29 48.5017 563.239 48.4869 563.193L47.1261 558.867C50.6282 556.501 52.8863 552.829 52.8863 548.698C52.8863 545.117 51.1916 541.878 48.4574 539.538C45.7252 537.198 41.9551 535.755 37.7916 535.753C33.6296 535.755 29.858 537.198 27.1263 539.538Z" fill="white"/>
</mask>
<g mask="url(#mask3_0_1)">
<path d="M52.8862 535.753H22.6967V563.35H52.8862V535.753Z" fill="url(#paint7_linear_0_1)"/>
</g>
<mask id="mask4_0_1" style="mask-type:luminance" maskUnits="userSpaceOnUse" x="31" y="542" width="5" height="5">
<path d="M31.2267 544.933C31.2267 546.052 32.1229 546.958 33.2283 546.958C34.3364 546.958 35.2327 546.052 35.2327 544.933C35.2327 543.815 34.3364 542.908 33.2283 542.908C32.1229 542.908 31.2267 543.815 31.2267 544.933Z" fill="white"/>
</mask>
<g mask="url(#mask4_0_1)">
<path d="M35.2327 542.908H31.2267V546.958H35.2327V542.908Z" fill="url(#paint8_radial_0_1)"/>
</g>
<mask id="mask5_0_1" style="mask-type:luminance" maskUnits="userSpaceOnUse" x="41" y="542" width="5" height="5">
<path d="M41.0888 544.933C41.0888 546.052 41.9861 546.958 43.0936 546.958C44.198 546.958 45.0954 546.052 45.0954 544.933C45.0954 543.815 44.198 542.908 43.0936 542.908C41.9862 542.908 41.0888 543.815 41.0888 544.933Z" fill="white"/>
</mask>
<g mask="url(#mask5_0_1)">
<path d="M45.0954 542.908H41.0888V546.958H45.0954V542.908Z" fill="url(#paint9_radial_0_1)"/>
</g>
<mask id="mask6_0_1" style="mask-type:luminance" maskUnits="userSpaceOnUse" x="24" y="529" width="6" height="6">
<path d="M24.676 532.416C24.676 533.813 25.7966 534.946 27.179 534.946C28.5609 534.946 29.681 533.813 29.681 532.416C29.681 531.021 28.5609 529.889 27.179 529.889C25.7966 529.889 24.676 531.021 24.676 532.416Z" fill="white"/>
</mask>
<g mask="url(#mask6_0_1)">
<path d="M29.681 529.888H24.676V534.946H29.681V529.888Z" fill="url(#paint10_radial_0_1)"/>
</g>
<mask id="mask7_0_1" style="mask-type:luminance" maskUnits="userSpaceOnUse" x="12" y="529" width="6" height="6">
<path d="M12.3924 532.416C12.3924 533.813 13.5119 534.946 14.8944 534.946C16.2772 534.946 17.399 533.813 17.399 532.416C17.399 531.021 16.2772 529.889 14.8944 529.889C13.5119 529.889 12.3924 531.021 12.3924 532.416Z" fill="white"/>
</mask>
<g mask="url(#mask7_0_1)">
<path d="M17.399 529.888H12.3924V534.946H17.399V529.888Z" fill="url(#paint11_radial_0_1)"/>
</g>
<mask id="mask8_0_1" style="mask-type:luminance" maskUnits="userSpaceOnUse" x="31" y="542" width="5" height="5">
<path d="M31.2257 544.581C31.2257 545.699 32.1219 546.604 33.2283 546.604C34.3364 546.604 35.2328 545.699 35.2328 544.581C35.2328 543.464 34.3364 542.557 33.2283 542.557C32.1219 542.557 31.2257 543.464 31.2257 544.581Z" fill="white"/>
</mask>
<g mask="url(#mask8_0_1)">
<path d="M35.2328 542.557H31.2257V546.604H35.2328V542.557Z" fill="url(#paint12_linear_0_1)"/>
</g>
<mask id="mask9_0_1" style="mask-type:luminance" maskUnits="userSpaceOnUse" x="41" y="542" width="5" height="5">
<path d="M41.0888 544.581C41.0888 545.699 41.9861 546.604 43.0926 546.604C44.199 546.604 45.0963 545.699 45.0963 544.581C45.0963 543.464 44.199 542.557 43.0926 542.557C41.9862 542.557 41.0888 543.464 41.0888 544.581Z" fill="white"/>
</mask>
<g mask="url(#mask9_0_1)">
<path d="M45.0963 542.557H41.0888V546.604H45.0963V542.557Z" fill="url(#paint13_linear_0_1)"/>
</g>
<mask id="mask10_0_1" style="mask-type:luminance" maskUnits="userSpaceOnUse" x="24" y="529" width="6" height="6">
<path d="M24.6749 532.065C24.6749 533.461 25.7955 534.593 27.1779 534.593C28.5598 534.593 29.681 533.461 29.681 532.065C29.681 530.669 28.5598 529.536 27.1779 529.536C25.7955 529.536 24.6749 530.669 24.6749 532.065Z" fill="white"/>
</mask>
<g mask="url(#mask10_0_1)">
<path d="M29.6809 529.536H24.6749V534.593H29.6809V529.536Z" fill="url(#paint14_linear_0_1)"/>
</g>
<mask id="mask11_0_1" style="mask-type:luminance" maskUnits="userSpaceOnUse" x="12" y="529" width="6" height="6">
<path d="M12.3914 532.065C12.3914 533.461 13.5119 534.593 14.8944 534.593C16.2772 534.593 17.398 533.461 17.398 532.065C17.398 530.669 16.2772 529.536 14.8944 529.536C13.5119 529.536 12.3914 530.669 12.3914 532.065Z" fill="white"/>
</mask>
<g mask="url(#mask11_0_1)">
<path d="M17.3979 529.536H12.3914V534.593H17.3979V529.536Z" fill="url(#paint15_linear_0_1)"/>
</g>
<g clip-path="url(#clip1_0_1)">
<path opacity="0.45" d="M48.5714 438H7.42857C5.53502 438 4 436.483 4 434.612V393.953C4 392.082 5.53502 390.565 7.42857 390.565H48.5714C50.465 390.565 52 392.082 52 393.953V434.612C52 436.483 50.465 438 48.5714 438Z" fill="url(#paint16_linear_0_1)"/>
<mask id="mask12_0_1" style="mask-type:luminance" maskUnits="userSpaceOnUse" x="0" y="394" width="56" height="47">
<path d="M55.4286 394.518H0.571426V440.824H55.4286V394.518Z" fill="white"/>
</mask>
<g mask="url(#mask12_0_1)">
<path d="M48.5143 390H7.48571C5.56061 390 4 391.517 4 393.388V434.047C4 435.918 5.56061 437.435 7.48571 437.435H48.5143C50.4394 437.435 52 435.918 52 434.047V393.388C52 391.517 50.4394 390 48.5143 390Z" fill="url(#paint17_linear_0_1)"/>
</g>
<path opacity="0.15" d="M7.42857 390C5.52914 390 4 391.511 4 393.388V394.518V432.918V434.047C4 434.236 4.02363 434.415 4.05357 434.594C4.0814 434.761 4.10902 434.931 4.16071 435.088C4.16636 435.105 4.17265 435.124 4.17857 435.141C4.23507 435.304 4.31279 435.45 4.39286 435.6C4.47548 435.754 4.57321 435.902 4.67857 436.041C4.78393 436.18 4.89216 436.309 5.01786 436.429C5.26926 436.671 5.55666 436.889 5.875 437.047C6.03417 437.126 6.2027 437.187 6.375 437.241C6.2286 437.185 6.09688 437.108 5.96429 437.029C5.96005 437.027 5.95065 437.032 5.94643 437.029C5.92818 437.019 5.91083 437.005 5.89286 436.994C5.82406 436.951 5.76084 436.902 5.69643 436.853C5.63576 436.807 5.57455 436.762 5.51786 436.712C5.41618 436.621 5.31931 436.517 5.23214 436.412C5.17067 436.338 5.10735 436.262 5.05357 436.182C5.03923 436.161 5.0316 436.134 5.01786 436.112C4.98085 436.054 4.94344 435.996 4.91071 435.935C4.853 435.825 4.79319 435.701 4.75 435.582C4.74545 435.57 4.73652 435.559 4.73214 435.547C4.71396 435.495 4.71168 435.442 4.69643 435.388C4.6791 435.328 4.65621 435.274 4.64286 435.212C4.60121 435.019 4.57143 434.817 4.57143 434.612V433.482V395.082V393.953C4.57143 392.382 5.83894 391.129 7.42857 391.129H8.57143H47.4286H48.5714C50.1611 391.129 51.4286 392.382 51.4286 393.953V395.082V433.482V434.612C51.4286 434.817 51.3988 435.019 51.3571 435.212C51.3319 435.329 51.3066 435.436 51.2679 435.547C51.2635 435.559 51.2545 435.57 51.25 435.582C51.2142 435.68 51.1709 435.79 51.125 435.882C51.1012 435.929 51.0798 435.978 51.0536 436.024C51.0224 436.078 50.9811 436.13 50.9464 436.182C50.8927 436.262 50.8293 436.338 50.7679 436.412C50.686 436.51 50.5946 436.608 50.5 436.694C50.4936 436.7 50.4886 436.706 50.4821 436.712C50.4031 436.783 50.3192 436.844 50.2321 436.906C50.1735 436.947 50.1154 436.992 50.0536 437.029C50.0493 437.032 50.04 437.027 50.0357 437.029C49.9031 437.108 49.7714 437.185 49.625 437.241C49.7973 437.187 49.9658 437.126 50.125 437.047C50.4433 436.889 50.7307 436.671 50.9821 436.429C51.1078 436.309 51.2161 436.18 51.3214 436.041C51.4268 435.902 51.5245 435.754 51.6071 435.6C51.6872 435.45 51.7649 435.304 51.8214 435.141C51.8274 435.124 51.8336 435.106 51.8393 435.088C51.891 434.931 51.9186 434.761 51.9464 434.594C51.9764 434.415 52 434.236 52 434.047V432.918V394.518V393.388C52 391.511 50.4709 390 48.5714 390H7.42857Z" fill="url(#paint18_linear_0_1)"/>
<path opacity="0.1" d="M7.42857 437.435C5.52914 437.435 4 435.924 4 434.047V432.918V394.518V393.388C4 393.199 4.02363 393.021 4.05357 392.841C4.0814 392.674 4.10902 392.504 4.16071 392.347C4.16637 392.33 4.17265 392.311 4.17857 392.294C4.23506 392.132 4.31279 391.985 4.39286 391.835C4.47548 391.681 4.57321 391.533 4.67857 391.394C4.78393 391.255 4.89216 391.127 5.01786 391.006C5.26926 390.764 5.55666 390.546 5.875 390.388C6.03417 390.309 6.2027 390.249 6.375 390.194C6.2286 390.251 6.09688 390.328 5.96429 390.406C5.96006 390.408 5.95065 390.403 5.94643 390.406C5.92818 390.417 5.91083 390.43 5.89286 390.441C5.82406 390.484 5.76084 390.534 5.69643 390.582C5.63576 390.628 5.57455 390.673 5.51786 390.724C5.41618 390.815 5.31931 390.919 5.23214 391.024C5.17067 391.097 5.10735 391.173 5.05357 391.253C5.03923 391.275 5.0316 391.301 5.01786 391.324C4.98085 391.382 4.94344 391.439 4.91071 391.5C4.853 391.61 4.79319 391.735 4.75 391.853C4.74543 391.865 4.73652 391.876 4.73214 391.888C4.71395 391.94 4.71169 391.994 4.69643 392.047C4.6791 392.107 4.65621 392.162 4.64286 392.224C4.60121 392.416 4.57143 392.618 4.57143 392.824V393.953V432.353V433.482C4.57143 435.053 5.83894 436.306 7.42857 436.306H8.57143H47.4286H48.5714C50.1611 436.306 51.4286 435.053 51.4286 433.482V432.353V393.953V392.824C51.4286 392.618 51.3988 392.416 51.3571 392.224C51.3319 392.107 51.3066 391.999 51.2679 391.888C51.2635 391.876 51.2545 391.865 51.25 391.853C51.2142 391.755 51.1709 391.645 51.125 391.553C51.1012 391.506 51.0798 391.457 51.0536 391.412C51.0224 391.357 50.9811 391.305 50.9464 391.253C50.8927 391.173 50.8293 391.097 50.7679 391.024C50.686 390.925 50.5946 390.828 50.5 390.741C50.4936 390.735 50.4886 390.729 50.4821 390.724C50.4031 390.653 50.3192 390.591 50.2321 390.529C50.1735 390.488 50.1154 390.443 50.0536 390.406C50.0493 390.403 50.04 390.408 50.0357 390.406C49.9031 390.328 49.7714 390.251 49.625 390.194C49.7973 390.249 49.9658 390.309 50.125 390.388C50.4433 390.546 50.7307 390.764 50.9821 391.006C51.1078 391.127 51.2161 391.255 51.3214 391.394C51.4268 391.533 51.5245 391.681 51.6071 391.835C51.6872 391.985 51.7649 392.132 51.8214 392.294C51.8274 392.312 51.8336 392.33 51.8393 392.347C51.891 392.504 51.9186 392.674 51.9464 392.841C51.9764 393.021 52 393.199 52 393.388V394.518V432.918V434.047C52 435.924 50.4709 437.435 48.5714 437.435H7.42857Z" fill="url(#paint19_radial_0_1)"/>
<path d="M7.42857 390C5.52914 390 4 391.511 4 393.388V395.647H15.4286V390H7.42857Z" fill="#D91F1C"/>
<path d="M15.4286 390V395.647H28V390H15.4286Z" fill="#4776EC"/>
<path d="M28 390V395.647H40.5714V390H28Z" fill="#22A938"/>
<path d="M40.5714 390V395.647H52V393.388C52 391.511 50.4709 390 48.5714 390H40.5714Z" fill="#EEB91C"/>
<path opacity="0.3" d="M52 395.647H4V397.341H52V395.647Z" fill="url(#paint20_linear_0_1)"/>
<path opacity="0.3" d="M7.42857 390C5.52914 390 4 391.511 4 393.388V394.518H15.4286H28H40.5714H52V393.388C52 391.511 50.4709 390 48.5714 390H40.5714H28H15.4286H7.42857Z" fill="url(#paint21_linear_0_1)"/>
<path opacity="0.2" d="M7.42857 390C5.52914 390 4 391.511 4 393.388V394.518V395.647H4.57143V395.082V393.953C4.57143 392.382 5.83894 391.129 7.42857 391.129H8.57143H47.4286H48.5714C50.1611 391.129 51.4286 392.382 51.4286 393.953V395.082V395.647H52V394.518V393.388C52 391.511 50.4709 390 48.5714 390H15.4286H7.42857Z" fill="url(#paint22_linear_0_1)"/>
<path opacity="0.05" d="M25.3929 403.024C23.3398 403.024 20.5851 403.326 18.25 405.229C18.1987 405.274 18.1564 405.328 18.125 405.388C18.1121 405.405 18.1001 405.423 18.0893 405.441C16.4211 406.948 15.5536 408.942 15.5536 410.841C15.5536 414.112 18.1707 417.337 22.375 417.476C22.3556 417.581 22.3214 417.61 22.3214 417.741C22.3214 418.353 22.4773 418.839 22.6786 419.276C21.0773 419.423 19.1156 419.724 17.2679 420.776C17.2497 420.781 17.2318 420.787 17.2143 420.794C17.1583 420.803 17.1041 420.821 17.0536 420.847C14.6038 422.282 13.75 424.495 13.75 426.141C13.75 427.804 14.5786 429.429 16.1071 430.553C17.6312 431.673 19.8052 432.318 22.5893 432.318C29.193 432.318 33.1786 428.552 33.1786 424.5C33.1786 423.053 32.7076 421.879 32.0357 420.953C31.3694 420.035 30.5435 419.336 29.75 418.676C29.722 418.656 29.6921 418.638 29.6607 418.624C29.6436 418.611 29.6257 418.599 29.6071 418.588L28.4643 417.671C28.4643 417.671 28.4481 417.671 28.4464 417.671C28.4377 417.663 28.4371 417.66 28.4286 417.653C28.2348 417.496 28.0709 417.372 28 417.282C27.9259 417.189 27.9107 417.15 27.9107 417C27.9107 416.864 27.9416 416.767 28.0536 416.612C28.1656 416.456 28.3649 416.27 28.6071 416.029C30.1255 414.844 31.9464 413.196 31.9464 410.206V409.959V409.941C31.9464 409.921 31.9464 409.888 31.9464 409.888C31.9465 409.882 31.9465 409.876 31.9464 409.871L31.9286 409.641L31.9107 409.447C31.9107 409.447 31.9107 409.425 31.9107 409.394C31.9107 409.374 31.9107 409.359 31.9107 409.359C31.9123 409.335 31.9123 409.312 31.9107 409.288L31.875 409.059C31.87 409.041 31.864 409.023 31.8571 409.006C31.8571 409.006 31.8441 408.986 31.8393 408.971V408.953L31.8214 408.9L31.8036 408.829V408.812C31.7985 408.794 31.7926 408.776 31.7857 408.759V408.671C31.7822 408.641 31.7763 408.611 31.7679 408.582L31.75 408.529L31.7321 408.476L31.6964 408.318L31.6786 408.265L31.6607 408.212L31.5893 408.018L31.5179 407.824L31.4464 407.629L31.3929 407.506L31.375 407.453L31.3571 407.4C31.3521 407.382 31.3461 407.364 31.3393 407.347L31.25 407.171C31.2386 407.158 31.2267 407.147 31.2143 407.135V407.118C31.2029 407.105 31.191 407.094 31.1786 407.082L31.125 406.976L31.0536 406.853C31.0536 406.853 31.0446 406.835 31.0357 406.818C31.0268 406.8 31.0179 406.782 31.0179 406.782C31.007 406.764 30.9951 406.746 30.9821 406.729L30.9464 406.676L30.9286 406.641C30.9228 406.635 30.9168 406.629 30.9107 406.624L30.8929 406.606L30.875 406.553C30.875 406.553 30.8478 406.518 30.8393 406.5C30.8372 406.495 30.8393 406.482 30.8393 406.482C30.8393 406.482 30.831 406.464 30.8214 406.447C30.8411 406.441 30.8571 406.429 30.8571 406.429L30.9286 406.394L31 406.376L31.0536 406.341L33.3571 405.071L33.4286 405.018L33.5179 404.965L33.5714 404.912L33.6429 404.841L33.6964 404.771L33.75 404.7L33.8036 404.629L33.8393 404.541L33.875 404.471L33.8929 404.382L33.9107 404.294L33.9286 404.206V404.118V404.012L33.9107 403.924L33.8929 403.835L33.8571 403.765L33.8393 403.676L33.7857 403.588L33.75 403.518L33.6964 403.447L33.625 403.376L33.5714 403.306L33.5 403.253L33.4286 403.2L33.3393 403.147L33.2679 403.112L33.1786 403.076L33.0893 403.059L33 403.041L32.9107 403.024H32.8214H25.3929ZM38.0893 403.024C38.0832 403.029 38.0772 403.035 38.0714 403.041L37.9821 403.059L37.8929 403.094L37.8036 403.129L37.7143 403.165L37.625 403.218L37.5536 403.288L37.4821 403.341L37.4286 403.429L37.375 403.5L37.3214 403.571L37.2679 403.659L37.2321 403.747L37.2143 403.853L37.1964 403.941L37.1786 404.029C37.1786 404.029 37.1791 404.096 37.1786 404.118C37.1785 404.122 37.1786 404.135 37.1786 404.135V407.541H33.7143H33.6607H33.6071L33.5536 407.559H33.5L33.4464 407.576L33.3929 407.594L33.3393 407.612L33.2857 407.629L33.25 407.647L33.1964 407.665L33.1429 407.7L33.1071 407.718L33.0536 407.753L33.0179 407.788L32.9643 407.824L32.9286 407.859L32.8929 407.894L32.8571 407.947L32.8214 407.982L32.7857 408.035L32.7679 408.071L32.7321 408.124L32.7143 408.176L32.6964 408.212L32.6786 408.265L32.6607 408.318L32.6429 408.371L32.625 408.424V408.476L32.6071 408.529V408.582V408.635V409.765V409.818V409.871L32.625 409.924V409.976L32.6429 410.029L32.6607 410.082L32.6786 410.135L32.6964 410.188L32.7143 410.224L32.7321 410.276L32.7679 410.329L32.7857 410.365L32.8214 410.418L32.8571 410.453L32.8929 410.506L32.9286 410.541L32.9643 410.576L33.0179 410.612L33.0536 410.647L33.1071 410.682L33.1429 410.7L33.1964 410.735L33.25 410.753L33.2857 410.771L33.3393 410.788L33.3929 410.806L33.4464 410.824L33.5 410.841H33.5536L33.6071 410.859H33.6607H33.7143H37.1786V414.282V414.335V414.388L37.1964 414.441V414.494L37.2143 414.547L37.2321 414.6L37.25 414.653L37.2679 414.706L37.2857 414.741L37.3036 414.794L37.3393 414.847L37.3571 414.882L37.3929 414.935L37.4286 414.971L37.4643 415.024L37.5 415.059L37.5357 415.094L37.5893 415.129L37.625 415.165L37.6786 415.2L37.7143 415.218L37.7679 415.253L37.8214 415.271L37.8571 415.288L37.9107 415.306L37.9643 415.324L38.0179 415.341L38.0714 415.359H38.125L38.1786 415.376H38.2321H38.2857H39.4286H39.4821H39.5357L39.5893 415.359H39.6429L39.6964 415.341L39.75 415.324L39.8036 415.306L39.8571 415.288L39.8929 415.271L39.9464 415.253L40 415.218L40.0357 415.2L40.0893 415.165L40.125 415.129L40.1786 415.094L40.2143 415.059L40.25 415.024L40.2857 414.971L40.3214 414.935L40.3571 414.882L40.375 414.847L40.4107 414.794L40.4286 414.741L40.4464 414.706L40.4643 414.653L40.4821 414.6L40.5 414.547L40.5179 414.494V414.441L40.5357 414.388V414.335V414.282V410.859H44H44.0536H44.1071L44.1607 410.841H44.2143L44.2679 410.824L44.3214 410.806L44.375 410.788L44.4286 410.771L44.4643 410.753L44.5179 410.735L44.5714 410.7L44.6071 410.682L44.6607 410.647L44.6964 410.612L44.75 410.576L44.7857 410.541L44.8214 410.506L44.8571 410.453L44.8929 410.418L44.9286 410.365L44.9464 410.329L44.9821 410.276L45 410.224L45.0179 410.188L45.0357 410.135L45.0536 410.082L45.0714 410.029L45.0893 409.976V409.924L45.1071 409.871V409.818V409.765V408.635V408.582V408.529L45.0893 408.476V408.424L45.0714 408.371L45.0536 408.318L45.0357 408.265L45.0179 408.212L45 408.176L44.9821 408.124L44.9464 408.071L44.9286 408.035L44.8929 407.982L44.8571 407.947L44.8214 407.894L44.7857 407.859L44.75 407.824L44.6964 407.788L44.6607 407.753L44.6071 407.718L44.5714 407.7L44.5179 407.665L44.4643 407.647L44.4286 407.629L44.375 407.612L44.3214 407.594L44.2679 407.576L44.2143 407.559H44.1607L44.1071 407.541H44.0536H44H40.5357V404.118V404.065V404.012L40.5179 403.959V403.906L40.5 403.853L40.4821 403.8L40.4643 403.747L40.4464 403.694L40.4286 403.659L40.4107 403.606L40.375 403.553L40.3571 403.518L40.3214 403.465L40.2857 403.429L40.25 403.376L40.2143 403.341L40.1786 403.306L40.125 403.271L40.0893 403.235L40.0357 403.2L40 403.182L39.9464 403.147L39.8929 403.129L39.8571 403.112L39.8036 403.094L39.75 403.076L39.6964 403.059L39.6429 403.041H39.5893L39.5357 403.024H39.4821H39.4286H38.3036C38.3036 403.024 38.2926 403.024 38.2857 403.024C38.272 403.024 38.2706 403.024 38.25 403.024C38.25 403.024 38.2349 403.024 38.2143 403.024C38.1834 403.024 38.1607 403.024 38.1607 403.024C38.1369 403.022 38.1131 403.022 38.0893 403.024ZM23.1429 406.376C24.1456 406.376 24.924 407.002 25.5714 408.124C26.213 409.235 26.5714 410.771 26.5714 411.829V411.882V411.9C26.5682 411.92 26.5714 411.953 26.5714 411.953L26.5536 412.024V412.094V412.165C26.5524 412.17 26.5536 412.182 26.5536 412.182V412.235V412.253C26.5529 412.258 26.5544 412.263 26.5536 412.271C26.5517 412.287 26.5357 412.306 26.5357 412.306C26.532 412.322 26.5357 412.341 26.5357 412.341C26.5352 412.35 26.5357 412.359 26.5357 412.359C26.5356 412.365 26.5356 412.371 26.5357 412.376C26.5343 412.385 26.5368 412.388 26.5357 412.394C26.5346 412.401 26.5357 412.412 26.5357 412.412L26.5179 412.482C26.5175 412.494 26.5175 412.506 26.5179 412.518C26.5174 412.535 26.5179 412.553 26.5179 412.553C26.5103 412.576 26.5044 412.6 26.5 412.624C26.4999 412.629 26.4999 412.635 26.5 412.641V412.676C26.5 412.694 26.5 412.712 26.5 412.712L26.4821 412.765L26.4464 412.853L26.4107 412.941C26.4043 412.953 26.3984 412.964 26.3929 412.976C26.3929 412.976 26.3968 412.996 26.3929 413.012L26.375 413.029C26.3686 413.041 26.3627 413.053 26.3571 413.065L26.3214 413.153C26.3214 413.153 26.3126 413.18 26.3036 413.206C26.2972 413.224 26.2857 413.241 26.2857 413.241L26.25 413.294L26.1964 413.382C26.1963 413.388 26.1963 413.394 26.1964 413.4C26.1903 413.406 26.1844 413.412 26.1786 413.418L26.1607 413.453C26.1543 413.464 26.1484 413.476 26.1429 413.488C26.1403 413.491 26.1429 413.506 26.1429 413.506L26.125 413.524C26.1189 413.529 26.113 413.535 26.1071 413.541L26.0893 413.559C26.0768 413.57 26.0649 413.582 26.0536 413.594C26.0536 413.594 26.0349 413.611 26.0179 413.629C26.0178 413.635 26.0178 413.641 26.0179 413.647L25.9821 413.665C25.6688 413.974 24.8515 414.335 24.3214 414.335C23.2423 414.335 22.4996 413.712 21.875 412.624C21.2576 411.548 20.9286 410.067 20.9286 409.094C20.9286 408.319 21.0943 407.609 21.4821 407.135C21.7992 406.744 22.6002 406.376 23.1429 406.376ZM24.8929 422.259H24.9286H24.9643H25H25.0357H25.0536H25.0893H25.1071H25.1429H25.1786H25.1964H25.25H25.3036C25.3119 422.261 25.3134 422.257 25.3214 422.259C25.3295 422.261 25.334 422.258 25.3393 422.259C26.5208 423.097 27.4257 423.808 27.8929 424.324C28.4192 424.904 28.5536 425.208 28.5536 425.894C28.5536 426.705 28.2762 427.268 27.625 427.765C26.9837 428.254 25.91 428.629 24.3571 428.629C22.6094 428.629 21.2504 428.206 20.3929 427.606C19.526 426.999 19.1429 426.302 19.1429 425.382C19.1429 424.436 19.4962 423.968 20 423.547C20.4833 423.144 21.0959 422.892 21.4821 422.753C21.4857 422.752 21.4964 422.754 21.5 422.753C22.7617 422.341 24.7607 422.259 24.8929 422.259Z" fill="black"/>
<path opacity="0.15" d="M25.3929 403.571C23.3948 403.571 20.8002 403.866 18.6071 405.653C18.607 405.659 18.607 405.665 18.6071 405.671C16.9372 407.091 16.1071 409.039 16.1071 410.841C16.1071 413.896 18.5536 416.965 22.6429 416.965C22.7851 416.965 22.9289 416.955 23.0714 416.947C22.9945 417.206 22.875 417.39 22.875 417.741C22.875 418.587 23.1901 419.192 23.5357 419.718C21.8235 419.844 19.3992 420.093 17.3393 421.341V421.324C15.0533 422.663 14.3036 424.68 14.3036 426.141C14.3036 427.629 15.0264 429.081 16.4286 430.112C17.8308 431.143 19.892 431.771 22.5893 431.771C28.9847 431.771 32.625 428.198 32.625 424.5C32.625 423.166 32.2049 422.119 31.5893 421.271C30.9737 420.422 30.1845 419.758 29.3929 419.1C29.3869 419.1 29.381 419.1 29.375 419.1L28.1071 418.094C28.1034 418.091 28.093 418.097 28.0893 418.094C27.6847 417.767 27.3571 417.524 27.3571 417C27.3571 416.47 27.7353 416.116 28.2143 415.641C29.7232 414.467 31.3929 413.014 31.3929 410.206V409.941C31.3932 409.929 31.3932 409.918 31.3929 409.906L31.375 409.676L31.3571 409.429C31.358 409.412 31.358 409.394 31.3571 409.376L31.3214 409.147C31.3164 409.129 31.3104 409.111 31.3036 409.094L31.2679 408.935L31.25 408.882L31.2321 408.724C31.2271 408.706 31.2211 408.688 31.2143 408.671L31.1607 408.459C31.1557 408.441 31.1497 408.423 31.1429 408.406L31.0714 408.212L31 408.018L30.9286 407.824L30.8571 407.647C30.8521 407.629 30.8461 407.611 30.8393 407.594L30.75 407.418C30.7442 407.412 30.7382 407.406 30.7321 407.4L30.6429 407.241L30.5536 407.082C30.5481 407.07 30.5421 407.059 30.5357 407.047L30.4464 406.924L30.4286 406.888L30.3571 406.765C30.347 406.74 30.335 406.717 30.3214 406.694L30.2143 406.553L30.1071 406.429V406.412L30.0179 406.306C30.0065 406.294 29.9946 406.282 29.9821 406.271L29.875 406.147L29.7679 406.024C29.7623 406.012 29.7564 406 29.75 405.988L29.6964 405.935H30.5179C30.6118 405.935 30.7039 405.91 30.7857 405.865L33.0893 404.594C33.1962 404.535 33.2803 404.443 33.3285 404.332C33.3767 404.221 33.3862 404.097 33.3556 403.98C33.3249 403.863 33.2559 403.759 33.1592 403.685C33.0626 403.611 32.9438 403.571 32.8214 403.571H25.3929ZM38.2321 403.571C38.0947 403.584 37.9672 403.647 37.8747 403.748C37.7822 403.849 37.7313 403.981 37.7321 404.118V408.088H33.7143C33.6416 408.088 33.5695 408.102 33.5023 408.13C33.4351 408.157 33.374 408.197 33.3226 408.248C33.2712 408.299 33.2304 408.359 33.2026 408.426C33.1749 408.492 33.1606 408.563 33.1607 408.635V409.765C33.1606 409.837 33.1749 409.908 33.2026 409.974C33.2304 410.041 33.2712 410.101 33.3226 410.152C33.374 410.203 33.4351 410.243 33.5023 410.27C33.5695 410.298 33.6416 410.312 33.7143 410.312H37.7321V414.282C37.732 414.354 37.7463 414.425 37.7741 414.492C37.8018 414.558 37.8426 414.619 37.894 414.669C37.9455 414.72 38.0065 414.761 38.0737 414.788C38.141 414.815 38.213 414.83 38.2857 414.829H39.4286C39.5013 414.83 39.5733 414.815 39.6405 414.788C39.7078 414.761 39.7688 414.72 39.8202 414.669C39.8717 414.619 39.9124 414.558 39.9402 414.492C39.968 414.425 39.9823 414.354 39.9821 414.282V410.312H44C44.0727 410.312 44.1448 410.298 44.212 410.27C44.2792 410.243 44.3403 410.203 44.3917 410.152C44.4431 410.101 44.4839 410.041 44.5117 409.974C44.5394 409.908 44.5537 409.837 44.5536 409.765V408.635C44.5537 408.563 44.5394 408.492 44.5117 408.426C44.4839 408.359 44.4431 408.299 44.3917 408.248C44.3403 408.197 44.2792 408.157 44.212 408.13C44.1448 408.102 44.0727 408.088 44 408.088H39.9821V404.118C39.9823 404.046 39.968 403.975 39.9402 403.908C39.9124 403.842 39.8717 403.781 39.8202 403.731C39.7688 403.68 39.7078 403.639 39.6405 403.612C39.5733 403.585 39.5013 403.57 39.4286 403.571H38.2857C38.2679 403.57 38.25 403.57 38.2321 403.571ZM23.1429 405.829C24.3888 405.829 25.351 406.642 26.0536 407.859C26.7561 409.075 27.125 410.658 27.125 411.829V411.9V411.953C27.1128 411.999 27.1068 412.046 27.1071 412.094V412.165V412.235V412.253C27.0964 412.293 27.0904 412.335 27.0893 412.376C27.0892 412.382 27.0892 412.388 27.0893 412.394V412.412C27.0771 412.458 27.0711 412.505 27.0714 412.553V412.588V412.624L27.0536 412.659C27.0532 412.671 27.0532 412.682 27.0536 412.694L27.0357 412.782L27.0179 412.871L27 412.959L26.9643 413.047L26.9286 413.135C26.9202 413.164 26.9142 413.194 26.9107 413.224L26.8571 413.312C26.8427 413.34 26.8307 413.37 26.8214 413.4L26.7857 413.488L26.7321 413.576L26.6786 413.665L26.6607 413.7L26.625 413.753V413.771L26.5536 413.859C26.5345 413.875 26.5166 413.893 26.5 413.912V413.929L26.4821 413.947C26.4562 413.968 26.4323 413.992 26.4107 414.018L26.375 414.053C25.9217 414.5 25.0477 414.882 24.3214 414.882C23.0115 414.882 22.0719 414.071 21.3929 412.888C20.7138 411.705 20.375 410.179 20.375 409.094C20.375 408.244 20.5521 407.413 21.0536 406.8C21.5081 406.239 22.396 405.829 23.1429 405.829ZM24.8929 421.712H24.9286H24.9643H25H25.0357H25.0536H25.0893H25.1071H25.1429H25.1786H25.1964H25.25H25.3036H25.3393H25.3929C25.4048 421.712 25.4167 421.712 25.4286 421.712C25.4578 421.72 25.4877 421.726 25.5179 421.729C25.5228 421.733 25.5308 421.726 25.5357 421.729C26.8112 422.629 27.7502 423.342 28.3036 423.953C28.8807 424.59 29.1071 425.105 29.1071 425.894C29.1071 426.846 28.733 427.62 27.9643 428.206C27.1956 428.792 25.9974 429.176 24.3571 429.176C22.5193 429.176 21.0501 428.732 20.0714 428.047C19.0928 427.362 18.5893 426.469 18.5893 425.382C18.5893 424.283 19.0594 423.611 19.6429 423.124C20.2215 422.641 20.9091 422.383 21.3036 422.241C21.3089 422.239 21.316 422.243 21.3214 422.241C22.711 421.787 24.6466 421.712 24.8929 421.712Z" fill="black"/>
<path opacity="0.3" d="M25.3929 404.118C23.4499 404.118 21.0157 404.405 18.9643 406.076C17.4171 407.392 16.6607 409.205 16.6607 410.841C16.6607 413.615 18.8275 416.418 22.6429 416.418C23.0026 416.418 23.3899 416.381 23.7857 416.347C23.6051 416.774 23.4286 417.137 23.4286 417.741C23.4286 418.843 23.9958 419.518 24.5 420.159C22.8806 420.266 19.8554 420.449 17.625 421.8C15.4997 423.045 14.8571 424.861 14.8571 426.141C14.8571 428.774 17.3697 431.224 22.5893 431.224C28.7812 431.224 32.0714 427.844 32.0714 424.5C32.0714 422.046 30.619 420.839 29.0357 419.524L27.75 418.518C27.3542 418.197 26.8036 417.782 26.8036 417C26.8036 416.217 27.355 415.715 27.8214 415.253C29.3341 414.079 30.8393 412.838 30.8393 410.206V409.941L30.8214 409.712L30.8036 409.465L30.7679 409.235L30.7143 409.024L30.6786 408.812L30.625 408.6L30.5536 408.406L30.4821 408.212L30.4107 408.018L30.3393 407.841L30.25 407.665L30.1607 407.506L30.0714 407.347L29.9643 407.188L29.875 407.029L29.7679 406.888L29.6607 406.747L29.5714 406.624L29.4643 406.5L29.3571 406.376L29.25 406.271L29.1429 406.147L29.0357 406.041L28.9286 405.953L28.8214 405.865L28.7321 405.776L28.625 405.688L28.5357 405.6L28.4464 405.529L28.375 405.459L28.2857 405.388H30.5179L32.8214 404.118H25.3929ZM38.2857 404.118V408.635H33.7143V409.765H38.2857V414.282H39.4286V409.765H44V408.635H39.4286V404.118H38.2857ZM23.1429 405.282C26.1321 405.282 27.6786 409.269 27.6786 411.829V411.9V411.953V412.024L27.6607 412.094V412.165V412.235V412.324L27.6429 412.394V412.482L27.625 412.553V412.641L27.6071 412.729L27.5893 412.8L27.5714 412.888L27.5536 412.976L27.5357 413.065L27.5179 413.153L27.4821 413.241L27.4464 413.329L27.4286 413.418L27.3929 413.506L27.3393 413.594L27.3036 413.682L27.2679 413.771L27.2143 413.859L27.1607 413.947L27.1071 414.035L27.0536 414.106L26.9821 414.194L26.9286 414.282L26.8393 414.353L26.7679 414.441C26.1914 415.01 25.2215 415.429 24.3214 415.429C21.2255 415.429 19.8214 411.477 19.8214 409.094C19.8214 408.169 20.014 407.211 20.625 406.465C21.2015 405.753 22.2083 405.282 23.1429 405.282ZM24.8929 421.165H24.9286H24.9643H25H25.0357H25.0536H25.0893H25.1071H25.1429H25.1786H25.1964H25.25H25.3036H25.3393H25.3929H25.4286H25.4821H25.5357L25.5714 421.182H25.625H25.6786H25.6964L25.7321 421.2C28.4684 423.122 29.6607 424.079 29.6607 425.894C29.6607 428.1 27.8128 429.724 24.3571 429.724C20.5057 429.724 18.0357 427.908 18.0357 425.382C18.0357 422.856 20.3317 422.013 21.125 421.729C22.636 421.231 24.5693 421.165 24.8929 421.165Z" fill="black"/>
<path d="M25.3929 403.553C23.4499 403.553 21.0157 403.84 18.9643 405.512C17.4171 406.827 16.6607 408.641 16.6607 410.276C16.6607 413.05 18.8275 415.853 22.6429 415.853C23.0026 415.853 23.3899 415.817 23.7857 415.782C23.6051 416.209 23.4286 416.572 23.4286 417.176C23.4286 418.278 23.9958 418.954 24.5 419.594C22.8806 419.701 19.8554 419.884 17.625 421.235C15.4997 422.481 14.8571 424.296 14.8571 425.576C14.8571 428.209 17.3697 430.659 22.5893 430.659C28.7812 430.659 32.0714 427.279 32.0714 423.935C32.0714 421.481 30.619 420.274 29.0357 418.959L27.75 417.953C27.3542 417.632 26.8036 417.218 26.8036 416.435C26.8036 415.652 27.355 415.15 27.8214 414.688C29.3341 413.515 30.8393 412.274 30.8393 409.641V409.376L30.8214 409.147L30.8036 408.9L30.7679 408.671L30.7143 408.459L30.6786 408.247L30.625 408.035L30.5536 407.841L30.4821 407.647L30.4107 407.453L30.3393 407.276L30.25 407.1L30.1607 406.941L30.0714 406.782L29.9643 406.624L29.875 406.465L29.7679 406.324L29.6607 406.182L29.5714 406.059L29.4643 405.935L29.3571 405.812L29.25 405.706L29.1429 405.582L29.0357 405.476L28.9286 405.388L28.8214 405.3L28.7321 405.212L28.625 405.124L28.5357 405.035L28.4464 404.965L28.375 404.894L28.2857 404.824H30.5179L32.8214 403.553H25.3929ZM38.2857 403.553V408.071H33.7143V409.2H38.2857V413.718H39.4286V409.2H44V408.071H39.4286V403.553H38.2857ZM23.1429 404.718C26.1321 404.718 27.6786 408.704 27.6786 411.265V411.335V411.388V411.459L27.6607 411.529V411.6V411.671V411.759L27.6429 411.829V411.918L27.625 411.988V412.076L27.6071 412.165L27.5893 412.235L27.5714 412.324L27.5536 412.412L27.5357 412.5L27.5179 412.588L27.4821 412.676L27.4464 412.765L27.4286 412.853L27.3929 412.941L27.3393 413.029L27.3036 413.118L27.2679 413.206L27.2143 413.294L27.1607 413.382L27.1071 413.471L27.0536 413.541L26.9821 413.629L26.9286 413.718L26.8393 413.788L26.7679 413.876C26.1914 414.445 25.2215 414.865 24.3214 414.865C21.2255 414.865 19.8214 410.912 19.8214 408.529C19.8214 407.604 20.014 406.647 20.625 405.9C21.2015 405.188 22.2083 404.718 23.1429 404.718ZM24.8929 420.6H24.9286H24.9643H25H25.0357H25.0536H25.0893H25.1071H25.1429H25.1786H25.1964H25.25H25.3036H25.3393H25.3929H25.4286H25.4821H25.5357L25.5714 420.618H25.625H25.6786H25.6964L25.7321 420.635C28.4684 422.557 29.6607 423.514 29.6607 425.329C29.6607 427.535 27.8128 429.159 24.3571 429.159C20.5057 429.159 18.0357 427.343 18.0357 424.818C18.0357 422.291 20.3317 421.449 21.125 421.165C22.636 420.666 24.5693 420.6 24.8929 420.6Z" fill="white"/>
</g>
<g clip-path="url(#clip2_0_1)">
<g filter="url(#filter0_f_0_1)">
<path d="M19.777 309.974L10.224 309.935L9.78139 309.783C7.67292 309.059 5.97591 307.77 4.78774 305.991C3.7161 304.386 3.05398 302.519 3.14668 300.617L3.14665 300.114L4.13363 300.113C5.53702 300.113 43.4868 300.27 48.6729 300.298L52.99 300.321L52.9991 300.944C53.0438 304.007 51.5041 306.913 48.9448 308.595C48.0174 309.204 46.9489 309.654 45.8445 309.9L45.4716 309.983L37.2499 309.998C32.8122 310.007 24.9494 309.983 19.777 309.974Z" fill="black"/>
</g>
<g filter="url(#filter1_f_0_1)">
<path d="M3.14664 300.114V267.523C3.1682 264.273 7.9402 260.868 11.2684 260.935L45.9074 260.84C48.7728 261.69 51.8329 264.092 52.6924 266.722C52.9873 267.682 52.8985 282.489 52.8985 282.489L52.9899 300.321L3.14664 300.114Z" fill="black"/>
</g>
<path d="M3.00858 299.274V266.683C3.03013 263.433 7.80214 260.028 11.1303 260.096L45.7693 260C48.8915 260.02 51.6948 263.253 52.5543 265.882C52.8492 266.842 52.7604 281.65 52.7604 281.65L52.8519 299.481L3.00858 299.274Z" fill="url(#paint23_linear_0_1)"/>
<path d="M19.6389 309.135L10.086 309.096L9.64333 308.944C7.53486 308.22 5.83785 306.931 4.64968 305.151C3.57804 303.546 2.91592 301.68 3.00862 299.777L3.00859 299.274L3.99557 299.274C5.39896 299.274 43.3488 299.43 48.5349 299.458L52.8519 299.481L52.861 300.104C52.9058 303.168 51.366 306.073 48.8067 307.755C47.8794 308.365 46.8109 308.814 45.7065 309.06L45.3335 309.143L37.1118 309.159C32.6741 309.167 24.8113 309.144 19.6389 309.135Z" fill="url(#paint24_linear_0_1)"/>
<g opacity="0.42284" filter="url(#filter2_f_0_1)">
<path d="M35.9104 308.982H29.0633V290.507H24.3483V283.957H29.0633V279.493C29.0633 274.15 30.1059 270.973 36.0089 270.973H42.2169V277.524H38.369C36.0707 277.524 35.9194 278.439 35.9194 280.147L35.9097 283.957H42.2507L41.5996 290.507H35.9097L35.9104 308.982Z" fill="black"/>
</g>
<path d="M35.4178 309.374H27.9348V289.861H22.782V282.944H27.9348V278.23C27.9348 272.587 29.0742 269.232 35.5255 269.232H42.31V276.15H38.1048C35.593 276.15 35.4277 277.117 35.4277 278.921L35.417 282.944H42.347L41.6353 289.861H35.417L35.4178 309.374Z" fill="url(#paint25_linear_0_1)"/>
</g>
<defs>
<filter id="filter0_f_0_1" x="-0.100198" y="296.875" width="56.3385" height="16.3631" filterUnits="userSpaceOnUse" color-interpolation-filters="sRGB">
<feFlood flood-opacity="0" result="BackgroundImageFix"/>
<feBlend mode="normal" in="SourceGraphic" in2="BackgroundImageFix" result="shape"/>
<feGaussianBlur stdDeviation="1.61913" result="effect1_foregroundBlur_0_1"/>
</filter>
<filter id="filter1_f_0_1" x="-0.0916224" y="257.601" width="56.3198" height="45.9578" filterUnits="userSpaceOnUse" color-interpolation-filters="sRGB">
<feFlood flood-opacity="0" result="BackgroundImageFix"/>
<feBlend mode="normal" in="SourceGraphic" in2="BackgroundImageFix" result="shape"/>
<feGaussianBlur stdDeviation="1.61913" result="effect1_foregroundBlur_0_1"/>
</filter>
<filter id="filter2_f_0_1" x="18.8687" y="265.493" width="28.8616" height="48.9681" filterUnits="userSpaceOnUse" color-interpolation-filters="sRGB">
<feFlood flood-opacity="0" result="BackgroundImageFix"/>
<feBlend mode="normal" in="SourceGraphic" in2="BackgroundImageFix" result="shape"/>
<feGaussianBlur stdDeviation="2.7398" result="effect1_foregroundBlur_0_1"/>
</filter>
<linearGradient id="paint0_linear_0_1" x1="2452.04" y1="76" x2="2452.04" y2="3577.06" gradientUnits="userSpaceOnUse">
<stop stop-color="#E52D27"/>
<stop offset="0.035"/>
<stop offset="1"/>
</linearGradient>
<linearGradient id="paint1_linear_0_1" x1="22.443" y1="23.494" x2="22.443" y2="29.6928" gradientUnits="userSpaceOnUse">
<stop stop-color="#7390D3"/>
<stop offset="1" stop-color="#4E679F"/>
</linearGradient>
<linearGradient id="paint2_linear_0_1" x1="32.6511" y1="23.494" x2="32.6511" y2="29.6928" gradientUnits="userSpaceOnUse">
<stop stop-color="#7390D3"/>
<stop offset="1" stop-color="#4E679F"/>
</linearGradient>
<linearGradient id="paint3_linear_0_1" x1="27.5" y1="-3.18958e-06" x2="27.5" y2="56" gradientUnits="userSpaceOnUse">
<stop stop-color="#7491D4"/>
<stop offset="1" stop-color="#4E679F"/>
</linearGradient>
<radialGradient id="paint4_radial_0_1" cx="0" cy="0" r="1" gradientUnits="userSpaceOnUse" gradientTransform="translate(20.5985 532.391) scale(29.94 30.2459)">
<stop stop-color="#C0DA74"/>
<stop offset="0.1319" stop-color="#C0DA74"/>
<stop offset="1" stop-color="#5BA147"/>
</radialGradient>
<linearGradient id="paint5_linear_0_1" x1="21.0844" y1="521.862" x2="21.0844" y2="556.989" gradientUnits="userSpaceOnUse">
<stop stop-color="#778B49"/>
<stop offset="0.0165" stop-color="#778B49"/>
<stop offset="1" stop-color="#2B5F25"/>
</linearGradient>
<radialGradient id="paint6_radial_0_1" cx="0" cy="0" r="1" gradientUnits="userSpaceOnUse" gradientTransform="translate(36.2101 543.411) scale(18.0018 18.1857)">
<stop stop-color="white"/>
<stop offset="1" stop-color="#DADCDD"/>
</radialGradient>
<linearGradient id="paint7_linear_0_1" x1="37.7877" y1="536.184" x2="37.7877" y2="561.449" gradientUnits="userSpaceOnUse">
<stop stop-color="#9D9FA2"/>
<stop offset="1" stop-color="#626567"/>
</linearGradient>
<radialGradient id="paint8_radial_0_1" cx="0" cy="0" r="1" gradientUnits="userSpaceOnUse" gradientTransform="translate(36.2163 543.414) scale(18.0407 18.225)">
<stop stop-color="#F6F5F5"/>
<stop offset="1" stop-color="#E5E5E5"/>
</radialGradient>
<radialGradient id="paint9_radial_0_1" cx="0" cy="0" r="1" gradientUnits="userSpaceOnUse" gradientTransform="translate(36.2203 543.414) scale(17.996 18.1799)">
<stop stop-color="#F6F5F5"/>
<stop offset="1" stop-color="#E5E5E5"/>
</radialGradient>
<radialGradient id="paint10_radial_0_1" cx="0" cy="0" r="1" gradientUnits="userSpaceOnUse" gradientTransform="translate(20.5925 532.418) scale(29.9827 30.2891)">
<stop stop-color="#D8E3B1"/>
<stop offset="0.1319" stop-color="#D8E3B1"/>
<stop offset="1" stop-color="#A5C293"/>
</radialGradient>
<radialGradient id="paint11_radial_0_1" cx="0" cy="0" r="1" gradientUnits="userSpaceOnUse" gradientTransform="translate(20.6033 532.418) scale(30.0434 30.3504)">
<stop stop-color="#D8E3B1"/>
<stop offset="0.1319" stop-color="#D8E3B1"/>
<stop offset="1" stop-color="#A5C293"/>
</radialGradient>
<linearGradient id="paint12_linear_0_1" x1="33.2281" y1="545.871" x2="33.2281" y2="542.705" gradientUnits="userSpaceOnUse">
<stop stop-color="#424243"/>
<stop offset="1" stop-color="#231F20"/>
</linearGradient>
<linearGradient id="paint13_linear_0_1" x1="43.0916" y1="545.871" x2="43.0916" y2="542.705" gradientUnits="userSpaceOnUse">
<stop stop-color="#424243"/>
<stop offset="1" stop-color="#231F20"/>
</linearGradient>
<linearGradient id="paint14_linear_0_1" x1="27.177" y1="533.375" x2="27.177" y2="530.328" gradientUnits="userSpaceOnUse">
<stop stop-color="#424243"/>
<stop offset="1" stop-color="#231F20"/>
</linearGradient>
<linearGradient id="paint15_linear_0_1" x1="14.8937" y1="533.375" x2="14.8937" y2="530.328" gradientUnits="userSpaceOnUse">
<stop stop-color="#424243"/>
<stop offset="1" stop-color="#231F20"/>
</linearGradient>
<linearGradient id="paint16_linear_0_1" x1="19.0006" y1="437.926" x2="19.0006" y2="390.43" gradientUnits="userSpaceOnUse">
<stop/>
<stop offset="1" stop-opacity="0.588235"/>
</linearGradient>
<linearGradient id="paint17_linear_0_1" x1="28" y1="437.435" x2="28" y2="389.993" gradientUnits="userSpaceOnUse">
<stop stop-color="#1A1818"/>
<stop offset="1" stop-color="#403D3D"/>
</linearGradient>
<linearGradient id="paint18_linear_0_1" x1="21.3469" y1="390" x2="21.3469" y2="422.693" gradientUnits="userSpaceOnUse">
<stop stop-color="white"/>
<stop offset="1" stop-color="white" stop-opacity="0"/>
</linearGradient>
<radialGradient id="paint19_radial_0_1" cx="0" cy="0" r="1" gradientUnits="userSpaceOnUse" gradientTransform="translate(28 437.435) scale(27.7755 23.6206)">
<stop stop-color="white"/>
<stop offset="1" stop-color="white" stop-opacity="0"/>
</radialGradient>
<linearGradient id="paint20_linear_0_1" x1="18.2857" y1="395.647" x2="18.2857" y2="397.341" gradientUnits="userSpaceOnUse">
<stop/>
<stop offset="1" stop-opacity="0"/>
</linearGradient>
<linearGradient id="paint21_linear_0_1" x1="23.4286" y1="390" x2="23.4286" y2="394.518" gradientUnits="userSpaceOnUse">
<stop stop-color="white"/>
<stop offset="1" stop-color="white" stop-opacity="0"/>
</linearGradient>
<linearGradient id="paint22_linear_0_1" x1="21.3469" y1="390" x2="21.3469" y2="422.693" gradientUnits="userSpaceOnUse">
<stop stop-color="white"/>
<stop offset="1" stop-color="white" stop-opacity="0"/>
</linearGradient>
<linearGradient id="paint23_linear_0_1" x1="29.8806" y1="295.613" x2="30.0634" y2="262.346" gradientUnits="userSpaceOnUse">
<stop stop-color="#2A477F"/>
<stop offset="1" stop-color="#5E81CA"/>
</linearGradient>
<linearGradient id="paint24_linear_0_1" x1="27.7146" y1="308.401" x2="27.6981" y2="299.682" gradientUnits="userSpaceOnUse">
<stop stop-color="#3E578D"/>
<stop offset="1" stop-color="#506BA3"/>
</linearGradient>
<linearGradient id="paint25_linear_0_1" x1="32.0259" y1="309.361" x2="31.9483" y2="275.824" gradientUnits="userSpaceOnUse">
<stop stop-color="#CAD4EA"/>
<stop offset="1" stop-color="#FCFEFE"/>
</linearGradient>
<clipPath id="clip0_0_1">
<rect width="49" height="35" fill="white" transform="translate(3 76)"/>
</clipPath>
<clipPath id="clip1_0_1">
<rect width="48" height="48" fill="white" transform="translate(4 390)"/>
</clipPath>
<clipPath id="clip2_0_1">
<rect width="54" height="57" fill="white" transform="translate(1 257)"/>
</clipPath>
</defs>
</svg>
