<svg width="57" height="630" viewBox="0 0 57 630" fill="none" xmlns="http://www.w3.org/2000/svg">
<g clip-path="url(#clip0_0_1)">
<path d="M22.225 101.378L37.3625 93.4222L22.225 85.4V101.378Z" fill="white"/>
<path opacity="0.12" d="M22.225 85.4L35.5031 94.4L37.3625 93.4222L22.225 85.4Z" fill="#920000"/>
<path d="M55.4096 82.6222C55.4096 82.6222 54.8629 78.7111 53.1792 76.9778C51.0582 74.7111 48.6747 74.7111 47.5595 74.5778C39.7532 74 28.0109 74 28.0109 74H27.9891C27.9891 74 16.2468 74 8.39672 74.5778C7.3034 74.7111 4.91995 74.7111 2.77704 76.9778C1.11519 78.7111 0.568528 82.6222 0.568528 82.6222C0.568528 82.6222 0 87.2444 0 91.8444V96.1556C0 100.756 0.568528 105.356 0.568528 105.356C0.568528 105.356 1.11519 109.267 2.79891 111C4.91995 113.267 7.71886 113.2 8.96525 113.422C13.4479 113.867 27.9891 114 27.9891 114C27.9891 114 39.7532 113.978 47.5814 113.4C48.6747 113.267 51.0582 113.267 53.2011 111C54.8848 109.267 55.4315 105.356 55.4315 105.356C55.4315 105.356 56 100.756 56 96.1556V91.8444C55.9781 87.2444 55.4096 82.6222 55.4096 82.6222ZM22.2163 101.378V85.4L37.3479 93.4222L22.2163 101.378Z" fill="url(#paint0_linear_0_1)"/>
</g>
<path d="M36.7792 39.2024C36.7792 39.2024 35.6597 37.8769 34.7371 36.74C38.7905 35.6347 40.3114 33.1746 40.3114 33.1746C39.0358 33.9873 37.8622 34.5736 36.7795 34.9753C35.2399 35.5971 33.7344 36.0192 32.2882 36.279C29.3353 36.8127 26.6032 36.6831 24.2769 36.2626C22.5227 35.9443 20.9875 35.458 19.7414 34.9683C19.0334 34.7047 18.2715 34.3625 17.4721 33.9331C17.3709 33.8796 17.2745 33.8284 17.1856 33.7791C17.1389 33.7536 17.0945 33.7305 17.0498 33.7038C16.4995 33.3965 16.2286 33.1744 16.2286 33.1744C16.2286 33.1744 17.7056 35.5655 21.6306 36.6941C20.7004 37.8408 19.552 39.2024 19.552 39.2024C12.735 38.999 10.1233 34.6207 10.1233 34.6207C10.1233 24.9653 14.566 17.1202 14.566 17.1202C19.0118 13.8679 23.2312 13.9648 23.2312 13.9648L23.5617 14.3499C17.9935 15.9028 15.4684 18.2862 15.4684 18.2862C15.4684 18.2862 16.1042 17.8919 17.2731 17.4082C20.5868 15.993 23.2046 15.6069 24.2849 15.5054C24.4579 15.4813 24.6286 15.4555 24.804 15.4337C26.7011 15.2004 28.8172 15.1349 31.0548 15.3793C33.9857 15.7008 37.154 16.5615 40.3635 18.2669C40.3635 18.2669 37.9179 16.0322 32.6532 14.4794L33.0973 13.9648C33.0973 13.9648 37.3188 13.8679 41.7622 17.1202C41.7622 17.1202 46.2073 24.9653 46.2073 34.6207C46.2073 34.6207 43.5959 38.999 36.7792 39.2024Z" fill="white"/>
<path d="M25.586 28.4925C25.586 30.3272 24.1724 31.8137 22.4282 31.8137C20.6815 31.8137 19.2679 30.3272 19.2679 28.4925C19.2679 26.659 20.6815 25.1722 22.4282 25.1722C24.1724 25.1722 25.586 26.659 25.586 28.4925Z" fill="url(#paint1_linear_0_1)"/>
<path d="M36.8358 28.4925C36.8358 30.3272 35.4222 31.8137 33.6756 31.8137C31.9313 31.8137 30.5177 30.3272 30.5177 28.4925C30.5177 26.659 31.9313 25.1722 33.6756 25.1722C35.4222 25.1722 36.8358 26.659 36.8358 28.4925Z" fill="url(#paint2_linear_0_1)"/>
<path d="M55 6.19262V43.7432V46.7547V60L48.346 54.3346L44.6246 50.9711L40.6821 47.4066L42.3191 52.9473H7.31575C3.82723 52.9473 1 50.1752 1 46.7547V6.19263C1 2.77212 3.82722 0 7.31575 0H48.6843C52.1727 0 55 2.77212 55 6.19262ZM46.1913 34.6136C46.1913 24.9582 41.7479 17.1302 41.7479 17.1302C37.3045 13.8779 33.0911 13.9808 33.0911 13.9808L32.6592 14.4633C37.9239 16.0162 40.3491 18.2767 40.3491 18.2767C37.1396 16.5713 33.9815 15.7174 31.0506 15.3959C28.8129 15.1515 26.706 15.2168 24.809 15.4501C24.6336 15.472 24.4636 15.4975 24.2906 15.5216C23.2103 15.6231 20.6001 16.0042 17.2864 17.4194C16.1175 17.9032 15.4538 18.2767 15.4538 18.2767C15.4538 18.2767 17.9875 15.8867 23.5557 14.3338L23.2374 13.9808C23.2374 13.9808 19.0261 13.8779 14.5803 17.1302C14.5803 17.1302 10.1393 24.9582 10.1393 34.6136C10.1393 34.6136 12.7448 38.9848 19.5617 39.1881C19.5617 39.1881 20.6911 37.8553 21.6212 36.7086C17.6963 35.58 16.2133 33.1829 16.2133 33.1829C16.2133 33.1829 16.5142 33.3871 17.0645 33.6945C17.1092 33.7211 17.1535 33.7441 17.2002 33.7695C17.2891 33.8189 17.3852 33.8697 17.4865 33.9232C18.2859 34.3526 19.0457 34.6925 19.7537 34.9561C20.9998 35.4458 22.5291 35.9284 24.2833 36.2467C26.6096 36.6672 29.3286 36.797 32.2815 36.2632C33.7277 36.0035 35.2275 35.585 36.7671 34.9632C37.8498 34.5615 39.0512 33.9956 40.3268 33.1829C40.3268 33.1829 38.7998 35.6491 34.7465 36.7544C35.6691 37.8914 36.7695 39.1881 36.7695 39.1881C43.5862 38.9848 46.1913 34.6136 46.1913 34.6136Z" fill="url(#paint3_linear_0_1)"/>
<path d="M41.2151 601.439C41.2151 603.296 41.2818 605.141 41.1928 606.998C41.1039 609.11 41.749 610.922 43.0836 612.523C43.2392 612.712 43.3839 612.901 43.5173 613.101C43.9956 613.824 43.9066 614.324 43.2504 614.88C41.8489 616.059 40.4587 617.248 39.0573 618.427C38.2232 619.127 37.7004 619.116 36.8551 618.427C35.7207 617.504 34.8309 616.37 34.0412 615.158C33.8522 614.869 33.7521 614.88 33.5185 615.103C32.117 616.47 30.6378 617.737 28.7582 618.371C25.8553 619.361 22.9078 619.516 19.9938 618.482C17.191 617.482 15.5116 615.414 14.8887 612.534C14.1991 609.321 14.555 606.264 16.5347 603.54C18.0363 601.484 20.1161 600.272 22.5074 599.527C24.9765 598.771 27.5234 598.482 30.0815 598.226C30.8045 598.148 31.5164 598.082 32.2393 598.015C32.4172 598.004 32.5729 597.982 32.5618 597.748C32.5396 596.57 32.6619 595.369 32.3839 594.213C32.0279 592.734 31.0602 591.867 29.581 591.545C28.5245 591.311 27.479 591.378 26.4557 591.722C24.8986 592.256 23.9309 593.335 23.5417 594.935C23.3304 595.814 22.9188 596.125 22.0624 596.036C20.2384 595.847 18.4143 595.658 16.6014 595.469C15.8562 595.391 15.467 594.824 15.6227 594.101C16.568 589.488 19.5933 586.897 23.9532 585.708C27.3011 584.796 30.6933 584.741 34.0522 585.686C36.7549 586.441 39.0239 587.776 40.2918 590.422C41.0148 591.922 41.1816 593.546 41.2039 595.169C41.2261 597.248 41.2039 599.349 41.2151 601.439ZM32.5619 604.908C32.5619 604.352 32.5397 603.796 32.573 603.24C32.5953 602.895 32.4729 602.773 32.1282 602.807C31.2828 602.884 30.4265 602.895 29.5811 603.007C28.1019 603.196 26.6559 603.563 25.4548 604.496C23.7085 605.864 23.3415 607.732 23.6306 609.833C23.9755 612.301 26.1777 613.668 28.5356 612.846C30.1372 612.29 31.1159 611.111 31.7944 609.633C32.5062 608.132 32.5619 606.52 32.5619 604.908Z" fill="#ECECEC"/>
<path d="M28.4466 630C19.9603 629.944 12.3416 627.766 5.45686 623.174C4.05544 622.24 2.72075 621.217 1.45286 620.094C1.34167 619.994 1.23038 619.894 1.14143 619.772C1.01907 619.605 0.930112 619.405 1.07471 619.205C1.21931 618.983 1.46403 618.96 1.67534 619.06C2.16469 619.294 2.63189 619.55 3.11007 619.794C7.4923 622.107 12.108 623.774 16.9462 624.83C21.3283 625.786 25.755 626.231 30.2484 626.109C36.666 625.931 42.8499 624.641 48.8003 622.251C49.0895 622.129 49.3899 622.006 49.6902 621.94C50.1129 621.862 50.5355 621.917 50.7246 622.373C50.9025 622.796 50.6689 623.129 50.3575 623.396C50.135 623.585 49.8792 623.741 49.6234 623.908C45.7863 626.398 41.582 627.999 37.1332 628.988C34.1968 629.655 31.2161 629.978 28.4466 630Z" fill="#F6A61F"/>
<path d="M49.857 620.094C48.5779 620.083 47.31 620.25 46.0421 620.383C45.7974 620.406 45.5193 620.472 45.4081 620.206C45.2747 619.905 45.5305 619.727 45.7418 619.583C47.3212 618.538 49.0896 618.127 50.9471 618.027C52.2261 617.949 53.494 618.004 54.7397 618.382C55.307 618.549 55.585 618.883 55.5739 619.461C55.5072 622.551 54.4728 625.242 52.2373 627.432C52.1594 627.51 52.0704 627.577 51.9815 627.643C51.7813 627.788 51.5366 627.921 51.3252 627.743C51.1251 627.577 51.2363 627.332 51.3252 627.132C51.9815 625.498 52.6488 623.874 52.9712 622.129C53.0158 621.907 53.0269 621.684 53.0381 621.473C53.0491 620.75 52.7933 620.439 52.0815 620.261C51.3363 620.061 50.5911 620.094 49.857 620.094Z" fill="#F6A61F"/>
<g clip-path="url(#clip1_0_1)">
<path d="M39.9452 537.104C39.9452 546.018 31.4505 553.243 20.9721 553.243C10.493 553.243 2 546.018 2 537.104C2 528.191 10.493 520.968 20.9721 520.968C31.4504 520.968 39.9452 528.191 39.9452 537.104Z" fill="#58595B"/>
<path d="M7.85312 555.393L10.3085 548.516L15.8461 551.233" fill="#58595B"/>
<path d="M22.5253 548.83C22.5253 556.224 29.5702 562.217 38.2642 562.217C46.9557 562.217 53.9999 556.224 53.9999 548.83C53.9999 541.438 46.9556 535.445 38.2642 535.445C29.5702 535.445 22.5253 541.438 22.5253 548.83Z" fill="#58595B"/>
<path d="M49.1453 564L47.1089 558.295L42.5165 560.55" fill="#58595B"/>
<mask id="mask0_0_1" style="mask-type:luminance" maskUnits="userSpaceOnUse" x="2" y="520" width="38" height="35">
<path d="M11.7681 530.912C11.7681 529.45 12.9324 528.264 14.3701 528.264C15.8083 528.264 16.9749 529.45 16.9749 530.912C16.9749 532.375 15.8082 533.562 14.3701 533.562C12.9324 533.562 11.7681 532.375 11.7681 530.912ZM24.543 530.912C24.543 529.45 25.7085 528.264 27.1461 528.264C28.5833 528.264 29.7482 529.45 29.7482 530.912C29.7482 532.375 28.5833 533.562 27.1461 533.562C25.7084 533.562 24.543 532.375 24.543 530.912ZM2.49286 533.435C2.31325 534.328 2.22017 535.244 2.22017 536.181C2.22017 541.381 5.08516 546.002 9.52144 548.936L9.2421 549.79L7.69213 554.52L12.8662 551.701L13.9555 551.106C16.0751 551.834 18.3847 552.238 20.8055 552.238C21.5515 552.238 22.2847 552.201 23.0061 552.126C23.1228 552.115 23.2394 552.103 23.355 552.09C22.8703 550.79 22.609 549.407 22.609 547.97C22.609 540.549 29.5811 534.533 38.1848 534.533C38.5595 534.533 38.9303 534.546 39.2994 534.567C39.0907 532.773 38.5425 531.067 37.7078 529.496C34.7739 523.966 28.3093 520.127 20.8055 520.127C11.6267 520.127 3.99951 525.877 2.49286 533.435Z" fill="white"/>
</mask>
<g mask="url(#mask0_0_1)">
<path d="M39.2993 520.127H2.22002V554.52H39.2993V520.127Z" fill="url(#paint4_radial_0_1)"/>
</g>
<mask id="mask1_0_1" style="mask-type:luminance" maskUnits="userSpaceOnUse" x="2" y="520" width="38" height="35">
<path d="M9.63803 548.976C9.65503 548.922 9.63475 548.863 9.58873 548.831C5.18043 545.915 2.34497 541.333 2.34497 536.182C2.34611 531.79 4.40542 527.809 7.74465 524.924C11.085 522.039 15.7027 520.251 20.8066 520.251C25.9112 520.251 30.5293 522.039 33.8684 524.924C37.2088 527.809 39.2692 531.79 39.2692 536.182C39.2692 540.576 37.2088 544.554 33.8684 547.44C30.5292 550.326 25.9111 552.113 20.8066 552.113C18.4006 552.113 16.1019 551.712 13.9943 550.988C13.9621 550.978 13.9271 550.98 13.8969 550.997L7.90627 554.26L9.63803 548.976ZM7.58538 524.733C4.20002 527.659 2.09906 531.708 2.09906 536.182C2.09906 541.4 4.95636 546.032 9.3747 548.988L7.5755 554.479C7.55948 554.529 7.57441 554.582 7.61216 554.615C7.63571 554.634 7.66364 554.643 7.69213 554.643L7.75017 554.629L13.9665 551.243C16.0855 551.965 18.3929 552.364 20.8067 552.364C25.9676 552.364 30.6416 550.557 34.029 547.632C37.4137 544.705 39.5147 540.657 39.5135 536.182C39.5147 531.708 37.4137 527.659 34.029 524.733C30.6416 521.807 25.9675 520 20.8066 520C15.6468 520 10.9728 521.807 7.58538 524.733Z" fill="white"/>
</mask>
<g mask="url(#mask1_0_1)">
<path d="M39.5146 520H2.09906V554.643H39.5146V520Z" fill="url(#paint5_linear_0_1)"/>
</g>
<mask id="mask2_0_1" style="mask-type:luminance" maskUnits="userSpaceOnUse" x="22" y="534" width="32" height="30">
<path d="M31.3557 544.025C31.3557 542.853 32.2878 541.904 33.4374 541.904C34.5898 541.904 35.522 542.853 35.522 544.025C35.522 545.197 34.5898 546.146 33.4374 546.146C32.2878 546.146 31.3557 545.197 31.3557 544.025ZM41.6123 544.025C41.6123 542.853 42.5455 541.904 43.6973 541.904C44.8459 541.904 45.7792 542.853 45.7792 544.025C45.7792 545.197 44.8459 546.146 43.6973 546.146C42.5456 546.146 41.6123 545.197 41.6123 544.025ZM22.609 547.97C22.609 549.406 22.8703 550.79 23.355 552.089C25.3705 557.493 31.2483 561.405 38.1848 561.405C40.2808 561.405 42.2788 561.045 44.1071 560.395L45.0475 560.912L49.1902 563.192L47.9918 559.354L47.7454 558.569C51.404 556.112 53.759 552.279 53.759 547.97C53.759 547.072 53.6572 546.196 53.4633 545.349C52.1455 539.605 46.5853 535.178 39.7179 534.598C39.5787 534.588 39.4385 534.577 39.2994 534.567C38.9303 534.546 38.5595 534.533 38.1848 534.533C29.5811 534.533 22.609 540.549 22.609 547.97Z" fill="white"/>
</mask>
<g mask="url(#mask2_0_1)">
<path d="M53.759 534.533H22.609V563.192H53.759V534.533Z" fill="url(#paint6_radial_0_1)"/>
</g>
<mask id="mask3_0_1" style="mask-type:luminance" maskUnits="userSpaceOnUse" x="22" y="534" width="32" height="30">
<path d="M27.2508 557.374C24.4543 554.962 22.7323 551.639 22.7323 547.97C22.7323 544.3 24.4543 540.976 27.2508 538.564C30.0445 536.154 33.91 534.658 38.1833 534.658C42.4558 534.658 46.3236 536.154 49.1178 538.564C51.9112 540.976 53.6352 544.3 53.6352 547.97C53.6352 552.231 51.3075 556.025 47.6785 558.466C47.6315 558.496 47.6106 558.555 47.6281 558.608L48.9798 562.935L44.165 560.286L44.107 560.27L44.0654 560.278C42.253 560.921 40.2677 561.279 38.1832 561.279C33.91 561.279 30.0445 559.785 27.2508 557.374ZM27.0913 538.373C24.2488 540.825 22.4847 544.218 22.4858 547.97C22.4847 551.721 24.2488 555.114 27.0913 557.566C29.9322 560.016 33.8547 561.53 38.1833 561.53C40.2753 561.53 42.2696 561.174 44.0955 560.532L49.1311 563.302L49.1891 563.319C49.2176 563.319 49.245 563.308 49.2679 563.29C49.3063 563.256 49.3217 563.203 49.3063 563.155L47.8911 558.623C51.5332 556.144 53.8817 552.297 53.8817 547.97C53.8817 544.218 52.1192 540.825 49.2756 538.373C46.4342 535.922 42.5132 534.41 38.1833 534.408C33.8548 534.41 29.9322 535.922 27.0913 538.373Z" fill="white"/>
</mask>
<g mask="url(#mask3_0_1)">
<path d="M53.8816 534.408H22.4846V563.319H53.8816V534.408Z" fill="url(#paint7_linear_0_1)"/>
</g>
<mask id="mask4_0_1" style="mask-type:luminance" maskUnits="userSpaceOnUse" x="31" y="541" width="5" height="6">
<path d="M31.3557 544.025C31.3557 545.197 32.2878 546.146 33.4374 546.146C34.5898 546.146 35.522 545.197 35.522 544.025C35.522 542.853 34.5898 541.904 33.4374 541.904C32.2878 541.904 31.3557 542.853 31.3557 544.025Z" fill="white"/>
</mask>
<g mask="url(#mask4_0_1)">
<path d="M35.522 541.904H31.3557V546.146H35.522V541.904Z" fill="url(#paint8_radial_0_1)"/>
</g>
<mask id="mask5_0_1" style="mask-type:luminance" maskUnits="userSpaceOnUse" x="41" y="541" width="5" height="6">
<path d="M41.6123 544.025C41.6123 545.197 42.5455 546.146 43.6973 546.146C44.8459 546.146 45.7792 545.197 45.7792 544.025C45.7792 542.853 44.8459 541.904 43.6973 541.904C42.5456 541.904 41.6123 542.853 41.6123 544.025Z" fill="white"/>
</mask>
<g mask="url(#mask5_0_1)">
<path d="M45.7792 541.904H41.6123V546.146H45.7792V541.904Z" fill="url(#paint9_radial_0_1)"/>
</g>
<mask id="mask6_0_1" style="mask-type:luminance" maskUnits="userSpaceOnUse" x="24" y="528" width="6" height="6">
<path d="M24.543 530.912C24.543 532.375 25.7085 533.562 27.1461 533.562C28.5833 533.562 29.7482 532.375 29.7482 530.912C29.7482 529.45 28.5833 528.264 27.1461 528.264C25.7084 528.264 24.543 529.45 24.543 530.912Z" fill="white"/>
</mask>
<g mask="url(#mask6_0_1)">
<path d="M29.7482 528.264H24.543V533.562H29.7482V528.264Z" fill="url(#paint10_radial_0_1)"/>
</g>
<mask id="mask7_0_1" style="mask-type:luminance" maskUnits="userSpaceOnUse" x="11" y="528" width="6" height="6">
<path d="M11.7681 530.912C11.7681 532.375 12.9324 533.562 14.3701 533.562C15.8083 533.562 16.9749 532.375 16.9749 530.912C16.9749 529.45 15.8082 528.264 14.3701 528.264C12.9324 528.264 11.7681 529.45 11.7681 530.912Z" fill="white"/>
</mask>
<g mask="url(#mask7_0_1)">
<path d="M16.9749 528.264H11.7681V533.562H16.9749V528.264Z" fill="url(#paint11_radial_0_1)"/>
</g>
<mask id="mask8_0_1" style="mask-type:luminance" maskUnits="userSpaceOnUse" x="31" y="541" width="5" height="5">
<path d="M31.3547 543.656C31.3547 544.827 32.2868 545.776 33.4374 545.776C34.5898 545.776 35.522 544.827 35.522 543.656C35.522 542.487 34.5898 541.536 33.4374 541.536C32.2868 541.536 31.3547 542.487 31.3547 543.656Z" fill="white"/>
</mask>
<g mask="url(#mask8_0_1)">
<path d="M35.522 541.536H31.3547V545.776H35.522V541.536Z" fill="url(#paint12_linear_0_1)"/>
</g>
<mask id="mask9_0_1" style="mask-type:luminance" maskUnits="userSpaceOnUse" x="41" y="541" width="5" height="5">
<path d="M41.6123 543.656C41.6123 544.827 42.5455 545.776 43.6963 545.776C44.847 545.776 45.7801 544.827 45.7801 543.656C45.7801 542.487 44.847 541.536 43.6963 541.536C42.5456 541.536 41.6123 542.487 41.6123 543.656Z" fill="white"/>
</mask>
<g mask="url(#mask9_0_1)">
<path d="M45.7801 541.536H41.6123V545.776H45.7801V541.536Z" fill="url(#paint13_linear_0_1)"/>
</g>
<mask id="mask10_0_1" style="mask-type:luminance" maskUnits="userSpaceOnUse" x="24" y="527" width="6" height="7">
<path d="M24.5419 530.544C24.5419 532.006 25.7073 533.192 27.145 533.192C28.5822 533.192 29.7482 532.006 29.7482 530.544C29.7482 529.081 28.5822 527.895 27.145 527.895C25.7073 527.895 24.5419 529.081 24.5419 530.544Z" fill="white"/>
</mask>
<g mask="url(#mask10_0_1)">
<path d="M29.7481 527.895H24.5419V533.192H29.7481V527.895Z" fill="url(#paint14_linear_0_1)"/>
</g>
<mask id="mask11_0_1" style="mask-type:luminance" maskUnits="userSpaceOnUse" x="11" y="527" width="6" height="7">
<path d="M11.767 530.544C11.767 532.006 12.9324 533.192 14.3701 533.192C15.8083 533.192 16.9739 532.006 16.9739 530.544C16.9739 529.081 15.8083 527.895 14.3701 527.895C12.9324 527.895 11.767 529.081 11.767 530.544Z" fill="white"/>
</mask>
<g mask="url(#mask11_0_1)">
<path d="M16.9738 527.895H11.767V533.192H16.9738V527.895Z" fill="url(#paint15_linear_0_1)"/>
</g>
</g>
<g clip-path="url(#clip2_0_1)">
<path opacity="0.45" d="M51.1429 441H4.85714C2.7269 441 1 439.293 1 437.188V391.447C1 389.342 2.7269 387.635 4.85714 387.635H51.1429C53.2731 387.635 55 389.342 55 391.447V437.188C55 439.293 53.2731 441 51.1429 441Z" fill="url(#paint16_linear_0_1)"/>
<mask id="mask12_0_1" style="mask-type:luminance" maskUnits="userSpaceOnUse" x="-3" y="392" width="62" height="53">
<path d="M58.8571 392.082H-2.85715V444.176H58.8571V392.082Z" fill="white"/>
</mask>
<g mask="url(#mask12_0_1)">
<path d="M51.0786 387H4.92143C2.75568 387 1 388.707 1 390.812V436.553C1 438.658 2.75568 440.365 4.92143 440.365H51.0786C53.2443 440.365 55 438.658 55 436.553V390.812C55 388.707 53.2443 387 51.0786 387Z" fill="url(#paint17_linear_0_1)"/>
</g>
<path opacity="0.15" d="M4.85714 387C2.72029 387 1 388.7 1 390.812V392.082V435.282V436.553C1 436.766 1.02658 436.966 1.06027 437.168C1.09157 437.356 1.12265 437.548 1.1808 437.724C1.18715 437.744 1.19423 437.765 1.20089 437.784C1.26445 437.967 1.35189 438.132 1.44196 438.3C1.53492 438.474 1.64486 438.64 1.76339 438.796C1.88193 438.952 2.00368 439.097 2.14509 439.233C2.42791 439.505 2.75125 439.751 3.10937 439.928C3.28844 440.017 3.47804 440.085 3.67187 440.146C3.50717 440.083 3.35899 439.996 3.20982 439.908C3.20506 439.905 3.19448 439.911 3.18973 439.908C3.1692 439.896 3.14969 439.881 3.12946 439.868C3.05207 439.82 2.98095 439.765 2.90848 439.71C2.84023 439.658 2.77137 439.607 2.70759 439.551C2.59321 439.448 2.48422 439.331 2.38616 439.213C2.317 439.13 2.24576 439.045 2.18527 438.955C2.16914 438.931 2.16055 438.901 2.14509 438.876C2.10346 438.81 2.06137 438.746 2.02455 438.677C1.95962 438.554 1.89233 438.413 1.84375 438.28C1.83863 438.266 1.82859 438.254 1.82366 438.24C1.8032 438.182 1.80064 438.122 1.78348 438.062C1.76398 437.994 1.73823 437.933 1.72321 437.863C1.67636 437.646 1.64286 437.42 1.64286 437.188V435.918V392.718V391.447C1.64286 389.68 3.06881 388.271 4.85714 388.271H6.14286H49.8571H51.1429C52.9312 388.271 54.3571 389.68 54.3571 391.447V392.718V435.918V437.188C54.3571 437.42 54.3236 437.646 54.2768 437.863C54.2484 437.995 54.22 438.116 54.1763 438.24C54.1714 438.254 54.1614 438.266 54.1562 438.28C54.1159 438.391 54.0673 438.514 54.0156 438.618C53.9889 438.67 53.9648 438.726 53.9353 438.776C53.9002 438.838 53.8538 438.896 53.8147 438.955C53.7542 439.045 53.683 439.13 53.6138 439.213C53.5218 439.324 53.419 439.434 53.3125 439.531C53.3053 439.537 53.2997 439.544 53.2924 439.551C53.2034 439.631 53.1091 439.7 53.0112 439.769C52.9452 439.816 52.8798 439.867 52.8103 439.908C52.8055 439.911 52.7949 439.905 52.7902 439.908C52.641 439.996 52.4928 440.083 52.3281 440.146C52.522 440.085 52.7116 440.017 52.8906 439.928C53.2488 439.751 53.5721 439.505 53.8549 439.233C53.9963 439.097 54.1181 438.952 54.2366 438.796C54.3551 438.64 54.4651 438.474 54.558 438.3C54.6481 438.132 54.7356 437.967 54.7991 437.784C54.8058 437.764 54.8128 437.744 54.8192 437.724C54.8773 437.548 54.9084 437.356 54.9397 437.168C54.9734 436.966 55 436.766 55 436.553V435.282V392.082V390.812C55 388.7 53.2797 387 51.1429 387H4.85714Z" fill="url(#paint18_linear_0_1)"/>
<path opacity="0.1" d="M4.85714 440.365C2.72029 440.365 1 438.665 1 436.553V435.282V392.082V390.812C1 390.599 1.02658 390.398 1.06027 390.196C1.09157 390.009 1.12265 389.817 1.1808 389.64C1.18717 389.621 1.19423 389.6 1.20089 389.581C1.26445 389.398 1.35189 389.233 1.44196 389.065C1.53492 388.891 1.64486 388.724 1.76339 388.568C1.88193 388.412 2.00368 388.268 2.14509 388.132C2.42791 387.86 2.75125 387.614 3.10937 387.437C3.28844 387.348 3.47804 387.28 3.67187 387.218C3.50717 387.282 3.35899 387.368 3.20982 387.457C3.20506 387.459 3.19448 387.454 3.18973 387.457C3.16921 387.469 3.14969 387.484 3.12946 387.496C3.05207 387.545 2.98095 387.6 2.90848 387.655C2.84023 387.706 2.77137 387.758 2.70759 387.814C2.59321 387.917 2.48422 388.033 2.38616 388.151C2.317 388.234 2.24576 388.32 2.18527 388.41C2.16914 388.434 2.16055 388.464 2.14509 388.489C2.10346 388.554 2.06137 388.619 2.02455 388.688C1.95962 388.811 1.89233 388.952 1.84375 389.085C1.83861 389.098 1.82858 389.11 1.82366 389.124C1.8032 389.183 1.80065 389.243 1.78348 389.303C1.76398 389.371 1.73823 389.432 1.72321 389.501C1.67636 389.718 1.64286 389.945 1.64286 390.176V391.447V434.647V435.918C1.64286 437.685 3.06881 439.094 4.85714 439.094H6.14286H49.8571H51.1429C52.9312 439.094 54.3571 437.685 54.3571 435.918V434.647V391.447V390.176C54.3571 389.945 54.3236 389.718 54.2768 389.501C54.2484 389.37 54.22 389.249 54.1763 389.124C54.1714 389.11 54.1614 389.098 54.1562 389.085C54.1159 388.974 54.0673 388.851 54.0156 388.747C53.9889 388.694 53.9648 388.639 53.9353 388.588C53.9002 388.526 53.8538 388.469 53.8147 388.41C53.7542 388.32 53.683 388.234 53.6138 388.151C53.5218 388.041 53.419 387.931 53.3125 387.834C53.3053 387.827 53.2997 387.82 53.2924 387.814C53.2034 387.734 53.1091 387.665 53.0112 387.596C52.9452 387.549 52.8798 387.498 52.8103 387.457C52.8055 387.454 52.7949 387.459 52.7902 387.457C52.641 387.368 52.4928 387.282 52.3281 387.218C52.522 387.28 52.7116 387.348 52.8906 387.437C53.2488 387.614 53.5721 387.86 53.8549 388.132C53.9963 388.268 54.1181 388.412 54.2366 388.568C54.3551 388.724 54.4651 388.891 54.558 389.065C54.6481 389.233 54.7356 389.398 54.7991 389.581C54.8058 389.6 54.8128 389.621 54.8192 389.64C54.8773 389.817 54.9084 390.009 54.9397 390.196C54.9734 390.398 55 390.599 55 390.812V392.082V435.282V436.553C55 438.665 53.2797 440.365 51.1429 440.365H4.85714Z" fill="url(#paint19_radial_0_1)"/>
<path d="M4.85714 387C2.72029 387 1 388.7 1 390.812V393.353H13.8571V387H4.85714Z" fill="#D91F1C"/>
<path d="M13.8571 387V393.353H28V387H13.8571Z" fill="#4776EC"/>
<path d="M28 387V393.353H42.1429V387H28Z" fill="#22A938"/>
<path d="M42.1429 387V393.353H55V390.812C55 388.7 53.2797 387 51.1429 387H42.1429Z" fill="#EEB91C"/>
<path opacity="0.3" d="M55 393.353H1V395.259H55V393.353Z" fill="url(#paint20_linear_0_1)"/>
<path opacity="0.3" d="M4.85714 387C2.72029 387 1 388.7 1 390.812V392.082H13.8571H28H42.1429H55V390.812C55 388.7 53.2797 387 51.1429 387H42.1429H28H13.8571H4.85714Z" fill="url(#paint21_linear_0_1)"/>
<path opacity="0.2" d="M4.85714 387C2.72029 387 1 388.7 1 390.812V392.082V393.353H1.64286V392.718V391.447C1.64286 389.68 3.06881 388.271 4.85714 388.271H6.14286H49.8571H51.1429C52.9312 388.271 54.3571 389.68 54.3571 391.447V392.718V393.353H55V392.082V390.812C55 388.7 53.2797 387 51.1429 387H13.8571H4.85714Z" fill="url(#paint22_linear_0_1)"/>
<path opacity="0.05" d="M25.067 401.651C22.7573 401.651 19.6582 401.992 17.0312 404.133C16.9736 404.184 16.9259 404.244 16.8906 404.312C16.8761 404.331 16.8627 404.351 16.8504 404.371C14.9737 406.067 13.9978 408.31 13.9978 410.446C13.9978 414.126 16.942 417.754 21.6719 417.911C21.65 418.029 21.6116 418.062 21.6116 418.209C21.6116 418.897 21.7869 419.444 22.0134 419.936C20.2119 420.101 18.005 420.439 15.9263 421.624C15.9059 421.629 15.8858 421.636 15.8661 421.643C15.8031 421.654 15.7421 421.674 15.6853 421.703C12.9293 423.318 11.9688 425.807 11.9688 427.659C11.9688 429.529 12.9009 431.358 14.6205 432.622C16.3351 433.883 18.7808 434.607 21.9129 434.607C29.3421 434.607 33.8259 430.371 33.8259 425.813C33.8259 424.185 33.296 422.863 32.5402 421.822C31.7906 420.789 30.8615 420.003 29.9687 419.261C29.9372 419.238 29.9036 419.218 29.8683 419.201C29.849 419.187 29.8289 419.174 29.808 419.162L28.5223 418.129C28.5223 418.129 28.5041 418.13 28.5022 418.129C28.4924 418.121 28.4918 418.117 28.4821 418.11C28.2642 417.933 28.0798 417.793 28 417.693C27.9167 417.588 27.8996 417.543 27.8996 417.375C27.8996 417.222 27.9343 417.113 28.0603 416.938C28.1863 416.763 28.4105 416.553 28.683 416.283C30.3911 414.949 32.4397 413.096 32.4397 409.732V409.454V409.434C32.4397 409.411 32.4397 409.374 32.4397 409.374C32.4398 409.368 32.4398 409.361 32.4397 409.354L32.4196 409.096L32.3996 408.878C32.3996 408.878 32.3996 408.853 32.3996 408.818C32.3996 408.796 32.3996 408.779 32.3996 408.779C32.4013 408.752 32.4013 408.726 32.3996 408.699L32.3594 408.441C32.3537 408.421 32.347 408.401 32.3393 408.382C32.3393 408.382 32.3246 408.36 32.3192 408.342V408.322L32.2991 408.263L32.279 408.183V408.163C32.2734 408.143 32.2666 408.123 32.2589 408.104V408.004C32.255 407.971 32.2483 407.938 32.2388 407.905L32.2187 407.846L32.1987 407.786L32.1585 407.607L32.1384 407.548L32.1183 407.488L32.0379 407.27L31.9576 407.051L31.8772 406.833L31.817 406.694L31.7969 406.635L31.7768 406.575C31.7711 406.555 31.7644 406.535 31.7567 406.515L31.6562 406.317C31.6435 406.303 31.6301 406.29 31.6161 406.277V406.257C31.6033 406.244 31.5899 406.23 31.5759 406.218L31.5156 406.099L31.4353 405.96C31.4353 405.96 31.4252 405.94 31.4152 405.92C31.4051 405.9 31.3951 405.88 31.3951 405.88C31.3829 405.86 31.3695 405.84 31.3549 405.821L31.3147 405.761L31.2946 405.721C31.2881 405.715 31.2814 405.708 31.2746 405.701L31.2545 405.682L31.2344 405.622C31.2344 405.622 31.2037 405.583 31.1942 405.563C31.1918 405.557 31.1942 405.543 31.1942 405.543C31.1942 405.543 31.1849 405.522 31.1741 405.503C31.1963 405.496 31.2143 405.483 31.2143 405.483L31.2946 405.443L31.375 405.424L31.4353 405.384L34.0268 403.954L34.1071 403.895L34.2076 403.835L34.2679 403.776L34.3482 403.696L34.4085 403.617L34.4687 403.538L34.529 403.458L34.5692 403.359L34.6094 403.279L34.6295 403.18L34.6496 403.081L34.6696 402.982V402.882V402.763L34.6496 402.664L34.6295 402.565L34.5893 402.485L34.5692 402.386L34.5089 402.287L34.4687 402.207L34.4085 402.128L34.3281 402.049L34.2679 401.969L34.1875 401.91L34.1071 401.85L34.0067 401.79L33.9263 401.751L33.8259 401.711L33.7254 401.691L33.625 401.671L33.5246 401.651H33.4241H25.067ZM39.3504 401.651C39.3436 401.658 39.3369 401.665 39.3304 401.671L39.2299 401.691L39.1295 401.731L39.029 401.771L38.9286 401.81L38.8281 401.87L38.7478 401.949L38.6674 402.009L38.6071 402.108L38.5469 402.188L38.4866 402.267L38.4263 402.366L38.3862 402.465L38.3661 402.585L38.346 402.684L38.3259 402.783C38.3259 402.783 38.3265 402.858 38.3259 402.882C38.3258 402.887 38.3259 402.902 38.3259 402.902V406.734H34.4286H34.3683H34.308L34.2478 406.754H34.1875L34.1272 406.774L34.067 406.793L34.0067 406.813L33.9464 406.833L33.9062 406.853L33.846 406.873L33.7857 406.913L33.7455 406.932L33.6853 406.972L33.6451 407.012L33.5848 407.051L33.5446 407.091L33.5045 407.131L33.4643 407.19L33.4241 407.23L33.3839 407.29L33.3638 407.329L33.3237 407.389L33.3036 407.449L33.2835 407.488L33.2634 407.548L33.2433 407.607L33.2232 407.667L33.2031 407.726V407.786L33.183 407.846V407.905V407.965V409.235V409.295V409.354L33.2031 409.414V409.474L33.2232 409.533L33.2433 409.593L33.2634 409.652L33.2835 409.712L33.3036 409.751L33.3237 409.811L33.3638 409.871L33.3839 409.91L33.4241 409.97L33.4643 410.01L33.5045 410.069L33.5446 410.109L33.5848 410.149L33.6451 410.188L33.6853 410.228L33.7455 410.268L33.7857 410.288L33.846 410.327L33.9062 410.347L33.9464 410.367L34.0067 410.387L34.067 410.407L34.1272 410.426L34.1875 410.446H34.2478L34.308 410.466H34.3683H34.4286H38.3259V414.318V414.377V414.437L38.346 414.496V414.556L38.3661 414.615L38.3862 414.675L38.4062 414.735L38.4263 414.794L38.4464 414.834L38.4665 414.893L38.5067 414.953L38.5268 414.993L38.567 415.052L38.6071 415.092L38.6473 415.151L38.6875 415.191L38.7277 415.231L38.7879 415.271L38.8281 415.31L38.8884 415.35L38.9286 415.37L38.9888 415.41L39.0491 415.429L39.0893 415.449L39.1496 415.469L39.2098 415.489L39.2701 415.509L39.3304 415.529H39.3906L39.4509 415.549H39.5112H39.5714H40.8571H40.9174H40.9777L41.0379 415.529H41.0982L41.1585 415.509L41.2187 415.489L41.279 415.469L41.3393 415.449L41.3795 415.429L41.4397 415.41L41.5 415.37L41.5402 415.35L41.6004 415.31L41.6406 415.271L41.7009 415.231L41.7411 415.191L41.7812 415.151L41.8214 415.092L41.8616 415.052L41.9018 414.993L41.9219 414.953L41.9621 414.893L41.9821 414.834L42.0022 414.794L42.0223 414.735L42.0424 414.675L42.0625 414.615L42.0826 414.556V414.496L42.1027 414.437V414.377V414.318V410.466H46H46.0603H46.1205L46.1808 410.446H46.2411L46.3013 410.426L46.3616 410.407L46.4219 410.387L46.4821 410.367L46.5223 410.347L46.5826 410.327L46.6429 410.288L46.683 410.268L46.7433 410.228L46.7835 410.188L46.8437 410.149L46.8839 410.109L46.9241 410.069L46.9643 410.01L47.0045 409.97L47.0446 409.91L47.0647 409.871L47.1049 409.811L47.125 409.751L47.1451 409.712L47.1652 409.652L47.1853 409.593L47.2054 409.533L47.2254 409.474V409.414L47.2455 409.354V409.295V409.235V407.965V407.905V407.846L47.2254 407.786V407.726L47.2054 407.667L47.1853 407.607L47.1652 407.548L47.1451 407.488L47.125 407.449L47.1049 407.389L47.0647 407.329L47.0446 407.29L47.0045 407.23L46.9643 407.19L46.9241 407.131L46.8839 407.091L46.8437 407.051L46.7835 407.012L46.7433 406.972L46.683 406.932L46.6429 406.913L46.5826 406.873L46.5223 406.853L46.4821 406.833L46.4219 406.813L46.3616 406.793L46.3013 406.774L46.2411 406.754H46.1808L46.1205 406.734H46.0603H46H42.1027V402.882V402.823V402.763L42.0826 402.704V402.644L42.0625 402.585L42.0424 402.525L42.0223 402.465L42.0022 402.406L41.9821 402.366L41.9621 402.307L41.9219 402.247L41.9018 402.207L41.8616 402.148L41.8214 402.108L41.7812 402.049L41.7411 402.009L41.7009 401.969L41.6406 401.929L41.6004 401.89L41.5402 401.85L41.5 401.83L41.4397 401.79L41.3795 401.771L41.3393 401.751L41.279 401.731L41.2187 401.711L41.1585 401.691L41.0982 401.671H41.0379L40.9777 401.651H40.9174H40.8571H39.5915C39.5915 401.651 39.5791 401.651 39.5714 401.651C39.556 401.651 39.5544 401.651 39.5312 401.651C39.5312 401.651 39.5142 401.651 39.4911 401.651C39.4564 401.651 39.4308 401.651 39.4308 401.651C39.404 401.65 39.3772 401.65 39.3504 401.651ZM22.5357 405.424C23.6638 405.424 24.5396 406.128 25.2679 407.389C25.9896 408.639 26.3929 410.367 26.3929 411.558V411.618V411.638C26.3893 411.66 26.3929 411.697 26.3929 411.697L26.3728 411.776V411.856V411.935C26.3714 411.941 26.3728 411.955 26.3728 411.955V412.015V412.035C26.3721 412.04 26.3737 412.046 26.3728 412.054C26.3706 412.073 26.3527 412.094 26.3527 412.094C26.3485 412.112 26.3527 412.134 26.3527 412.134C26.3521 412.144 26.3527 412.154 26.3527 412.154C26.3526 412.16 26.3526 412.167 26.3527 412.174C26.3511 412.183 26.3539 412.186 26.3527 412.193C26.3515 412.201 26.3527 412.213 26.3527 412.213L26.3326 412.293C26.3322 412.306 26.3322 412.319 26.3326 412.332C26.3321 412.352 26.3326 412.372 26.3326 412.372C26.3241 412.398 26.3174 412.425 26.3125 412.451C26.3124 412.458 26.3124 412.465 26.3125 412.471V412.511C26.3125 412.531 26.3125 412.551 26.3125 412.551L26.2924 412.61L26.2522 412.71L26.2121 412.809C26.2049 412.822 26.1982 412.835 26.192 412.849C26.192 412.849 26.1964 412.87 26.192 412.888L26.1719 412.908C26.1647 412.921 26.158 412.934 26.1518 412.948L26.1116 413.047C26.1116 413.047 26.1017 413.078 26.0915 413.107C26.0843 413.127 26.0714 413.146 26.0714 413.146L26.0312 413.206L25.971 413.305C25.9709 413.312 25.9709 413.318 25.971 413.325C25.9641 413.331 25.9574 413.338 25.9509 413.345L25.9308 413.385C25.9236 413.398 25.9169 413.411 25.9107 413.424C25.9078 413.427 25.9107 413.444 25.9107 413.444L25.8906 413.464C25.8838 413.47 25.8771 413.477 25.8705 413.484L25.8504 413.504C25.8364 413.516 25.823 413.53 25.8103 413.543C25.8103 413.543 25.7893 413.562 25.7701 413.583C25.77 413.59 25.77 413.596 25.7701 413.603L25.7299 413.623C25.3774 413.971 24.4579 414.377 23.8616 414.377C22.6475 414.377 21.812 413.676 21.1094 412.451C20.4148 411.241 20.0446 409.576 20.0446 408.481C20.0446 407.609 20.2311 406.811 20.6674 406.277C21.0241 405.837 21.9252 405.424 22.5357 405.424ZM24.5045 423.291H24.5446H24.5848H24.625H24.6652H24.6853H24.7254H24.7455H24.7857H24.8259H24.846H24.9062H24.9665C24.9759 423.293 24.9775 423.289 24.9866 423.291C24.9957 423.293 25.0007 423.29 25.0067 423.291C26.3359 424.234 27.3539 425.034 27.8795 425.614C28.4716 426.267 28.6228 426.609 28.6228 427.381C28.6228 428.293 28.3107 428.927 27.5781 429.485C26.8567 430.035 25.6487 430.458 23.9018 430.458C21.9356 430.458 20.4067 429.982 19.442 429.307C18.4667 428.624 18.0357 427.84 18.0357 426.805C18.0357 425.741 18.4332 425.214 19 424.74C19.5438 424.287 20.2329 424.003 20.6674 423.847C20.6715 423.846 20.6835 423.849 20.6875 423.847C22.1069 423.383 24.3558 423.291 24.5045 423.291Z" fill="black"/>
<path opacity="0.15" d="M25.067 402.267C22.8192 402.267 19.9002 402.599 17.433 404.61C17.4329 404.616 17.4329 404.623 17.433 404.629C15.5543 406.227 14.6205 408.419 14.6205 410.446C14.6205 413.883 17.3728 417.335 21.9732 417.335C22.1332 417.335 22.295 417.324 22.4554 417.315C22.3688 417.607 22.2344 417.814 22.2344 418.209C22.2344 419.16 22.5888 419.841 22.9777 420.432C21.0515 420.574 18.3241 420.855 16.0067 422.259V422.239C13.435 423.746 12.5915 426.015 12.5915 427.659C12.5915 429.333 13.4047 430.966 14.9821 432.126C16.5596 433.286 18.8785 433.992 21.913 433.992C29.1078 433.992 33.2031 429.973 33.2031 425.812C33.2031 424.312 32.7305 423.134 32.038 422.179C31.3454 421.225 30.4576 420.477 29.567 419.737C29.5603 419.737 29.5536 419.737 29.5469 419.737L28.1205 418.606C28.1163 418.602 28.1047 418.609 28.1005 418.606C27.6453 418.238 27.2768 417.965 27.2768 417.375C27.2768 416.779 27.7022 416.38 28.2411 415.846C29.9386 414.526 31.817 412.89 31.817 409.732V409.434C31.8174 409.421 31.8174 409.407 31.817 409.394L31.7969 409.136L31.7768 408.858C31.7778 408.838 31.7778 408.818 31.7768 408.799L31.7366 408.54C31.7309 408.52 31.7242 408.5 31.7165 408.481L31.6763 408.302L31.6563 408.243L31.6362 408.064C31.6305 408.044 31.6238 408.024 31.6161 408.004L31.5558 407.766C31.5501 407.746 31.5434 407.726 31.5357 407.707L31.4554 407.488L31.375 407.27L31.2946 407.051L31.2143 406.853C31.2086 406.833 31.2019 406.813 31.1942 406.793L31.0938 406.595C31.0872 406.588 31.0805 406.581 31.0737 406.575L30.9732 406.396L30.8728 406.218C30.8666 406.204 30.8599 406.191 30.8527 406.178L30.7522 406.039L30.7321 405.999L30.6518 405.86C30.6404 405.833 30.6269 405.806 30.6116 405.781L30.4911 405.622L30.3705 405.483V405.463L30.2701 405.344C30.2573 405.33 30.2439 405.317 30.2299 405.304L30.1094 405.165L29.9888 405.026C29.9826 405.013 29.9759 405 29.9688 404.987L29.9085 404.927H30.8326C30.9382 404.926 31.0419 404.899 31.1339 404.848L33.7255 403.418C33.8457 403.352 33.9403 403.249 33.9946 403.124C34.0488 402.999 34.0595 402.859 34.025 402.728C33.9906 402.596 33.9129 402.479 33.8041 402.396C33.6954 402.313 33.5617 402.267 33.4241 402.267H25.067ZM39.5112 402.267C39.3566 402.282 39.2131 402.353 39.109 402.467C39.0049 402.581 38.9477 402.729 38.9487 402.882V407.349H34.4286C34.3468 407.349 34.2657 407.365 34.1901 407.396C34.1145 407.427 34.0458 407.472 33.9879 407.529C33.9301 407.586 33.8842 407.654 33.853 407.729C33.8217 407.804 33.8057 407.884 33.8058 407.965V409.235C33.8057 409.316 33.8217 409.396 33.853 409.471C33.8842 409.546 33.9301 409.614 33.9879 409.671C34.0458 409.728 34.1145 409.773 34.1901 409.804C34.2657 409.835 34.3468 409.851 34.4286 409.851H38.9487V414.318C38.9485 414.399 38.9646 414.479 38.9958 414.553C39.0271 414.628 39.0729 414.696 39.1308 414.753C39.1887 414.81 39.2574 414.856 39.333 414.886C39.4086 414.917 39.4896 414.933 39.5714 414.933H40.8571C40.939 414.933 41.02 414.917 41.0956 414.886C41.1712 414.856 41.2399 414.81 41.2978 414.753C41.3556 414.696 41.4015 414.628 41.4328 414.553C41.464 414.479 41.48 414.399 41.4799 414.318V409.851H46C46.0818 409.851 46.1629 409.835 46.2385 409.804C46.3141 409.773 46.3828 409.728 46.4406 409.671C46.4985 409.614 46.5444 409.546 46.5756 409.471C46.6069 409.396 46.6229 409.316 46.6228 409.235V407.965C46.6229 407.884 46.6069 407.804 46.5756 407.729C46.5444 407.654 46.4985 407.586 46.4406 407.529C46.3828 407.472 46.3141 407.427 46.2385 407.396C46.1629 407.365 46.0818 407.349 46 407.349H41.4799V402.882C41.48 402.801 41.464 402.721 41.4328 402.647C41.4015 402.572 41.3556 402.504 41.2978 402.447C41.2399 402.39 41.1712 402.344 41.0956 402.314C41.02 402.283 40.939 402.267 40.8571 402.267H39.5714C39.5514 402.266 39.5312 402.266 39.5112 402.267ZM22.5357 404.808C23.9375 404.808 25.0199 405.722 25.8103 407.091C26.6006 408.46 27.0156 410.24 27.0156 411.558V411.637V411.697C27.002 411.749 26.9952 411.802 26.9955 411.856V411.935V412.015V412.035C26.9835 412.08 26.9768 412.127 26.9755 412.174C26.9753 412.18 26.9753 412.187 26.9755 412.193V412.213C26.9618 412.265 26.955 412.318 26.9554 412.372V412.412V412.451L26.9353 412.491C26.9348 412.504 26.9348 412.518 26.9353 412.531L26.9152 412.63L26.8951 412.729L26.875 412.829L26.8348 412.928L26.7946 413.027C26.7852 413.06 26.7785 413.093 26.7746 413.126L26.7143 413.226C26.698 413.258 26.6846 413.291 26.6741 413.325L26.6339 413.424L26.5737 413.524L26.5134 413.623L26.4933 413.662L26.4531 413.722V413.742L26.3728 413.841C26.3513 413.86 26.3312 413.88 26.3125 413.901V413.921L26.2924 413.94C26.2632 413.964 26.2363 413.991 26.2121 414.02L26.1719 414.06C25.6619 414.563 24.6787 414.993 23.8616 414.993C22.3879 414.993 21.3309 414.08 20.567 412.749C19.8031 411.418 19.4219 409.702 19.4219 408.481C19.4219 407.525 19.6211 406.59 20.1853 405.9C20.6966 405.268 21.6954 404.808 22.5357 404.808ZM24.5045 422.676H24.5446H24.5848H24.625H24.6652H24.6853H24.7255H24.7455H24.7857H24.8259H24.846H24.9063H24.9665H25.0067H25.067C25.0804 422.676 25.0938 422.676 25.1071 422.676C25.14 422.685 25.1736 422.692 25.2076 422.696C25.2132 422.7 25.2221 422.692 25.2277 422.696C26.6626 423.707 27.719 424.51 28.3415 425.197C28.9908 425.914 29.2455 426.493 29.2455 427.381C29.2455 428.452 28.8246 429.322 27.9598 429.982C27.0951 430.641 25.7471 431.074 23.9018 431.074C21.8342 431.074 20.1813 430.574 19.0804 429.803C17.9794 429.032 17.413 428.028 17.413 426.805C17.413 425.568 17.9418 424.812 18.5982 424.264C19.2492 423.721 20.0228 423.43 20.4665 423.271C20.4726 423.269 20.4805 423.273 20.4866 423.271C22.0499 422.761 24.2274 422.676 24.5045 422.676Z" fill="black"/>
<path opacity="0.3" d="M25.067 402.882C22.8811 402.882 20.1426 403.205 17.8348 405.086C16.0943 406.566 15.2433 408.606 15.2433 410.446C15.2433 413.567 17.681 416.72 21.9732 416.72C22.3779 416.72 22.8136 416.679 23.2589 416.64C23.0557 417.12 22.8571 417.529 22.8571 418.209C22.8571 419.448 23.4952 420.208 24.0625 420.929C22.2406 421.049 18.8373 421.255 16.3281 422.775C13.9372 424.176 13.2143 426.218 13.2143 427.659C13.2143 430.62 16.0409 433.376 21.9129 433.376C28.8789 433.376 32.5804 429.574 32.5804 425.813C32.5804 423.051 30.9464 421.694 29.1652 420.214L27.7187 419.082C27.2734 418.721 26.654 418.255 26.654 417.375C26.654 416.494 27.2743 415.93 27.7991 415.41C29.5009 414.089 31.1942 412.693 31.1942 409.732V409.434L31.1741 409.176L31.154 408.898L31.1138 408.64L31.0536 408.401L31.0134 408.163L30.9531 407.925L30.8728 407.707L30.7924 407.488L30.712 407.27L30.6317 407.071L30.5312 406.873L30.4308 406.694L30.3304 406.515L30.2098 406.337L30.1094 406.158L29.9888 405.999L29.8683 405.84L29.7679 405.701L29.6473 405.563L29.5268 405.424L29.4062 405.304L29.2857 405.165L29.1652 405.046L29.0446 404.947L28.9241 404.848L28.8237 404.749L28.7031 404.649L28.6027 404.55L28.5022 404.471L28.4219 404.391L28.3214 404.312H30.8326L33.4241 402.882H25.067ZM39.5714 402.882V407.965H34.4286V409.235H39.5714V414.318H40.8571V409.235H46V407.965H40.8571V402.882H39.5714ZM22.5357 404.193C25.8986 404.193 27.6384 408.677 27.6384 411.558V411.638V411.697V411.776L27.6183 411.856V411.935V412.015V412.114L27.5982 412.193V412.293L27.5781 412.372V412.471L27.558 412.571L27.5379 412.65L27.5179 412.749L27.4978 412.849L27.4777 412.948L27.4576 413.047L27.4174 413.146L27.3772 413.246L27.3571 413.345L27.317 413.444L27.2567 413.543L27.2165 413.643L27.1763 413.742L27.1161 413.841L27.0558 413.94L26.9955 414.04L26.9353 414.119L26.8549 414.218L26.7946 414.318L26.6942 414.397L26.6138 414.496C25.9653 415.136 24.8742 415.608 23.8616 415.608C20.3786 415.608 18.7991 411.161 18.7991 408.481C18.7991 407.44 19.0158 406.363 19.7031 405.523C20.3517 404.722 21.4844 404.193 22.5357 404.193ZM24.5045 422.06H24.5446H24.5848H24.625H24.6652H24.6853H24.7254H24.7455H24.7857H24.8259H24.846H24.9062H24.9665H25.0067H25.067H25.1071H25.1674H25.2277L25.2679 422.08H25.3281H25.3884H25.4085L25.4487 422.1C28.527 424.262 29.8683 425.339 29.8683 427.381C29.8683 429.862 27.7894 431.689 23.9018 431.689C19.5689 431.689 16.7902 429.646 16.7902 426.805C16.7902 423.963 19.3732 423.015 20.2656 422.696C21.9655 422.135 24.1405 422.06 24.5045 422.06Z" fill="black"/>
<path d="M25.067 402.247C22.8811 402.247 20.1426 402.57 17.8348 404.451C16.0943 405.931 15.2433 407.971 15.2433 409.811C15.2433 412.932 17.681 416.085 21.9732 416.085C22.3779 416.085 22.8136 416.044 23.2589 416.005C23.0557 416.485 22.8571 416.894 22.8571 417.574C22.8571 418.813 23.4952 419.573 24.0625 420.293C22.2406 420.414 18.8373 420.62 16.3281 422.14C13.9372 423.541 13.2143 425.583 13.2143 427.024C13.2143 429.985 16.0409 432.741 21.9129 432.741C28.8789 432.741 32.5804 428.939 32.5804 425.177C32.5804 422.416 30.9464 421.059 29.1652 419.579L27.7187 418.447C27.2734 418.086 26.654 417.62 26.654 416.74C26.654 415.859 27.2743 415.294 27.7991 414.774C29.5009 413.454 31.1942 412.058 31.1942 409.096V408.799L31.1741 408.54L31.154 408.263L31.1138 408.004L31.0536 407.766L31.0134 407.528L30.9531 407.29L30.8728 407.071L30.7924 406.853L30.712 406.635L30.6317 406.436L30.5312 406.238L30.4308 406.059L30.3304 405.88L30.2098 405.701L30.1094 405.523L29.9888 405.364L29.8683 405.205L29.7679 405.066L29.6473 404.927L29.5268 404.788L29.4062 404.669L29.2857 404.53L29.1652 404.411L29.0446 404.312L28.9241 404.213L28.8237 404.113L28.7031 404.014L28.6027 403.915L28.5022 403.835L28.4219 403.756L28.3214 403.676H30.8326L33.4241 402.247H25.067ZM39.5714 402.247V407.329H34.4286V408.6H39.5714V413.682H40.8571V408.6H46V407.329H40.8571V402.247H39.5714ZM22.5357 403.557C25.8986 403.557 27.6384 408.042 27.6384 410.923V411.002V411.062V411.141L27.6183 411.221V411.3V411.379V411.479L27.5982 411.558V411.657L27.5781 411.737V411.836L27.558 411.935L27.5379 412.015L27.5179 412.114L27.4978 412.213L27.4777 412.313L27.4576 412.412L27.4174 412.511L27.3772 412.61L27.3571 412.71L27.317 412.809L27.2567 412.908L27.2165 413.007L27.1763 413.107L27.1161 413.206L27.0558 413.305L26.9955 413.404L26.9353 413.484L26.8549 413.583L26.7946 413.682L26.6942 413.762L26.6138 413.861C25.9653 414.501 24.8742 414.973 23.8616 414.973C20.3786 414.973 18.7991 410.526 18.7991 407.846C18.7991 406.805 19.0158 405.728 19.7031 404.888C20.3517 404.086 21.4844 403.557 22.5357 403.557ZM24.5045 421.425H24.5446H24.5848H24.625H24.6652H24.6853H24.7254H24.7455H24.7857H24.8259H24.846H24.9062H24.9665H25.0067H25.067H25.1071H25.1674H25.2277L25.2679 421.445H25.3281H25.3884H25.4085L25.4487 421.465C28.527 423.627 29.8683 424.704 29.8683 426.746C29.8683 429.227 27.7894 431.054 23.9018 431.054C19.5689 431.054 16.7902 429.011 16.7902 426.17C16.7902 423.327 19.3732 422.38 20.2656 422.06C21.9655 421.5 24.1405 421.425 24.5045 421.425Z" fill="white"/>
</g>
<g clip-path="url(#clip3_0_1)">
<g filter="url(#filter0_f_0_1)">
<path d="M19.1098 313.886L8.76769 313.844L8.28849 313.678C6.00584 312.889 4.16863 311.485 2.88231 309.546C1.72214 307.797 1.00531 305.764 1.10568 303.691L1.10565 303.143L2.17416 303.143C3.69348 303.142 44.7784 303.313 50.3929 303.343L55.0666 303.369L55.0765 304.047C55.1249 307.385 53.458 310.551 50.6872 312.383C49.6833 313.047 48.5265 313.537 47.3309 313.805L46.9271 313.895L38.0262 313.912C33.2219 313.921 24.7096 313.896 19.1098 313.886Z" fill="black"/>
</g>
<g filter="url(#filter1_f_0_1)">
<path d="M1.10564 303.143V267.636C1.12899 264.095 6.2952 260.385 9.89833 260.458L47.3989 260.354C50.5011 261.28 53.814 263.898 54.7445 266.763C55.0637 267.808 54.9676 283.941 54.9676 283.941L55.0666 303.369L1.10564 303.143Z" fill="black"/>
</g>
<path d="M0.95636 302.228V266.721C0.979696 263.18 6.14593 259.47 9.74905 259.544L47.2497 259.439C50.6298 259.461 53.6647 262.983 54.5952 265.848C54.9145 266.894 54.8183 283.027 54.8183 283.027L54.9173 302.454L0.95636 302.228Z" fill="url(#paint23_linear_0_1)"/>
<path d="M18.9604 312.971L8.61823 312.929L8.13904 312.763C5.85638 311.974 4.01917 310.57 2.73285 308.631C1.57268 306.883 0.855856 304.849 0.956217 302.776L0.956188 302.228L2.0247 302.228C3.54403 302.228 44.6289 302.398 50.2435 302.429L54.9172 302.454L54.927 303.133C54.9755 306.47 53.3085 309.636 50.5378 311.468C49.5338 312.132 48.3771 312.622 47.1814 312.89L46.7776 312.981L37.8767 312.997C33.0725 313.006 24.5601 312.981 18.9604 312.971Z" fill="url(#paint24_linear_0_1)"/>
<g opacity="0.42284" filter="url(#filter2_f_0_1)">
<path d="M36.5761 312.805H29.1633V292.676H24.0589V285.54H29.1633V280.677C29.1633 274.856 30.292 271.394 36.6827 271.394H43.4036V278.531H39.2378C36.7497 278.531 36.5859 279.528 36.5859 281.39L36.5753 285.54H43.4402L42.7352 292.676H36.5753L36.5761 312.805Z" fill="black"/>
</g>
<path d="M36.0428 313.232H27.9416V291.973H22.3631V284.437H27.9416V279.301C27.9416 273.153 29.1751 269.497 36.1594 269.497H43.5043V277.035H38.9518C36.2325 277.035 36.0535 278.088 36.0535 280.054L36.0419 284.437H43.5444L42.774 291.973H36.0419L36.0428 313.232Z" fill="url(#paint25_linear_0_1)"/>
</g>
<defs>
<filter id="filter0_f_0_1" x="-2.14192" y="299.904" width="60.4577" height="17.2478" filterUnits="userSpaceOnUse" color-interpolation-filters="sRGB">
<feFlood flood-opacity="0" result="BackgroundImageFix"/>
<feBlend mode="normal" in="SourceGraphic" in2="BackgroundImageFix" result="shape"/>
<feGaussianBlur stdDeviation="1.61913" result="effect1_foregroundBlur_0_1"/>
</filter>
<filter id="filter1_f_0_1" x="-2.13262" y="257.116" width="60.4375" height="49.4911" filterUnits="userSpaceOnUse" color-interpolation-filters="sRGB">
<feFlood flood-opacity="0" result="BackgroundImageFix"/>
<feBlend mode="normal" in="SourceGraphic" in2="BackgroundImageFix" result="shape"/>
<feGaussianBlur stdDeviation="1.61913" result="effect1_foregroundBlur_0_1"/>
</filter>
<filter id="filter2_f_0_1" x="18.5793" y="265.915" width="30.3405" height="52.3696" filterUnits="userSpaceOnUse" color-interpolation-filters="sRGB">
<feFlood flood-opacity="0" result="BackgroundImageFix"/>
<feBlend mode="normal" in="SourceGraphic" in2="BackgroundImageFix" result="shape"/>
<feGaussianBlur stdDeviation="2.7398" result="effect1_foregroundBlur_0_1"/>
</filter>
<linearGradient id="paint0_linear_0_1" x1="2798.91" y1="74" x2="2798.91" y2="4075.21" gradientUnits="userSpaceOnUse">
<stop stop-color="#E52D27"/>
<stop offset="0.035"/>
<stop offset="1"/>
</linearGradient>
<linearGradient id="paint1_linear_0_1" x1="22.4269" y1="25.1722" x2="22.4269" y2="31.8137" gradientUnits="userSpaceOnUse">
<stop stop-color="#7390D3"/>
<stop offset="1" stop-color="#4E679F"/>
</linearGradient>
<linearGradient id="paint2_linear_0_1" x1="33.6767" y1="25.1722" x2="33.6767" y2="31.8137" gradientUnits="userSpaceOnUse">
<stop stop-color="#7390D3"/>
<stop offset="1" stop-color="#4E679F"/>
</linearGradient>
<linearGradient id="paint3_linear_0_1" x1="28" y1="-3.41741e-06" x2="28" y2="60" gradientUnits="userSpaceOnUse">
<stop stop-color="#7491D4"/>
<stop offset="1" stop-color="#4E679F"/>
</linearGradient>
<radialGradient id="paint4_radial_0_1" cx="0" cy="0" r="1" gradientUnits="userSpaceOnUse" gradientTransform="translate(20.3024 530.885) scale(31.1375 31.6862)">
<stop stop-color="#C0DA74"/>
<stop offset="0.1319" stop-color="#C0DA74"/>
<stop offset="1" stop-color="#5BA147"/>
</radialGradient>
<linearGradient id="paint5_linear_0_1" x1="20.8078" y1="519.855" x2="20.8078" y2="556.655" gradientUnits="userSpaceOnUse">
<stop stop-color="#778B49"/>
<stop offset="0.0165" stop-color="#778B49"/>
<stop offset="1" stop-color="#2B5F25"/>
</linearGradient>
<radialGradient id="paint6_radial_0_1" cx="0" cy="0" r="1" gradientUnits="userSpaceOnUse" gradientTransform="translate(36.5385 542.43) scale(18.7218 19.0517)">
<stop stop-color="white"/>
<stop offset="1" stop-color="#DADCDD"/>
</radialGradient>
<linearGradient id="paint7_linear_0_1" x1="38.1792" y1="534.86" x2="38.1792" y2="561.327" gradientUnits="userSpaceOnUse">
<stop stop-color="#9D9FA2"/>
<stop offset="1" stop-color="#626567"/>
</linearGradient>
<radialGradient id="paint8_radial_0_1" cx="0" cy="0" r="1" gradientUnits="userSpaceOnUse" gradientTransform="translate(36.5449 542.434) scale(18.7623 19.0928)">
<stop stop-color="#F6F5F5"/>
<stop offset="1" stop-color="#E5E5E5"/>
</radialGradient>
<radialGradient id="paint9_radial_0_1" cx="0" cy="0" r="1" gradientUnits="userSpaceOnUse" gradientTransform="translate(36.549 542.434) scale(18.7158 19.0456)">
<stop stop-color="#F6F5F5"/>
<stop offset="1" stop-color="#E5E5E5"/>
</radialGradient>
<radialGradient id="paint10_radial_0_1" cx="0" cy="0" r="1" gradientUnits="userSpaceOnUse" gradientTransform="translate(20.2962 530.914) scale(31.182 31.7314)">
<stop stop-color="#D8E3B1"/>
<stop offset="0.1319" stop-color="#D8E3B1"/>
<stop offset="1" stop-color="#A5C293"/>
</radialGradient>
<radialGradient id="paint11_radial_0_1" cx="0" cy="0" r="1" gradientUnits="userSpaceOnUse" gradientTransform="translate(20.3074 530.914) scale(31.2451 31.7956)">
<stop stop-color="#D8E3B1"/>
<stop offset="0.1319" stop-color="#D8E3B1"/>
<stop offset="1" stop-color="#A5C293"/>
</radialGradient>
<linearGradient id="paint12_linear_0_1" x1="33.4372" y1="545.008" x2="33.4372" y2="541.691" gradientUnits="userSpaceOnUse">
<stop stop-color="#424243"/>
<stop offset="1" stop-color="#231F20"/>
</linearGradient>
<linearGradient id="paint13_linear_0_1" x1="43.6952" y1="545.008" x2="43.6952" y2="541.691" gradientUnits="userSpaceOnUse">
<stop stop-color="#424243"/>
<stop offset="1" stop-color="#231F20"/>
</linearGradient>
<linearGradient id="paint14_linear_0_1" x1="27.144" y1="531.917" x2="27.144" y2="528.724" gradientUnits="userSpaceOnUse">
<stop stop-color="#424243"/>
<stop offset="1" stop-color="#231F20"/>
</linearGradient>
<linearGradient id="paint15_linear_0_1" x1="14.3694" y1="531.917" x2="14.3694" y2="528.724" gradientUnits="userSpaceOnUse">
<stop stop-color="#424243"/>
<stop offset="1" stop-color="#231F20"/>
</linearGradient>
<linearGradient id="paint16_linear_0_1" x1="17.8757" y1="440.916" x2="17.8757" y2="387.484" gradientUnits="userSpaceOnUse">
<stop/>
<stop offset="1" stop-opacity="0.588235"/>
</linearGradient>
<linearGradient id="paint17_linear_0_1" x1="28" y1="440.365" x2="28" y2="386.992" gradientUnits="userSpaceOnUse">
<stop stop-color="#1A1818"/>
<stop offset="1" stop-color="#403D3D"/>
</linearGradient>
<linearGradient id="paint18_linear_0_1" x1="20.5153" y1="387" x2="20.5153" y2="423.779" gradientUnits="userSpaceOnUse">
<stop stop-color="white"/>
<stop offset="1" stop-color="white" stop-opacity="0"/>
</linearGradient>
<radialGradient id="paint19_radial_0_1" cx="0" cy="0" r="1" gradientUnits="userSpaceOnUse" gradientTransform="translate(28 440.365) scale(31.2474 26.5732)">
<stop stop-color="white"/>
<stop offset="1" stop-color="white" stop-opacity="0"/>
</radialGradient>
<linearGradient id="paint20_linear_0_1" x1="17.0714" y1="393.353" x2="17.0714" y2="395.259" gradientUnits="userSpaceOnUse">
<stop/>
<stop offset="1" stop-opacity="0"/>
</linearGradient>
<linearGradient id="paint21_linear_0_1" x1="22.8571" y1="387" x2="22.8571" y2="392.082" gradientUnits="userSpaceOnUse">
<stop stop-color="white"/>
<stop offset="1" stop-color="white" stop-opacity="0"/>
</linearGradient>
<linearGradient id="paint22_linear_0_1" x1="20.5153" y1="387" x2="20.5153" y2="423.779" gradientUnits="userSpaceOnUse">
<stop stop-color="white"/>
<stop offset="1" stop-color="white" stop-opacity="0"/>
</linearGradient>
<linearGradient id="paint23_linear_0_1" x1="30.0483" y1="298.239" x2="30.2487" y2="261.995" gradientUnits="userSpaceOnUse">
<stop stop-color="#2A477F"/>
<stop offset="1" stop-color="#5E81CA"/>
</linearGradient>
<linearGradient id="paint24_linear_0_1" x1="27.7032" y1="312.172" x2="27.6852" y2="302.672" gradientUnits="userSpaceOnUse">
<stop stop-color="#3E578D"/>
<stop offset="1" stop-color="#506BA3"/>
</linearGradient>
<linearGradient id="paint25_linear_0_1" x1="32.3707" y1="313.218" x2="32.2856" y2="276.679" gradientUnits="userSpaceOnUse">
<stop stop-color="#CAD4EA"/>
<stop offset="1" stop-color="#FCFEFE"/>
</linearGradient>
<clipPath id="clip0_0_1">
<rect width="56" height="40" fill="white" transform="translate(0 74)"/>
</clipPath>
<clipPath id="clip1_0_1">
<rect width="52" height="44" fill="white" transform="translate(2 521)"/>
</clipPath>
<clipPath id="clip2_0_1">
<rect width="54" height="54" fill="white" transform="translate(1 387)"/>
</clipPath>
<clipPath id="clip3_0_1">
<rect width="56" height="57" fill="white" transform="translate(0 257)"/>
</clipPath>
</defs>
</svg>
